<svg width="40" height="40" viewBox="0 0 40 40" fill="none" xmlns="http://www.w3.org/2000/svg">
<circle cx="20" cy="20" r="20" fill="#DB2929"/>
<path d="M28.8291 19.9425C28.4024 19.9425 27.9909 20.0077 27.6044 20.1282L27.0422 19.019C27.76 18.773 28.4928 18.6576 29.2507 18.7278C29.6773 18.763 30.0036 18.4367 30.0186 18.0252L30.0036 16.7352C29.9584 16.5144 28.8592 11.3798 23.9404 10.6971C23.4686 10.6269 22.9616 11.1087 23.1925 11.6709C23.308 11.9369 23.4284 12.2531 23.5439 12.5894L22.3895 11.9369C22.0482 11.7462 21.6165 11.8666 21.4258 12.2029C21.235 12.5442 21.3555 12.9759 21.6918 13.1666L24.0558 14.5017C24.1311 14.9032 24.1813 15.2847 24.1813 15.621C23.5188 15.3499 22.5551 15.099 21.496 15.2947C20.3918 15.4955 19.4231 16.1229 18.6 17.1568C16.7128 16.2634 10.5743 13.7287 7.78864 17.1468C7.68825 17.2723 7.62802 17.4329 7.62802 17.5935V19.4556C7.62802 19.9726 8.21527 20.3942 8.75232 20.0278C9.62566 19.3854 10.6596 19.0491 11.7387 19.0491C12.8831 19.0491 13.9371 19.4355 14.7854 20.078L14.1429 20.7205C13.4603 20.2386 12.6322 19.9475 11.7337 19.9475C9.42991 19.9475 7.55273 21.8247 7.55273 24.1285C7.55273 26.4323 9.42991 28.3095 11.7337 28.3095C14.0375 28.3095 15.9147 26.4323 15.9147 24.1285C15.9147 23.2301 15.6286 22.4019 15.1417 21.7193L15.7842 21.0768C16.4267 21.9251 16.8131 22.9791 16.8131 24.1285C16.8131 24.52 17.1293 24.8362 17.5208 24.8362H22.6956C23.0871 24.8362 23.4033 24.52 23.4033 24.1285C23.4033 22.2714 24.3419 20.6301 25.7724 19.6564L26.3345 20.7757C25.3056 21.5386 24.6381 22.7532 24.6381 24.1285C24.6381 26.4323 26.5152 28.3095 28.819 28.3095C31.1228 28.3095 33 26.4323 33 24.1285C33 21.8247 31.1329 19.9425 28.8291 19.9425ZM11.7438 26.889C10.2179 26.889 8.97818 25.6493 8.97818 24.1235C8.97818 22.5976 10.2179 21.3579 11.7438 21.3579C12.2507 21.3579 12.7225 21.4984 13.1341 21.7343L11.2469 23.6216C10.9708 23.8976 10.9708 24.3443 11.2469 24.6204C11.5229 24.8964 11.9696 24.8964 12.2457 24.6204L14.1329 22.7332C14.3738 23.1397 14.5093 23.6165 14.5093 24.1235C14.5093 25.6493 13.2696 26.889 11.7438 26.889ZM22.0381 23.4158H18.1984C17.8471 20.1684 15.0865 17.6337 11.7488 17.6337C10.8052 17.6337 9.89168 17.8344 9.05347 18.2209V17.8595C11.6885 15.104 18.4293 18.6425 18.4996 18.6827C18.8208 18.8533 19.2173 18.7529 19.4181 18.4518C20.0856 17.448 20.8686 16.8557 21.747 16.6901C23.0972 16.4391 24.2867 17.2572 24.2967 17.2673C24.613 17.5032 25.14 17.4229 25.3508 16.9812C25.8979 15.7665 25.411 13.7438 24.9794 12.4137C27.6897 13.4728 28.4928 16.4542 28.6082 16.9511V17.2974C25.1801 17.4078 22.3844 20.0529 22.0381 23.4158ZM28.8291 26.889C27.3032 26.889 26.0635 25.6493 26.0635 24.1235C26.0635 23.3003 26.4249 22.5625 26.9971 22.0556L28.1967 24.4397C28.3723 24.786 28.799 24.9265 29.1453 24.7509C29.4916 24.5752 29.6321 24.1486 29.4565 23.8022L28.2519 21.4131C28.4376 21.373 28.6283 21.3529 28.8241 21.3529C30.3499 21.3529 31.5896 22.5926 31.5896 24.1185C31.5946 25.6493 30.3549 26.889 28.8291 26.889Z" fill="#EFEFEF"/>
</svg>
