<svg width="41" height="40" viewBox="0 0 41 40" fill="none" xmlns="http://www.w3.org/2000/svg">
<circle cx="20.5" cy="20" r="20" fill="#DB2929"/>
<path d="M11.1999 22.37L13.6549 24.8286V26.9295L10.1494 23.4188C9.28354 22.5513 9.28354 21.14 10.1494 20.2726L19.4041 11H28.4987V19.3479C28.3094 19.2142 28.1041 19.091 27.8826 18.9804C27.6139 18.846 27.3224 18.7305 27.0143 18.635V12.4844H20.0199L11.1999 21.3212C10.9113 21.6104 10.9113 22.0808 11.1999 22.37ZM23.1562 15.6016C23.1562 16.0115 23.4886 16.3438 23.8984 16.3438C24.3084 16.3438 24.6406 16.0115 24.6406 15.6016C24.6406 15.1916 24.3084 14.8594 23.8984 14.8594C23.4885 14.8594 23.1562 15.1918 23.1562 15.6016ZM28.4958 22.1328H28.5V27.7735C28.5 28.4658 28.0456 29.0743 27.2202 29.4869C26.5584 29.8178 25.695 30 24.7891 30C23.8831 30 23.0197 29.8178 22.3579 29.4869C22.156 29.386 21.9766 29.2734 21.8203 29.1506C21.664 29.2734 21.4846 29.386 21.2826 29.4869C20.6209 29.8178 19.7575 30 18.8515 30C17.9455 30 17.0822 29.8178 16.4204 29.4869C15.5952 29.0743 15.1406 28.4658 15.1406 27.7735V24.8789H15.1413C15.141 24.8666 15.1406 24.8543 15.1406 24.8418C15.1406 24.1495 15.5952 23.541 16.4204 23.1284C17.0822 22.7975 17.9455 22.6153 18.8515 22.6153C19.6632 22.6153 20.4433 22.7689 21.0781 23.0498V22.1328H21.0823C21.0797 22.096 21.0781 22.0589 21.0781 22.0215C21.0781 21.3292 21.5327 20.7206 22.3579 20.3081C23.0197 19.9771 23.8831 19.7949 24.7891 19.7949C25.695 19.7949 26.5584 19.9771 27.2202 20.3081C28.0456 20.7206 28.5 21.3292 28.5 22.0215C28.5 22.0589 28.4984 22.096 28.4958 22.1328ZM22.5625 22.0215C22.5625 22.0472 22.6424 22.2176 23.0217 22.4072C23.4747 22.6338 24.1189 22.7637 24.7891 22.7637C25.4592 22.7637 26.1034 22.6338 26.5564 22.4072C26.9357 22.2176 27.0156 22.0472 27.0156 22.0215C27.0156 21.9958 26.9357 21.8254 26.5564 21.6358C26.1034 21.4092 25.4592 21.2793 24.7891 21.2793C24.1189 21.2793 23.4747 21.4092 23.0217 21.6358C22.6424 21.8254 22.5625 21.9958 22.5625 22.0215ZM16.625 24.8418C16.625 24.8675 16.7048 25.0379 17.0842 25.2276C17.5372 25.4541 18.1814 25.584 18.8515 25.584C19.5298 25.584 20.1773 25.4592 20.6282 25.2416C20.9952 25.0645 21.0781 24.9015 21.0781 24.8789C21.0781 24.8344 20.9671 24.6548 20.6097 24.47C20.1549 24.2346 19.514 24.0996 18.8515 24.0996C18.1814 24.0996 17.5372 24.2295 17.0842 24.4561C16.7048 24.6457 16.625 24.8162 16.625 24.8418ZM21.0781 27.7735V26.6666C20.4702 26.9223 19.7077 27.0684 18.8515 27.0684C18.036 27.0684 17.2555 26.9204 16.625 26.6495V27.7735C16.625 27.7991 16.7048 27.9696 17.0842 28.1592C17.5372 28.3858 18.1814 28.5157 18.8515 28.5157C19.5217 28.5157 20.1659 28.3858 20.6189 28.1592C20.9982 27.9696 21.0781 27.7991 21.0781 27.7735ZM27.0156 27.7735V26.6495C26.3852 26.9204 25.6046 27.0684 24.7891 27.0684C23.9735 27.0684 23.1931 26.9204 22.5625 26.6495V27.7735C22.5625 27.7991 22.6424 27.9696 23.0217 28.1592C23.4747 28.3858 24.1189 28.5157 24.7891 28.5157C25.4592 28.5157 26.1034 28.3858 26.5564 28.1592C26.9357 27.9696 27.0156 27.7991 27.0156 27.7735ZM27.0156 24.8418V23.8291C26.3852 24.1001 25.6046 24.2481 24.7891 24.2481C23.9735 24.2481 23.1931 24.1001 22.5625 23.8291V24.8418C22.5625 24.8675 22.6424 25.0379 23.0217 25.2276C23.4747 25.4541 24.1189 25.584 24.7891 25.584C25.4592 25.584 26.1034 25.4541 26.5564 25.2276C26.9357 25.0379 27.0156 24.8675 27.0156 24.8418Z" fill="#EFEFEF"/>
</svg>
