<svg width="40" height="40" viewBox="0 0 40 40" fill="none" xmlns="http://www.w3.org/2000/svg">
<circle cx="20" cy="20" r="20" fill="#DB2929"/>
<path fill-rule="evenodd" clip-rule="evenodd" d="M12.4345 14.8581C11.6832 15.5501 11.1671 16.6256 11.1671 18.1834C11.1671 18.7632 11.5616 19.667 12.3925 20.8112C13.1913 21.9112 14.2817 23.0847 15.42 24.1688C16.5554 25.2501 17.7166 26.2218 18.6412 26.9187C19.1049 27.268 19.4979 27.5399 19.7914 27.7201C19.8731 27.7702 19.9427 27.8106 20.0004 27.8421C20.0582 27.8106 20.1278 27.7702 20.2096 27.7201C20.5031 27.5399 20.8961 27.268 21.3597 26.9187C22.2844 26.2218 23.4455 25.2501 24.5808 24.1688C25.7192 23.0847 26.8096 21.9113 27.6084 20.8112C28.4394 19.667 28.8339 18.7631 28.8339 18.1834C28.8339 16.6256 28.3178 15.5501 27.5665 14.8581C26.8032 14.1551 25.708 13.7667 24.4172 13.7667C23.0363 13.7667 21.5789 14.7548 20.736 16.0224C20.5723 16.2687 20.2962 16.4167 20.0004 16.4167C19.7047 16.4167 19.4286 16.2687 19.2649 16.0224C18.422 14.7548 16.9647 13.7667 15.5837 13.7667C14.293 13.7667 13.1978 14.1551 12.4345 14.8581ZM11.2377 13.5586C12.3927 12.4948 13.9475 12 15.5838 12C17.3054 12 18.8934 12.9312 20.0005 14.1168C21.1077 12.9312 22.6957 12 24.4172 12C26.0535 12 27.6084 12.4948 28.7633 13.5586C29.9302 14.6333 30.6006 16.2078 30.6006 18.1834C30.6006 19.3703 29.8909 20.6747 29.0379 21.8493C28.1529 23.068 26.9797 24.3238 25.7994 25.448C24.616 26.5751 23.403 27.5909 22.4231 28.3295C21.9343 28.6978 21.4924 29.0056 21.1337 29.2257C20.9558 29.335 20.7835 29.4317 20.6275 29.5043C20.5141 29.557 20.2697 29.6668 20.0005 29.6668C19.7312 29.6668 19.4869 29.557 19.3735 29.5043C19.2175 29.4317 19.0452 29.335 18.8672 29.2257C18.5086 29.0056 18.0667 28.6978 17.5779 28.3295C16.5979 27.5909 15.385 26.5751 14.2017 25.448C13.0212 24.3238 11.8481 23.068 10.963 21.8493C10.1101 20.6747 9.40039 19.3703 9.40039 18.1834C9.40044 16.2078 10.0708 14.6333 11.2377 13.5586Z" fill="#EFEFEF"/>
</svg>
