<svg width="138" height="79" viewBox="0 0 138 79" fill="none" xmlns="http://www.w3.org/2000/svg">
<g filter="url(#filter0_b_76_459)">
<rect y="32.2307" width="130" height="48" rx="24" transform="rotate(-14.355 0 32.2307)" fill="#EFEFEF" fill-opacity="0.04"/>
<rect x="0.608354" y="32.5912" width="129" height="47" rx="23.5" transform="rotate(-14.355 0.608354 32.5912)" stroke="#EFEFEF" stroke-opacity="0.2"/>
<path d="M46.7807 43.5694L46.7714 43.5718L46.7738 43.5812L46.7831 43.5788L46.7807 43.5694Z" stroke="#DB2929" stroke-width="2.60322" stroke-linejoin="round"/>
<path d="M49.171 52.9455L52.6584 47.0591C54.5845 43.8081 53.5105 39.6114 50.2595 37.6853C47.0085 35.7593 42.8117 36.8333 40.8857 40.0843C38.9596 43.3352 40.0336 47.532 43.2846 49.4581L49.171 52.9455Z" stroke="#DB2929" stroke-width="1.73548" stroke-linejoin="round"/>
<path d="M76.3354 43.1458L74.7078 43.5623L68.0979 39.1596L66.1876 41.7625L67.1436 45.4981L65.9966 45.7917L63.1642 34.7244L64.3113 34.4308L65.8425 40.414L71.457 32.6021L73.1155 32.1776L68.7986 38.1545L76.3354 43.1458ZM85.2669 40.86L84.1044 41.1575L82.3352 34.2443L78.6327 42.5579L77.1757 42.9307L75.1129 34.8705L76.2599 34.577L78.0371 41.5212L81.7161 33.1806L83.2042 32.7998L85.2669 40.86ZM88.1305 40.1272L86.9835 40.4207L84.9207 32.3605L86.0677 32.067L88.1305 40.1272ZM83.9393 31.0427L82.8078 31.3322L82.3714 29.6272L83.503 29.3376L83.9393 31.0427ZM87.4424 30.1462L86.2954 30.4397L85.8591 28.7347L87.0061 28.4411L87.4424 30.1462ZM95.0064 38.3675L89.8758 39.6805L87.813 31.6203L93.0676 30.2755C94.6177 29.8789 95.6026 30.4361 95.9239 31.6916C96.1223 32.4666 95.9486 33.3369 94.8845 33.8899L94.8885 33.9054C96.4201 33.6951 97.0042 34.7513 97.1708 35.4023C97.4207 36.3788 97.2385 37.7963 95.0064 38.3675ZM93.6788 34.7931L90.0826 35.7134L90.7887 38.4725L94.5089 37.5204C94.8964 37.4213 96.3415 37.0019 95.9885 35.6223C95.6592 34.3358 94.4538 34.5947 93.6788 34.7931ZM92.7476 31.3484L89.198 32.2568L89.8526 34.8144L93.4642 33.8901C93.8827 33.783 95.1263 33.4152 94.805 32.1596C94.4996 30.9661 93.4762 31.1619 92.7476 31.3484Z" fill="#EFEFEF"/>
</g>
<defs>
<filter id="filter0_b_76_459" x="-20" y="-20" width="177.842" height="118.732" filterUnits="userSpaceOnUse" color-interpolation-filters="sRGB">
<feFlood flood-opacity="0" result="BackgroundImageFix"/>
<feGaussianBlur in="BackgroundImageFix" stdDeviation="10"/>
<feComposite in2="SourceAlpha" operator="in" result="effect1_backgroundBlur_76_459"/>
<feBlend mode="normal" in="SourceGraphic" in2="effect1_backgroundBlur_76_459" result="shape"/>
</filter>
</defs>
</svg>
