<svg viewBox="0 0 237 55" fill="none" xmlns="http://www.w3.org/2000/svg">
<g filter="url(#filter0_b_13_163)">
<g opacity="0.7">
<circle cx="17.5" cy="27.5" r="16.9" stroke="#EFEFEF" stroke-width="1.2"/>
<path fill-rule="evenodd" clip-rule="evenodd" d="M6.43207 27.2294C6.42992 27.3194 6.42883 27.4095 6.42883 27.5C6.42883 33.6146 11.3857 38.5714 17.5003 38.5714C23.6148 38.5714 28.5717 33.6146 28.5717 27.5C28.5717 27.4095 28.5706 27.3194 28.5684 27.2294H27.5075C27.5099 27.3193 27.5111 27.4095 27.5111 27.5C27.5111 33.0288 23.0291 37.5108 17.5003 37.5108C11.9714 37.5108 7.48944 33.0288 7.48944 27.5C7.48944 27.4095 7.49064 27.3193 7.49302 27.2294H6.43207Z" fill="#EFEFEF"/>
</g>
<path d="M54.635 23.5H53.525V15.7H50.285V14.86H50.945C52.805 14.86 53.405 14.62 53.705 12.88H54.635V23.5ZM61.66 23.74C58.87 23.74 57.28 21.835 57.28 18.325C57.28 14.785 58.885 12.88 61.66 12.88C64.435 12.88 66.04 14.755 66.04 18.325C66.04 21.805 64.45 23.74 61.66 23.74ZM61.66 22.81C63.835 22.81 64.93 21.37 64.93 18.325C64.93 15.28 63.865 13.81 61.645 13.81C59.485 13.81 58.39 15.25 58.39 18.325C58.39 21.37 59.485 22.81 61.66 22.81ZM71.6796 23.74C68.8896 23.74 67.2996 21.835 67.2996 18.325C67.2996 14.785 68.9046 12.88 71.6796 12.88C74.4546 12.88 76.0596 14.755 76.0596 18.325C76.0596 21.805 74.4696 23.74 71.6796 23.74ZM71.6796 22.81C73.8546 22.81 74.9496 21.37 74.9496 18.325C74.9496 15.28 73.8846 13.81 71.6646 13.81C69.5046 13.81 68.4096 15.25 68.4096 18.325C68.4096 21.37 69.5046 22.81 71.6796 22.81ZM81.6991 23.74C78.9091 23.74 77.3191 21.835 77.3191 18.325C77.3191 14.785 78.9241 12.88 81.6991 12.88C84.4741 12.88 86.0791 14.755 86.0791 18.325C86.0791 21.805 84.4891 23.74 81.6991 23.74ZM81.6991 22.81C83.8741 22.81 84.9691 21.37 84.9691 18.325C84.9691 15.28 83.9041 13.81 81.6841 13.81C79.5241 13.81 78.4291 15.25 78.4291 18.325C78.4291 21.37 79.5241 22.81 81.6991 22.81ZM91.5836 23.5H90.8336V20.08H87.4136V19.33H90.8336V15.91H91.5836V19.33H95.0036V20.08H91.5836V23.5ZM106.013 19.375V19.42C107.123 19.51 107.993 20.17 107.993 21.295C107.993 22.885 106.613 23.74 104.183 23.74C101.258 23.74 100.283 22.645 100.268 20.83H101.363C101.393 22.285 102.188 22.81 104.198 22.81C105.878 22.81 106.898 22.33 106.898 21.265C106.898 20.215 105.938 19.93 104.258 19.93C104.123 19.93 103.463 19.93 103.298 19.945V19.03C103.358 19.045 103.988 19.045 104.078 19.045C105.443 19.045 106.718 18.73 106.718 17.605C106.718 16.675 105.923 16.345 104.318 16.345C102.518 16.345 101.708 16.735 101.573 18.04H100.508C100.568 16.3 101.798 15.46 104.333 15.46C106.613 15.46 107.738 16.12 107.738 17.56C107.738 18.46 107.138 19.255 106.013 19.375ZM117.864 22.69V23.44C117.609 23.5 117.294 23.56 116.949 23.56C116.154 23.56 115.734 23.26 115.734 22.18H115.704C114.999 23.29 113.784 23.74 112.074 23.74C110.334 23.74 109.029 22.915 109.029 21.4C109.029 19.27 111.264 19.03 113.064 18.94C113.919 18.895 114.459 18.85 114.789 18.79C115.464 18.655 115.644 18.505 115.644 17.92C115.644 16.81 114.954 16.39 113.064 16.39C111.234 16.39 110.469 16.885 110.394 18.1H109.374C109.554 16.195 110.769 15.46 113.094 15.46C115.599 15.46 116.664 16.225 116.664 17.725V21.865C116.664 22.45 116.814 22.72 117.294 22.72C117.444 22.72 117.639 22.705 117.864 22.69ZM115.644 20.485V19.3C115.224 19.585 114.369 19.69 113.679 19.75L112.149 19.885C110.514 20.035 110.139 20.605 110.139 21.325C110.139 22.345 110.874 22.9 112.389 22.9C113.259 22.9 114.009 22.675 114.669 22.24C115.314 21.79 115.644 21.205 115.644 20.485ZM127.559 25.885H126.509V23.5H118.784V25.885H117.764V22.57H118.769C119.714 21.025 120.119 18.61 120.119 16.495V15.7H126.344V22.57H127.559V25.885ZM125.234 22.57V16.63H121.154V17.11C121.154 18.94 120.659 21.295 119.879 22.57H125.234ZM137.643 19.6C137.643 22.255 135.738 23.74 133.218 23.74C130.458 23.74 128.793 22.03 128.793 19.6C128.793 17.5 130.113 15.46 133.218 15.46C136.158 15.46 137.643 17.365 137.643 19.6ZM136.533 19.6C136.533 18.13 135.663 16.39 133.203 16.39C131.238 16.39 129.903 17.665 129.903 19.6C129.903 21.505 131.193 22.81 133.218 22.81C135.228 22.81 136.533 21.535 136.533 19.6ZM144.062 23.5H139.097V15.7H144.182C145.682 15.7 146.447 16.435 146.447 17.65C146.447 18.4 146.087 19.15 144.992 19.405V19.42C146.432 19.585 146.717 20.68 146.717 21.31C146.717 22.255 146.222 23.5 144.062 23.5ZM143.687 19.945H140.207V22.615H143.807C144.182 22.615 145.592 22.57 145.592 21.235C145.592 19.99 144.437 19.945 143.687 19.945ZM143.642 16.6H140.207V19.075H143.702C144.107 19.075 145.322 19.03 145.322 17.815C145.322 16.66 144.347 16.6 143.642 16.6ZM156.744 19.6C156.744 22.255 154.839 23.74 152.319 23.74C149.559 23.74 147.894 22.03 147.894 19.6C147.894 17.5 149.214 15.46 152.319 15.46C155.259 15.46 156.744 17.365 156.744 19.6ZM155.634 19.6C155.634 18.13 154.764 16.39 152.304 16.39C150.339 16.39 149.004 17.665 149.004 19.6C149.004 21.505 150.294 22.81 152.319 22.81C154.329 22.81 155.634 21.535 155.634 19.6ZM166.239 23.5H165.129V16.63H160.899C160.899 22.6 159.939 23.59 158.274 23.59C158.034 23.59 157.584 23.545 157.344 23.5V22.555C157.584 22.6 157.914 22.63 158.109 22.63C159.294 22.63 159.879 21.82 159.879 15.7H166.239V23.5ZM176.31 19.87H168.78C168.78 21.64 170.07 22.81 171.915 22.81C173.625 22.81 174.585 22.315 175.005 21.01H176.115C175.515 22.84 174.015 23.74 171.915 23.74C169.125 23.74 167.67 21.94 167.67 19.6C167.67 17.17 169.275 15.46 171.915 15.46C174.675 15.46 176.31 17.02 176.31 19.87ZM168.78 19.03H175.2C174.945 17.35 173.73 16.39 171.975 16.39C170.265 16.39 168.945 17.41 168.78 19.03ZM185.436 23.5H184.326V19.885H178.791V23.5H177.681V15.7H178.791V18.94H184.326V15.7H185.436V23.5ZM194.974 23.5H193.849V16.81L188.554 23.5H187.144V15.7H188.254V22.42L193.534 15.7H194.974V23.5ZM204.48 23.5H203.01L200.1 20.26L197.235 23.5H195.78L199.35 19.45L196.02 15.7H197.46L200.1 18.67L202.725 15.7H204.18L200.805 19.45L204.48 23.5ZM58.7 42.5H57.245L53.765 38.57L51.965 40.04V42.5H50.855V34.7H51.965V38.81L56.885 34.7H58.4L54.605 37.865L58.7 42.5ZM67.5229 42.5H66.4129V35.63H62.1829C62.1829 41.6 61.2229 42.59 59.5579 42.59C59.3179 42.59 58.8679 42.545 58.6279 42.5V41.555C58.8679 41.6 59.1979 41.63 59.3929 41.63C60.5779 41.63 61.1629 40.82 61.1629 34.7H67.5229V42.5ZM70.3038 33.35H69.1938V31.7H70.3038V33.35ZM70.3038 42.5H69.1938V34.7H70.3038V42.5ZM78.9527 39.725H80.0777C79.7027 41.9 78.0827 42.755 76.0277 42.755C73.2227 42.755 71.7227 40.895 71.7227 38.675C71.7227 36.155 73.3127 34.46 76.0277 34.46C78.2627 34.46 79.8077 35.63 80.0027 37.25H78.8777C78.7427 36.26 77.7077 35.375 76.0727 35.375C74.1377 35.375 73.0727 36.59 72.8627 38.075H77.2427V38.96H72.8327C72.9377 40.295 73.8527 41.84 76.0727 41.84C77.5277 41.84 78.6827 41.18 78.9527 39.725ZM89.0495 42.5H87.9395V38.885H82.4045V42.5H81.2945V34.7H82.4045V37.94H87.9395V34.7H89.0495V42.5ZM94.5073 42.5H93.3973V35.63H89.8423V34.7H98.0623V35.63H94.5073V42.5ZM99.9229 33.35H98.8129V31.7H99.9229V33.35ZM99.9229 42.5H98.8129V34.7H99.9229V42.5ZM106.577 42.5H101.612V34.7H106.697C108.197 34.7 108.962 35.435 108.962 36.65C108.962 37.4 108.602 38.15 107.507 38.405V38.42C108.947 38.585 109.232 39.68 109.232 40.31C109.232 41.255 108.737 42.5 106.577 42.5ZM106.202 38.945H102.722V41.615H106.322C106.697 41.615 108.107 41.57 108.107 40.235C108.107 38.99 106.952 38.945 106.202 38.945ZM106.157 35.6H102.722V38.075H106.217C106.622 38.075 107.837 38.03 107.837 36.815C107.837 35.66 106.862 35.6 106.157 35.6ZM120.134 38.375V38.42C121.244 38.51 122.114 39.17 122.114 40.295C122.114 41.885 120.734 42.74 118.304 42.74C115.379 42.74 114.404 41.645 114.389 39.83H115.484C115.514 41.285 116.309 41.81 118.319 41.81C119.999 41.81 121.019 41.33 121.019 40.265C121.019 39.215 120.059 38.93 118.379 38.93C118.244 38.93 117.584 38.93 117.419 38.945V38.03C117.479 38.045 118.109 38.045 118.199 38.045C119.564 38.045 120.839 37.73 120.839 36.605C120.839 35.675 120.044 35.345 118.439 35.345C116.639 35.345 115.829 35.735 115.694 37.04H114.629C114.689 35.3 115.919 34.46 118.454 34.46C120.734 34.46 121.859 35.12 121.859 36.56C121.859 37.46 121.259 38.255 120.134 38.375ZM131.985 41.69V42.44C131.73 42.5 131.415 42.56 131.07 42.56C130.275 42.56 129.855 42.26 129.855 41.18H129.825C129.12 42.29 127.905 42.74 126.195 42.74C124.455 42.74 123.15 41.915 123.15 40.4C123.15 38.27 125.385 38.03 127.185 37.94C128.04 37.895 128.58 37.85 128.91 37.79C129.585 37.655 129.765 37.505 129.765 36.92C129.765 35.81 129.075 35.39 127.185 35.39C125.355 35.39 124.59 35.885 124.515 37.1H123.495C123.675 35.195 124.89 34.46 127.215 34.46C129.72 34.46 130.785 35.225 130.785 36.725V40.865C130.785 41.45 130.935 41.72 131.415 41.72C131.565 41.72 131.76 41.705 131.985 41.69ZM129.765 39.485V38.3C129.345 38.585 128.49 38.69 127.8 38.75L126.27 38.885C124.635 39.035 124.26 39.605 124.26 40.325C124.26 41.345 124.995 41.9 126.51 41.9C127.38 41.9 128.13 41.675 128.79 41.24C129.435 40.79 129.765 40.205 129.765 39.485ZM144.43 33.05H139.015L138.28 36.485L138.31 36.515C138.925 35.915 139.945 35.495 141.04 35.495C143.545 35.495 145.09 36.92 145.09 39.095C145.09 40.16 144.73 41.03 144.025 41.72C143.305 42.395 142.285 42.74 140.935 42.74C138.475 42.74 137.035 41.645 136.78 39.515H137.89C138.16 41.12 139.15 41.81 140.935 41.81C142.81 41.81 143.98 40.82 143.98 39.11C143.98 37.4 142.81 36.425 140.86 36.425C139.75 36.425 138.835 36.83 138.16 37.655L137.125 37.61L138.175 32.12H144.43V33.05ZM152.204 45.53H151.094V34.7H152.204V36.26H152.234C152.759 35.075 153.869 34.46 155.414 34.46C158.684 34.46 159.659 36.815 159.659 38.6C159.659 41.03 158.054 42.74 155.429 42.74C154.079 42.74 152.789 42.02 152.234 40.94H152.204V45.53ZM155.414 41.81C157.274 41.81 158.549 40.46 158.549 38.6C158.549 36.755 157.394 35.39 155.399 35.39C153.539 35.39 152.144 36.635 152.144 38.6C152.144 40.46 153.404 41.81 155.414 41.81ZM169.679 38.6C169.679 41.255 167.774 42.74 165.254 42.74C162.494 42.74 160.829 41.03 160.829 38.6C160.829 36.5 162.149 34.46 165.254 34.46C168.194 34.46 169.679 36.365 169.679 38.6ZM168.569 38.6C168.569 37.13 167.699 35.39 165.239 35.39C163.274 35.39 161.939 36.665 161.939 38.6C161.939 40.505 163.229 41.81 165.254 41.81C167.264 41.81 168.569 40.535 168.569 38.6ZM178.978 42.5H177.523L174.043 38.57L172.243 40.04V42.5H171.133V34.7H172.243V38.81L177.163 34.7H178.678L174.883 37.865L178.978 42.5ZM180.826 33.35H179.716V31.7H180.826V33.35ZM180.826 42.5H179.716V34.7H180.826V42.5ZM187.48 42.5H182.515V34.7H187.6C189.1 34.7 189.865 35.435 189.865 36.65C189.865 37.4 189.505 38.15 188.41 38.405V38.42C189.85 38.585 190.135 39.68 190.135 40.31C190.135 41.255 189.64 42.5 187.48 42.5ZM187.105 38.945H183.625V41.615H187.225C187.6 41.615 189.01 41.57 189.01 40.235C189.01 38.99 187.855 38.945 187.105 38.945ZM187.06 35.6H183.625V38.075H187.12C187.525 38.075 188.74 38.03 188.74 36.815C188.74 35.66 187.765 35.6 187.06 35.6ZM203.497 42.5H202.387V35.63H196.882V42.5H195.772V34.7H203.497V42.5ZM206.301 45.53H205.191V34.7H206.301V36.26H206.331C206.856 35.075 207.966 34.46 209.511 34.46C212.781 34.46 213.756 36.815 213.756 38.6C213.756 41.03 212.151 42.74 209.526 42.74C208.176 42.74 206.886 42.02 206.331 40.94H206.301V45.53ZM209.511 41.81C211.371 41.81 212.646 40.46 212.646 38.6C212.646 36.755 211.491 35.39 209.496 35.39C207.636 35.39 206.241 36.635 206.241 38.6C206.241 40.46 207.501 41.81 209.511 41.81ZM223.625 41.69V42.44C223.37 42.5 223.055 42.56 222.71 42.56C221.915 42.56 221.495 42.26 221.495 41.18H221.465C220.76 42.29 219.545 42.74 217.835 42.74C216.095 42.74 214.79 41.915 214.79 40.4C214.79 38.27 217.025 38.03 218.825 37.94C219.68 37.895 220.22 37.85 220.55 37.79C221.225 37.655 221.405 37.505 221.405 36.92C221.405 35.81 220.715 35.39 218.825 35.39C216.995 35.39 216.23 35.885 216.155 37.1H215.135C215.315 35.195 216.53 34.46 218.855 34.46C221.36 34.46 222.425 35.225 222.425 36.725V40.865C222.425 41.45 222.575 41.72 223.055 41.72C223.205 41.72 223.4 41.705 223.625 41.69ZM221.405 39.485V38.3C220.985 38.585 220.13 38.69 219.44 38.75L217.91 38.885C216.275 39.035 215.9 39.605 215.9 40.325C215.9 41.345 216.635 41.9 218.15 41.9C219.02 41.9 219.77 41.675 220.43 41.24C221.075 40.79 221.405 40.205 221.405 39.485ZM233.305 44.885H232.27V42.5H224.38V34.7H225.49V41.57H230.995V34.7H232.105V41.57H233.305V44.885ZM235.333 33.35H234.223V31.7H235.333V33.35ZM235.333 42.5H234.223V34.7H235.333V42.5Z" fill="#EFEFEF" fill-opacity="0.8"/>
</g>
<defs>
<filter id="filter0_b_13_163" x="-20" y="-20" width="277" height="95" filterUnits="userSpaceOnUse" color-interpolation-filters="sRGB">
<feFlood flood-opacity="0" result="BackgroundImageFix"/>
<feGaussianBlur in="BackgroundImageFix" stdDeviation="10"/>
<feComposite in2="SourceAlpha" operator="in" result="effect1_backgroundBlur_13_163"/>
<feBlend mode="normal" in="SourceGraphic" in2="effect1_backgroundBlur_13_163" result="shape"/>
</filter>
</defs>
</svg>
