<svg width="721" height="259" viewBox="0 0 721 259" fill="none" xmlns="http://www.w3.org/2000/svg">
<path d="M62.192 35.976H68.12V38.104C68.12 44.184 67.512 46.844 65.536 49.124C63.636 51.404 61.128 52.468 56.492 53C53.604 53.228 44.94 53.532 38.1 53.532C19.784 53.532 15.3 52.772 11.576 48.896C8.308 45.552 7.548 41.524 7.548 27.692C7.548 11.884 8.612 7.856 13.78 4.588C17.656 2.156 21.836 1.776 42.736 1.776C55.428 1.776 59.836 2.384 62.952 4.664C66.372 7.02 67.436 10.212 67.664 18.268H61.736V16.976C61.736 8.008 59.608 7.096 38.328 7.096C14.008 7.096 13.856 7.172 13.856 27.692C13.856 39.244 14.388 42.892 16.516 45.096C18.948 47.604 22.824 48.212 37.036 48.212C59.836 48.212 62.192 47.376 62.192 38.864V35.976ZM80.2438 53V2.308H130.708V7.4H86.3238V24.348H129.112V29.136H86.3238V47.908H131.088V53H80.2438ZM142.513 53V2.308H183.401C191.381 2.308 194.497 3.068 196.929 5.652C199.133 7.932 199.969 11.2 199.969 17.28C199.969 24.728 198.981 27.844 195.941 30.276C193.433 32.252 190.241 33.088 184.769 33.088H148.593V53H142.513ZM148.593 27.996H180.285C191.229 27.996 193.661 26.096 193.661 17.66C193.661 9.452 191.229 7.4 181.501 7.4H148.593V27.996ZM210.646 53V2.308H251.23C258.678 2.308 261.642 2.992 264.15 5.272C266.658 7.552 267.722 10.668 267.722 15.608C267.722 23.132 265.67 25.336 257.994 26.248C262.782 26.552 264.606 27.008 266.278 28.3C268.482 29.972 269.546 33.164 269.546 38.18C269.546 48.668 264.834 53 253.51 53H210.646ZM216.726 24.12H246.974C255.106 24.12 257.006 23.892 258.754 22.828C260.578 21.688 261.414 19.484 261.414 15.912C261.414 9.452 258.83 7.4 250.546 7.4H216.726V24.12ZM216.726 47.908H250.774C260.806 47.908 263.238 46.008 263.238 38.256C263.238 30.504 260.958 28.908 249.406 28.908H216.726V47.908ZM281.377 53V2.308H287.457V53H281.377ZM354.762 35.976H360.69V38.104C360.69 44.184 360.082 46.844 358.106 49.124C356.206 51.404 353.698 52.468 349.062 53C346.174 53.228 337.51 53.532 330.67 53.532C312.354 53.532 307.87 52.772 304.146 48.896C300.878 45.552 300.118 41.524 300.118 27.692C300.118 11.884 301.182 7.856 306.35 4.588C310.226 2.156 314.406 1.776 335.306 1.776C347.998 1.776 352.406 2.384 355.522 4.664C358.942 7.02 360.006 10.212 360.234 18.268H354.306V16.976C354.306 8.008 352.178 7.096 330.898 7.096C306.578 7.096 306.426 7.172 306.426 27.692C306.426 39.244 306.958 42.892 309.086 45.096C311.518 47.604 315.394 48.212 329.606 48.212C352.406 48.212 354.762 47.376 354.762 38.864V35.976ZM211.456 66.776C231.9 66.776 235.852 67.46 239.728 71.412C242.996 74.832 243.756 78.784 243.756 92.616C243.756 106.524 242.996 110.476 239.728 113.896C235.852 117.924 231.976 118.532 211.152 118.532C190.328 118.532 186.452 117.924 182.576 113.896C179.308 110.476 178.548 106.524 178.548 92.692C178.548 78.784 179.308 74.756 182.576 71.412C186.452 67.384 190.328 66.776 211.456 66.776ZM211.456 72.096C193.976 72.096 189.948 72.628 187.516 75.212C185.388 77.416 184.856 81.064 184.856 92.692C184.856 104.244 185.388 107.892 187.516 110.096C190.1 112.832 193.292 113.212 211.152 113.212C229.012 113.212 232.204 112.756 234.788 110.096C236.916 107.892 237.448 104.244 237.448 92.692C237.448 81.064 236.916 77.416 234.788 75.212C232.432 72.628 228.176 72.096 211.456 72.096ZM256.439 118V67.308H297.327C305.307 67.308 308.423 68.068 310.855 70.652C313.059 72.932 313.895 76.2 313.895 82.28C313.895 89.728 312.907 92.844 309.867 95.276C307.359 97.252 304.167 98.088 298.695 98.088H262.519V118H256.439ZM262.519 92.996H294.211C305.155 92.996 307.587 91.096 307.587 82.66C307.587 74.452 305.155 72.4 295.427 72.4H262.519V92.996ZM324.572 118V67.308H375.036V72.4H330.652V89.348H373.44V94.136H330.652V112.908H375.416V118H324.572ZM386.841 118V67.308H392.921V89.5H440.421V67.308H446.501V118H440.421V94.288H392.921V118H386.841ZM521.945 113.212H528.025V128.108H521.945V118H458.713V128.108H452.633V113.212H454.989C458.333 113.212 460.841 112.3 462.741 110.4C465.477 107.664 466.313 104.472 466.313 96.492V67.308H521.945V113.212ZM515.865 113.212V72.096H472.393V97.024C472.393 103.104 472.013 105.232 470.645 108.044C469.429 110.4 467.985 111.996 466.009 113.212H515.865ZM536.838 67.308H542.918V112.908L588.518 67.308H596.498V118H590.418V72.4L544.818 118H536.838V67.308ZM55.428 171.6H13.932L7.244 183H0.48L30.348 132.308H38.936L68.804 183H62.116L55.428 171.6ZM52.54 166.812L34.68 136.564L16.82 166.812H52.54ZM74.3805 183V132.308H114.965C122.413 132.308 125.377 132.992 127.885 135.272C130.393 137.552 131.457 140.668 131.457 145.608C131.457 153.132 129.405 155.336 121.729 156.248C126.517 156.552 128.341 157.008 130.013 158.3C132.217 159.972 133.281 163.164 133.281 168.18C133.281 178.668 128.569 183 117.245 183H74.3805ZM80.4605 154.12H110.709C118.841 154.12 120.741 153.892 122.489 152.828C124.313 151.688 125.149 149.484 125.149 145.912C125.149 139.452 122.565 137.4 114.281 137.4H80.4605V154.12ZM80.4605 177.908H114.509C124.541 177.908 126.973 176.008 126.973 168.256C126.973 160.504 124.693 158.908 113.141 158.908H80.4605V177.908ZM164.982 183V137.4H139.218V132.308H196.75V137.4H171.062V183H164.982ZM236.468 131.776C256.912 131.776 260.864 132.46 264.74 136.412C268.008 139.832 268.768 143.784 268.768 157.616C268.768 171.524 268.008 175.476 264.74 178.896C260.864 182.924 256.988 183.532 236.164 183.532C215.34 183.532 211.464 182.924 207.588 178.896C204.32 175.476 203.56 171.524 203.56 157.692C203.56 143.784 204.32 139.756 207.588 136.412C211.464 132.384 215.34 131.776 236.468 131.776ZM236.468 137.096C218.988 137.096 214.96 137.628 212.528 140.212C210.4 142.416 209.868 146.064 209.868 157.692C209.868 169.244 210.4 172.892 212.528 175.096C215.112 177.832 218.304 178.212 236.164 178.212C254.024 178.212 257.216 177.756 259.8 175.096C261.928 172.892 262.46 169.244 262.46 157.692C262.46 146.064 261.928 142.416 259.8 140.212C257.444 137.628 253.188 137.096 236.468 137.096ZM281.451 183V132.308H291.255L321.807 175.932L352.435 132.308H361.935V183H355.855V137.324L323.935 183H319.451L287.531 137.324V183H281.451ZM407.542 131.776C427.986 131.776 431.938 132.46 435.814 136.412C439.082 139.832 439.842 143.784 439.842 157.616C439.842 171.524 439.082 175.476 435.814 178.896C431.938 182.924 428.062 183.532 407.238 183.532C386.414 183.532 382.538 182.924 378.662 178.896C375.394 175.476 374.634 171.524 374.634 157.692C374.634 143.784 375.394 139.756 378.662 136.412C382.538 132.384 386.414 131.776 407.542 131.776ZM407.542 137.096C390.062 137.096 386.034 137.628 383.602 140.212C381.474 142.416 380.942 146.064 380.942 157.692C380.942 169.244 381.474 172.892 383.602 175.096C386.186 177.832 389.378 178.212 407.238 178.212C425.098 178.212 428.29 177.756 430.874 175.096C433.002 172.892 433.534 169.244 433.534 157.692C433.534 146.064 433.002 142.416 430.874 140.212C428.518 137.628 424.262 137.096 407.542 137.096ZM458.605 137.4V152.296H494.781C500.253 152.296 503.445 153.132 505.953 155.108C508.993 157.54 509.981 160.656 509.981 168.028C509.981 174.184 509.145 177.376 506.941 179.656C504.509 182.24 501.469 183 493.489 183H452.525V132.308H498.809V137.4H458.605ZM458.605 157.388V177.908H491.513C501.241 177.908 503.673 175.856 503.673 167.648C503.673 159.288 501.241 157.388 490.297 157.388H458.605ZM520.658 183V132.308H526.738V183H520.658ZM600.276 132.308V183H594.196V137.096H550.724V162.328C550.724 172.588 548.596 177.832 543.048 181.024C540.464 182.544 537.652 183.228 533.32 183.38V178.44C536.968 178.364 539.096 177.604 541.072 175.628C543.808 172.892 544.644 169.7 544.644 161.72V132.308H600.276ZM614.47 183V132.308H620.55V183H614.47ZM634.732 183V132.308H675.316C682.764 132.308 685.728 132.992 688.236 135.272C690.744 137.552 691.808 140.668 691.808 145.608C691.808 153.132 689.756 155.336 682.08 156.248C686.868 156.552 688.692 157.008 690.364 158.3C692.568 159.972 693.632 163.164 693.632 168.18C693.632 178.668 688.92 183 677.596 183H634.732ZM640.812 154.12H671.06C679.192 154.12 681.092 153.892 682.84 152.828C684.664 151.688 685.5 149.484 685.5 145.912C685.5 139.452 682.916 137.4 674.632 137.4H640.812V154.12ZM640.812 177.908H674.86C684.892 177.908 687.324 176.008 687.324 168.256C687.324 160.504 685.044 158.908 673.492 158.908H640.812V177.908ZM705.463 174.488H713.215V183C713.215 188.396 710.479 191.132 705.083 191.208H704.551V187.104C707.135 187.104 708.275 185.812 708.199 183H705.463V174.488ZM9.068 248V197.308H18.872L49.424 240.932L80.052 197.308H89.552V248H83.472V202.324L51.552 248H47.068L15.148 202.324V248H9.068ZM136.679 196.776C157.123 196.776 161.075 197.46 164.951 201.412C168.219 204.832 168.979 208.784 168.979 222.616C168.979 236.524 168.219 240.476 164.951 243.896C161.075 247.924 157.199 248.532 136.375 248.532C115.551 248.532 111.675 247.924 107.799 243.896C104.531 240.476 103.771 236.524 103.771 222.692C103.771 208.784 104.531 204.756 107.799 201.412C111.675 197.384 115.551 196.776 136.679 196.776ZM136.679 202.096C119.199 202.096 115.171 202.628 112.739 205.212C110.611 207.416 110.079 211.064 110.079 222.692C110.079 234.244 110.611 237.892 112.739 240.096C115.323 242.832 118.515 243.212 136.375 243.212C154.235 243.212 157.427 242.756 160.011 240.096C162.139 237.892 162.671 234.244 162.671 222.692C162.671 211.064 162.139 207.416 160.011 205.212C157.655 202.628 153.399 202.096 136.679 202.096ZM203.053 248V202.4H177.289V197.308H234.821V202.4H209.133V248H203.053ZM276.059 196.776C296.503 196.776 300.455 197.46 304.331 201.412C307.599 204.832 308.359 208.784 308.359 222.616C308.359 236.524 307.599 240.476 304.331 243.896C300.455 247.924 296.579 248.532 275.755 248.532C254.931 248.532 251.055 247.924 247.179 243.896C243.911 240.476 243.151 236.524 243.151 222.692C243.151 208.784 243.911 204.756 247.179 201.412C251.055 197.384 254.931 196.776 276.059 196.776ZM276.059 202.096C258.579 202.096 254.551 202.628 252.119 205.212C249.991 207.416 249.459 211.064 249.459 222.692C249.459 234.244 249.991 237.892 252.119 240.096C254.703 242.832 257.895 243.212 275.755 243.212C293.615 243.212 296.807 242.756 299.391 240.096C301.519 237.892 302.051 234.244 302.051 222.692C302.051 211.064 301.519 207.416 299.391 205.212C297.035 202.628 292.779 202.096 276.059 202.096ZM382.222 243.212H388.302V258.108H382.222V248H322.562V197.308H328.642V243.212H376.142V197.308H382.222V243.212ZM398.746 197.308H404.826V242.908L450.426 197.308H458.406V248H452.326V202.4L406.726 248H398.746V197.308ZM474.114 248V197.308H480.194V219.424H489.39L522.526 197.308H532.786L495.774 221.856L534.686 248H524.502L489.238 224.212H480.194V248H474.114ZM601.119 197.308V248H595.039V202.096H551.567V227.328C551.567 237.588 549.439 242.832 543.891 246.024C541.307 247.544 538.495 248.228 534.163 248.38V243.44C537.811 243.364 539.939 242.604 541.915 240.628C544.651 237.892 545.487 234.7 545.487 226.72V197.308H601.119ZM616.833 248V197.308H622.913V248H616.833ZM638.615 248V197.308H679.199C686.647 197.308 689.611 197.992 692.119 200.272C694.627 202.552 695.691 205.668 695.691 210.608C695.691 218.132 693.639 220.336 685.963 221.248C690.751 221.552 692.575 222.008 694.247 223.3C696.451 224.972 697.515 228.164 697.515 233.18C697.515 243.668 692.803 248 681.479 248H638.615ZM644.695 219.12H674.943C683.075 219.12 684.975 218.892 686.723 217.828C688.547 216.688 689.383 214.484 689.383 210.912C689.383 204.452 686.799 202.4 678.515 202.4H644.695V219.12ZM644.695 242.908H678.743C688.775 242.908 691.207 241.008 691.207 233.256C691.207 225.504 688.927 223.908 677.375 223.908H644.695V242.908Z" fill="#EFEFEF"/>
<path d="M62.192 35.976V35.476H61.692V35.976H62.192ZM68.12 35.976H68.62V35.476H68.12V35.976ZM65.536 49.124L65.1581 48.7965L65.1519 48.8039L65.536 49.124ZM56.492 53L56.5314 53.4984L56.5402 53.4977L56.549 53.4967L56.492 53ZM11.576 48.896L11.9366 48.5496L11.9336 48.5465L11.576 48.896ZM13.78 4.588L13.5143 4.16446L13.5128 4.1654L13.78 4.588ZM62.952 4.664L62.6567 5.06751L62.6625 5.07171L62.6684 5.07575L62.952 4.664ZM67.664 18.268V18.768H68.1784L68.1638 18.2539L67.664 18.268ZM61.736 18.268H61.236V18.768H61.736V18.268ZM16.516 45.096L16.1563 45.4433L16.1571 45.4441L16.516 45.096ZM62.192 36.476H68.12V35.476H62.192V36.476ZM67.62 35.976V38.104H68.62V35.976H67.62ZM67.62 38.104C67.62 44.17 67.0062 46.6642 65.1582 48.7965L65.9138 49.4515C68.0178 47.0238 68.62 44.198 68.62 38.104H67.62ZM65.1519 48.8039C63.3712 50.9407 61.0156 51.9776 56.435 52.5033L56.549 53.4967C61.2404 52.9584 63.9008 51.8673 65.9201 49.4441L65.1519 48.8039ZM56.4526 52.5016C53.5828 52.7281 44.9332 53.032 38.1 53.032V54.032C44.9468 54.032 53.6252 53.7279 56.5314 53.4984L56.4526 52.5016ZM38.1 53.032C28.9348 53.032 23.2781 52.8408 19.4517 52.1749C15.663 51.5156 13.7134 50.399 11.9366 48.5496L11.2154 49.2424C13.1626 51.269 15.317 52.4704 19.2803 53.1601C23.2059 53.8432 28.9492 54.032 38.1 54.032V53.032ZM11.9336 48.5465C10.3769 46.9536 9.41028 45.2037 8.82773 42.1338C8.23916 39.0321 8.048 34.6114 8.048 27.692H7.048C7.048 34.6046 7.23684 39.1139 7.84527 42.3202C8.45972 45.5583 9.50712 47.4944 11.2184 49.2455L11.9336 48.5465ZM8.048 27.692C8.048 19.779 8.31664 14.8852 9.20885 11.5673C9.65166 9.92063 10.2443 8.67912 11.0236 7.65681C11.8036 6.63364 12.7884 5.80662 14.0472 5.01059L13.5128 4.1654C12.1876 5.00337 11.1014 5.90536 10.2284 7.05056C9.35469 8.19663 8.71234 9.56287 8.24315 11.3077C7.31136 14.7728 7.048 19.797 7.048 27.692H8.048ZM14.0457 5.01153C15.8977 3.8495 17.8295 3.16192 21.9219 2.76769C26.0353 2.37145 32.2796 2.276 42.736 2.276V1.276C32.2924 1.276 25.9967 1.37054 21.8261 1.7723C17.6345 2.17608 15.5383 2.8945 13.5143 4.16447L14.0457 5.01153ZM42.736 2.276C49.0821 2.276 53.3254 2.42852 56.3647 2.86003C59.3916 3.28977 61.186 3.99133 62.6567 5.06751L63.2473 4.26048C61.602 3.05666 59.6344 2.31423 56.5053 1.86996C53.3886 1.42748 49.0819 1.276 42.736 1.276V2.276ZM62.6684 5.07575C64.2951 6.19641 65.3468 7.49817 66.0322 9.4911C66.7279 11.5143 67.0504 14.2616 67.1642 18.2821L68.1638 18.2539C68.0496 14.2184 67.7261 11.3417 66.9778 9.1659C66.2192 6.95983 65.0289 5.48759 63.2357 4.25224L62.6684 5.07575ZM67.664 17.768H61.736V18.768H67.664V17.768ZM62.236 18.268V16.976H61.236V18.268H62.236ZM62.236 16.976C62.236 14.7326 62.1062 12.9085 61.536 11.4652C60.9497 9.98102 59.9131 8.93363 58.2066 8.21244C56.5311 7.50432 54.2012 7.10627 50.9983 6.87987C47.7867 6.65286 43.6476 6.596 38.328 6.596V7.596C43.6484 7.596 47.7553 7.65314 50.9277 7.87738C54.1088 8.10223 56.3009 8.49267 57.8174 9.13356C59.3029 9.76136 60.1283 10.6235 60.606 11.8326C61.0998 13.0825 61.236 14.7354 61.236 16.976H62.236ZM38.328 6.596C32.2579 6.596 27.6603 6.60021 24.1967 6.93076C20.7427 7.2604 18.3121 7.92115 16.6505 9.31605C14.9709 10.7261 14.1651 12.8089 13.7643 15.7495C13.3644 18.6837 13.356 22.5756 13.356 27.692H14.356C14.356 22.5484 14.3666 18.7358 14.7552 15.8845C15.1429 13.0396 15.8951 11.2559 17.2935 10.0819C18.7099 8.89285 20.8773 8.25209 24.2918 7.92624C27.6967 7.60128 32.2381 7.596 38.328 7.596V6.596ZM13.356 27.692C13.356 33.4655 13.4883 37.3008 13.8937 39.9745C14.3011 42.6614 14.9931 44.2385 16.1563 45.4433L16.8757 44.7487C15.911 43.7495 15.2729 42.4006 14.8823 39.8245C14.4897 37.2352 14.356 33.4705 14.356 27.692H13.356ZM16.1571 45.4441C17.4759 46.8041 19.1712 47.6138 22.2831 48.0888C25.3756 48.5608 29.9342 48.712 37.036 48.712V47.712C29.9258 47.712 25.4404 47.5592 22.434 47.1002C19.4468 46.6442 17.9881 45.8959 16.875 44.7479L16.1571 45.4441ZM37.036 48.712C42.7356 48.712 47.1719 48.6599 50.6162 48.4474C54.0522 48.2355 56.5457 47.8622 58.3376 47.1989C60.155 46.5261 61.28 45.5431 61.9232 44.1218C62.5484 42.74 62.692 40.9956 62.692 38.864H61.692C61.692 40.9884 61.5411 42.5405 61.0121 43.7095C60.501 44.8389 59.612 45.6609 57.9904 46.2611C56.3433 46.8708 53.9728 47.2385 50.5546 47.4493C47.1446 47.6596 42.7365 47.712 37.036 47.712V48.712ZM62.692 38.864V35.976H61.692V38.864H62.692ZM80.2438 53H79.7438V53.5H80.2438V53ZM80.2438 2.308V1.808H79.7438V2.308H80.2438ZM130.708 2.308H131.208V1.808H130.708V2.308ZM130.708 7.4V7.9H131.208V7.4H130.708ZM86.3238 7.4V6.9H85.8238V7.4H86.3238ZM86.3238 24.348H85.8238V24.848H86.3238V24.348ZM129.112 24.348H129.612V23.848H129.112V24.348ZM129.112 29.136V29.636H129.612V29.136H129.112ZM86.3238 29.136V28.636H85.8238V29.136H86.3238ZM86.3238 47.908H85.8238V48.408H86.3238V47.908ZM131.088 47.908H131.588V47.408H131.088V47.908ZM131.088 53V53.5H131.588V53H131.088ZM80.7438 53V2.308H79.7438V53H80.7438ZM80.2438 2.808H130.708V1.808H80.2438V2.808ZM130.208 2.308V7.4H131.208V2.308H130.208ZM130.708 6.9H86.3238V7.9H130.708V6.9ZM85.8238 7.4V24.348H86.8238V7.4H85.8238ZM86.3238 24.848H129.112V23.848H86.3238V24.848ZM128.612 24.348V29.136H129.612V24.348H128.612ZM129.112 28.636H86.3238V29.636H129.112V28.636ZM85.8238 29.136V47.908H86.8238V29.136H85.8238ZM86.3238 48.408H131.088V47.408H86.3238V48.408ZM130.588 47.908V53H131.588V47.908H130.588ZM131.088 52.5H80.2438V53.5H131.088V52.5ZM142.513 53H142.013V53.5H142.513V53ZM142.513 2.308V1.808H142.013V2.308H142.513ZM196.929 5.652L196.565 5.99471L196.57 5.99951L196.929 5.652ZM195.941 30.276L196.251 30.6688L196.254 30.6664L195.941 30.276ZM148.593 33.088V32.588H148.093V33.088H148.593ZM148.593 53V53.5H149.093V53H148.593ZM148.593 27.996H148.093V28.496H148.593V27.996ZM148.593 7.4V6.9H148.093V7.4H148.593ZM143.013 53V2.308H142.013V53H143.013ZM142.513 2.808H183.401V1.808H142.513V2.808ZM183.401 2.808C191.387 2.808 194.294 3.58167 196.565 5.99468L197.293 5.30932C194.7 2.55433 191.376 1.808 183.401 1.808V2.808ZM196.57 5.99951C198.629 8.13016 199.469 11.2218 199.469 17.28H200.469C200.469 11.1782 199.637 7.73384 197.289 5.30449L196.57 5.99951ZM199.469 17.28C199.469 20.9924 199.222 23.5712 198.618 25.5104C198.022 27.4244 197.075 28.7288 195.629 29.8856L196.254 30.6664C197.848 29.3912 198.915 27.9216 199.573 25.8076C200.223 23.7188 200.469 21.0156 200.469 17.28H199.469ZM195.632 29.8833C193.253 31.7573 190.196 32.588 184.769 32.588V33.588C190.286 33.588 193.613 32.7467 196.251 30.6687L195.632 29.8833ZM184.769 32.588H148.593V33.588H184.769V32.588ZM148.093 33.088V53H149.093V33.088H148.093ZM148.593 52.5H142.513V53.5H148.593V52.5ZM148.593 28.496H180.285V27.496H148.593V28.496ZM180.285 28.496C183.031 28.496 185.269 28.3772 187.079 28.0598C188.889 27.7423 190.307 27.2202 191.383 26.3869C193.564 24.6987 194.161 21.8837 194.161 17.66H193.161C193.161 21.8723 192.542 24.2253 190.771 25.5961C189.872 26.2923 188.63 26.7724 186.906 27.0748C185.182 27.3773 183.012 27.496 180.285 27.496V28.496ZM194.161 17.66C194.161 13.5459 193.562 10.7663 191.552 9.06985C189.572 7.39983 186.353 6.9 181.501 6.9V7.9C186.377 7.9 189.238 8.42617 190.907 9.83414C192.544 11.2157 193.161 13.5661 193.161 17.66H194.161ZM181.501 6.9H148.593V7.9H181.501V6.9ZM148.093 7.4V27.996H149.093V7.4H148.093ZM210.646 53H210.146V53.5H210.646V53ZM210.646 2.308V1.808H210.146V2.308H210.646ZM264.15 5.272L263.814 5.64197V5.64197L264.15 5.272ZM257.994 26.248L257.935 25.7515L257.962 26.747L257.994 26.248ZM266.278 28.3L265.972 28.6957L265.976 28.6983L266.278 28.3ZM216.726 24.12H216.226V24.62H216.726V24.12ZM258.754 22.828L259.014 23.2551L259.019 23.252L258.754 22.828ZM216.726 7.4V6.9H216.226V7.4H216.726ZM216.726 47.908H216.226V48.408H216.726V47.908ZM216.726 28.908V28.408H216.226V28.908H216.726ZM211.146 53V2.308H210.146V53H211.146ZM210.646 2.808H251.23V1.808H210.646V2.808ZM251.23 2.808C258.675 2.808 261.459 3.50151 263.814 5.64197L264.486 4.90203C261.825 2.48248 258.682 1.808 251.23 1.808V2.808ZM263.814 5.64197C266.176 7.78973 267.222 10.7414 267.222 15.608H268.222C268.222 10.5946 267.14 7.31426 264.486 4.90203L263.814 5.64197ZM267.222 15.608C267.222 19.3546 266.703 21.6137 265.368 23.0695C264.028 24.5303 261.763 25.2966 257.935 25.7515L258.053 26.7445C261.901 26.2874 264.5 25.4957 266.105 23.7455C267.715 21.9903 268.222 19.3854 268.222 15.608H267.222ZM257.962 26.747C262.748 27.0508 264.432 27.505 265.972 28.6956L266.584 27.9044C264.781 26.511 262.816 26.0532 258.026 25.749L257.962 26.747ZM265.976 28.6983C267.984 30.2216 269.046 33.201 269.046 38.18H270.046C270.046 33.127 268.98 29.7224 266.58 27.9017L265.976 28.6983ZM269.046 38.18C269.046 43.3609 267.881 46.898 265.435 49.1556C262.98 51.4223 259.127 52.5 253.51 52.5V53.5C259.218 53.5 263.382 52.4117 266.114 49.8904C268.855 47.36 270.046 43.4871 270.046 38.18H269.046ZM253.51 52.5H210.646V53.5H253.51V52.5ZM216.726 24.62H246.974V23.62H216.726V24.62ZM246.974 24.62C251.036 24.62 253.571 24.5635 255.313 24.3699C257.076 24.1741 258.063 23.8343 259.014 23.2551L258.494 22.4009C257.698 22.8857 256.86 23.1919 255.203 23.3761C253.525 23.5625 251.044 23.62 246.974 23.62V24.62ZM259.019 23.252C261.068 21.9714 261.914 19.5365 261.914 15.912H260.914C260.914 19.4315 260.088 21.4046 258.489 22.404L259.019 23.252ZM261.914 15.912C261.914 12.6346 261.262 10.3059 259.395 8.84026C257.568 7.40546 254.694 6.9 250.546 6.9V7.9C254.682 7.9 257.242 8.42053 258.778 9.62673C260.274 10.8021 260.914 12.7294 260.914 15.912H261.914ZM250.546 6.9H216.726V7.9H250.546V6.9ZM216.226 7.4V24.12H217.226V7.4H216.226ZM216.726 48.408H250.774V47.408H216.726V48.408ZM250.774 48.408C253.293 48.408 255.361 48.2891 257.044 47.9819C258.727 47.6745 260.057 47.1731 261.075 46.3841C263.137 44.7845 263.738 42.1479 263.738 38.256H262.738C262.738 42.1161 262.123 44.3055 260.462 45.5939C259.617 46.2489 258.459 46.707 256.864 46.9981C255.269 47.2894 253.271 47.408 250.774 47.408V48.408ZM263.738 38.256C263.738 34.3716 263.178 31.7852 260.935 30.2614C259.839 29.5169 258.386 29.0596 256.514 28.7838C254.639 28.5077 252.301 28.408 249.406 28.408V29.408C252.287 29.408 254.567 29.5078 256.368 29.7732C258.172 30.0389 259.455 30.4651 260.373 31.0886C262.158 32.3008 262.738 34.3884 262.738 38.256H263.738ZM249.406 28.408H216.726V29.408H249.406V28.408ZM216.226 28.908V47.908H217.226V28.908H216.226ZM281.377 53H280.877V53.5H281.377V53ZM281.377 2.308V1.808H280.877V2.308H281.377ZM287.457 2.308H287.957V1.808H287.457V2.308ZM287.457 53V53.5H287.957V53H287.457ZM281.877 53V2.308H280.877V53H281.877ZM281.377 2.808H287.457V1.808H281.377V2.808ZM286.957 2.308V53H287.957V2.308H286.957ZM287.457 52.5H281.377V53.5H287.457V52.5ZM354.762 35.976V35.476H354.262V35.976H354.762ZM360.69 35.976H361.19V35.476H360.69V35.976ZM358.106 49.124L357.728 48.7965L357.722 48.8039L358.106 49.124ZM349.062 53L349.102 53.4984L349.111 53.4977L349.119 53.4967L349.062 53ZM304.146 48.896L304.507 48.5496L304.504 48.5465L304.146 48.896ZM306.35 4.588L306.085 4.16446L306.083 4.1654L306.35 4.588ZM355.522 4.664L355.227 5.06751L355.233 5.07171L355.239 5.07575L355.522 4.664ZM360.234 18.268V18.768H360.749L360.734 18.2539L360.234 18.268ZM354.306 18.268H353.806V18.768H354.306V18.268ZM309.086 45.096L308.727 45.4433L308.727 45.4441L309.086 45.096ZM354.762 36.476H360.69V35.476H354.762V36.476ZM360.19 35.976V38.104H361.19V35.976H360.19ZM360.19 38.104C360.19 44.17 359.576 46.6642 357.728 48.7965L358.484 49.4515C360.588 47.0238 361.19 44.198 361.19 38.104H360.19ZM357.722 48.8039C355.942 50.9407 353.586 51.9776 349.005 52.5033L349.119 53.4967C353.811 52.9584 356.471 51.8673 358.49 49.4441L357.722 48.8039ZM349.023 52.5016C346.153 52.7281 337.503 53.032 330.67 53.032V54.032C337.517 54.032 346.196 53.7279 349.102 53.4984L349.023 52.5016ZM330.67 53.032C321.505 53.032 315.848 52.8408 312.022 52.1749C308.233 51.5156 306.284 50.399 304.507 48.5496L303.786 49.2424C305.733 51.269 307.887 52.4704 311.851 53.1601C315.776 53.8432 321.52 54.032 330.67 54.032V53.032ZM304.504 48.5465C302.947 46.9536 301.981 45.2037 301.398 42.1338C300.809 39.0321 300.618 34.6114 300.618 27.692H299.618C299.618 34.6046 299.807 39.1139 300.416 42.3202C301.03 45.5583 302.077 47.4944 303.789 49.2455L304.504 48.5465ZM300.618 27.692C300.618 19.779 300.887 14.8852 301.779 11.5673C302.222 9.92063 302.815 8.67912 303.594 7.65681C304.374 6.63364 305.359 5.80662 306.618 5.01059L306.083 4.1654C304.758 5.00337 303.672 5.90536 302.799 7.05056C301.925 8.19663 301.283 9.56287 300.813 11.3077C299.882 14.7728 299.618 19.797 299.618 27.692H300.618ZM306.616 5.01153C308.468 3.8495 310.4 3.16192 314.492 2.76769C318.606 2.37145 324.85 2.276 335.306 2.276V1.276C324.863 1.276 318.567 1.37054 314.396 1.7723C310.205 2.17608 308.109 2.8945 306.085 4.16447L306.616 5.01153ZM335.306 2.276C341.652 2.276 345.896 2.42852 348.935 2.86003C351.962 3.28977 353.756 3.99133 355.227 5.06751L355.818 4.26048C354.172 3.05666 352.205 2.31423 349.076 1.86996C345.959 1.42748 341.652 1.276 335.306 1.276V2.276ZM355.239 5.07575C356.865 6.19641 357.917 7.49817 358.603 9.4911C359.298 11.5143 359.621 14.2616 359.735 18.2821L360.734 18.2539C360.62 14.2184 360.296 11.3417 359.548 9.1659C358.789 6.95983 357.599 5.48759 355.806 4.25224L355.239 5.07575ZM360.234 17.768H354.306V18.768H360.234V17.768ZM354.806 18.268V16.976H353.806V18.268H354.806ZM354.806 16.976C354.806 14.7326 354.677 12.9085 354.106 11.4652C353.52 9.98102 352.483 8.93363 350.777 8.21244C349.101 7.50432 346.772 7.10627 343.569 6.87987C340.357 6.65286 336.218 6.596 330.898 6.596V7.596C336.219 7.596 340.326 7.65314 343.498 7.87738C346.679 8.10223 348.871 8.49267 350.388 9.13356C351.873 9.76136 352.699 10.6235 353.176 11.8326C353.67 13.0825 353.806 14.7354 353.806 16.976H354.806ZM330.898 6.596C324.828 6.596 320.231 6.60021 316.767 6.93076C313.313 7.2604 310.882 7.92115 309.221 9.31605C307.541 10.7261 306.735 12.8089 306.335 15.7495C305.935 18.6837 305.926 22.5756 305.926 27.692H306.926C306.926 22.5484 306.937 18.7358 307.325 15.8845C307.713 13.0396 308.465 11.2559 309.864 10.0819C311.28 8.89285 313.448 8.25209 316.862 7.92624C320.267 7.60128 324.808 7.596 330.898 7.596V6.596ZM305.926 27.692C305.926 33.4655 306.059 37.3008 306.464 39.9745C306.871 42.6614 307.563 44.2385 308.727 45.4433L309.446 44.7487C308.481 43.7495 307.843 42.4006 307.453 39.8245C307.06 37.2352 306.926 33.4705 306.926 27.692H305.926ZM308.727 45.4441C310.046 46.8041 311.741 47.6138 314.853 48.0888C317.946 48.5608 322.505 48.712 329.606 48.712V47.712C322.496 47.712 318.011 47.5592 315.004 47.1002C312.017 46.6442 310.558 45.8959 309.445 44.7479L308.727 45.4441ZM329.606 48.712C335.306 48.712 339.742 48.6599 343.186 48.4474C346.622 48.2355 349.116 47.8622 350.908 47.1989C352.725 46.5261 353.85 45.5431 354.493 44.1218C355.119 42.74 355.262 40.9956 355.262 38.864H354.262C354.262 40.9884 354.111 42.5405 353.582 43.7095C353.071 44.8389 352.182 45.6609 350.561 46.2611C348.914 46.8708 346.543 47.2385 343.125 47.4493C339.715 47.6596 335.307 47.712 329.606 47.712V48.712ZM355.262 38.864V35.976H354.262V38.864H355.262ZM239.728 71.412L240.09 71.0665L240.085 71.0619L239.728 71.412ZM239.728 113.896L240.088 114.243L240.089 114.241L239.728 113.896ZM182.576 113.896L182.215 114.241L182.216 114.243L182.576 113.896ZM182.576 71.412L182.934 71.7615L182.936 71.7587L182.576 71.412ZM187.516 75.212L187.876 75.5593L187.88 75.5547L187.516 75.212ZM187.516 110.096L187.88 109.753L187.876 109.749L187.516 110.096ZM234.788 110.096L235.147 110.444L235.148 110.443L234.788 110.096ZM234.788 75.212L234.419 75.5489L234.423 75.5542L234.428 75.5593L234.788 75.212ZM211.456 67.276C221.688 67.276 227.744 67.4483 231.724 68.1053C233.705 68.4325 235.149 68.8767 236.326 69.4672C237.499 70.056 238.429 70.8017 239.371 71.7621L240.085 71.0619C239.089 70.0463 238.072 69.2245 236.775 68.5735C235.481 67.9243 233.933 67.4565 231.886 67.1187C227.81 66.4457 221.668 66.276 211.456 66.276V67.276ZM239.367 71.7574C240.927 73.3909 241.894 75.1435 242.476 78.203C243.065 81.295 243.256 85.6965 243.256 92.616H244.256C244.256 85.7034 244.067 81.213 243.459 78.016C242.844 74.7865 241.797 72.8531 240.089 71.0666L239.367 71.7574ZM243.256 92.616C243.256 99.5735 243.065 103.994 242.476 107.096C241.894 110.165 240.927 111.917 239.367 113.551L240.089 114.241C241.797 112.455 242.844 110.521 243.459 107.282C244.067 104.076 244.256 99.5665 244.256 92.616H243.256ZM239.368 113.549C238.426 114.528 237.501 115.282 236.331 115.873C235.157 116.467 233.712 116.908 231.716 117.231C227.707 117.879 221.575 118.032 211.152 118.032V119.032C221.553 119.032 227.771 118.881 231.875 118.218C233.936 117.885 235.488 117.42 236.782 116.766C238.079 116.11 239.092 115.278 240.088 114.243L239.368 113.549ZM211.152 118.032C200.729 118.032 194.597 117.879 190.588 117.231C188.592 116.908 187.147 116.467 185.973 115.873C184.803 115.282 183.878 114.528 182.936 113.549L182.216 114.243C183.212 115.278 184.225 116.11 185.522 116.766C186.816 117.42 188.368 117.885 190.429 118.218C194.533 118.881 200.751 119.032 211.152 119.032V118.032ZM182.938 113.551C181.377 111.917 180.41 110.165 179.828 107.105C179.239 104.013 179.048 99.6115 179.048 92.692H178.048C178.048 99.6045 178.237 104.095 178.845 107.292C179.46 110.521 180.507 112.455 182.215 114.241L182.938 113.551ZM179.048 92.692C179.048 85.7345 179.239 81.2948 179.828 78.1834C180.41 75.104 181.377 73.3542 182.934 71.7615L182.218 71.0625C180.507 72.8138 179.46 74.75 178.845 77.9976C178.237 81.2132 178.048 85.7415 178.048 92.692H179.048ZM182.936 71.7587C183.878 70.7796 184.803 70.026 185.977 69.4349C187.156 68.8417 188.61 68.3998 190.626 68.0772C194.673 67.4293 200.881 67.276 211.456 67.276V66.276C200.903 66.276 194.609 66.4267 190.467 67.0898C188.388 67.4227 186.826 67.888 185.528 68.5417C184.225 69.1974 183.212 70.0303 182.216 71.0653L182.936 71.7587ZM211.456 71.596C202.722 71.596 197.312 71.7283 193.778 72.1892C190.229 72.6522 188.481 73.4574 187.152 74.8693L187.88 75.5547C188.983 74.3826 190.465 73.6298 193.908 73.1808C197.366 72.7297 202.71 72.596 211.456 72.596V71.596ZM187.156 74.8647C185.993 76.0697 185.301 77.6469 184.894 80.3433C184.488 83.0263 184.356 86.8805 184.356 92.692H185.356C185.356 86.8755 185.49 83.0917 185.882 80.4927C186.273 77.9071 186.911 76.5583 187.876 75.5593L187.156 74.8647ZM184.356 92.692C184.356 98.4655 184.488 102.301 184.894 104.974C185.301 107.661 185.993 109.239 187.156 110.443L187.876 109.749C186.911 108.749 186.273 107.401 185.882 104.825C185.49 102.235 185.356 98.4705 185.356 92.692H184.356ZM187.152 110.439C187.835 111.162 188.571 111.742 189.584 112.194C190.587 112.641 191.839 112.954 193.541 113.176C196.933 113.618 202.232 113.712 211.152 113.712V112.712C202.212 112.712 196.985 112.616 193.67 112.184C192.018 111.969 190.872 111.674 189.992 111.281C189.121 110.892 188.489 110.398 187.88 109.753L187.152 110.439ZM211.152 113.712C220.073 113.712 225.372 113.599 228.764 113.147C230.466 112.921 231.717 112.606 232.719 112.162C233.729 111.715 234.465 111.146 235.147 110.444L234.429 109.748C233.819 110.376 233.187 110.862 232.314 111.248C231.432 111.638 230.284 111.936 228.633 112.156C225.318 112.597 220.091 112.712 211.152 112.712V113.712ZM235.148 110.443C236.311 109.239 237.003 107.661 237.41 104.974C237.816 102.301 237.948 98.4655 237.948 92.692H236.948C236.948 98.4705 236.814 102.235 236.422 104.825C236.031 107.401 235.393 108.749 234.428 109.749L235.148 110.443ZM237.948 92.692C237.948 86.8805 237.816 83.0263 237.41 80.3433C237.003 77.6469 236.311 76.0697 235.148 74.8647L234.428 75.5593C235.393 76.5583 236.031 77.9071 236.422 80.4927C236.814 83.0917 236.948 86.8755 236.948 92.692H237.948ZM235.157 74.8751C233.864 73.456 232.071 72.6518 228.574 72.1893C225.087 71.7283 219.81 71.596 211.456 71.596V72.596C219.822 72.596 225.033 72.7297 228.443 73.1807C231.843 73.6302 233.356 74.384 234.419 75.5489L235.157 74.8751ZM256.439 118H255.939V118.5H256.439V118ZM256.439 67.308V66.808H255.939V67.308H256.439ZM310.855 70.652L310.491 70.9947L310.496 70.9995L310.855 70.652ZM309.867 95.276L310.177 95.6688L310.179 95.6664L309.867 95.276ZM262.519 98.088V97.588H262.019V98.088H262.519ZM262.519 118V118.5H263.019V118H262.519ZM262.519 92.996H262.019V93.496H262.519V92.996ZM262.519 72.4V71.9H262.019V72.4H262.519ZM256.939 118V67.308H255.939V118H256.939ZM256.439 67.808H297.327V66.808H256.439V67.808ZM297.327 67.808C305.312 67.808 308.22 68.5817 310.491 70.9947L311.219 70.3093C308.626 67.5543 305.302 66.808 297.327 66.808V67.808ZM310.496 70.9995C312.555 73.1302 313.395 76.2218 313.395 82.28H314.395C314.395 76.1782 313.563 72.7338 311.215 70.3045L310.496 70.9995ZM313.395 82.28C313.395 85.9924 313.147 88.5712 312.544 90.5104C311.948 92.4244 311.001 93.7288 309.555 94.8856L310.179 95.6664C311.773 94.3912 312.84 92.9216 313.499 90.8076C314.149 88.7188 314.395 86.0156 314.395 82.28H313.395ZM309.558 94.8833C307.179 96.7573 304.122 97.588 298.695 97.588V98.588C304.212 98.588 307.539 97.7467 310.177 95.6687L309.558 94.8833ZM298.695 97.588H262.519V98.588H298.695V97.588ZM262.019 98.088V118H263.019V98.088H262.019ZM262.519 117.5H256.439V118.5H262.519V117.5ZM262.519 93.496H294.211V92.496H262.519V93.496ZM294.211 93.496C296.957 93.496 299.195 93.3772 301.004 93.0598C302.814 92.7423 304.233 92.2202 305.309 91.3869C307.49 89.6987 308.087 86.8837 308.087 82.66H307.087C307.087 86.8723 306.468 89.2253 304.697 90.5961C303.798 91.2923 302.556 91.7724 300.832 92.0748C299.108 92.3773 296.938 92.496 294.211 92.496V93.496ZM308.087 82.66C308.087 78.5459 307.488 75.7663 305.478 74.0699C303.498 72.3998 300.279 71.9 295.427 71.9V72.9C300.303 72.9 303.164 73.4262 304.833 74.8341C306.47 76.2157 307.087 78.5661 307.087 82.66H308.087ZM295.427 71.9H262.519V72.9H295.427V71.9ZM262.019 72.4V92.996H263.019V72.4H262.019ZM324.572 118H324.072V118.5H324.572V118ZM324.572 67.308V66.808H324.072V67.308H324.572ZM375.036 67.308H375.536V66.808H375.036V67.308ZM375.036 72.4V72.9H375.536V72.4H375.036ZM330.652 72.4V71.9H330.152V72.4H330.652ZM330.652 89.348H330.152V89.848H330.652V89.348ZM373.44 89.348H373.94V88.848H373.44V89.348ZM373.44 94.136V94.636H373.94V94.136H373.44ZM330.652 94.136V93.636H330.152V94.136H330.652ZM330.652 112.908H330.152V113.408H330.652V112.908ZM375.416 112.908H375.916V112.408H375.416V112.908ZM375.416 118V118.5H375.916V118H375.416ZM325.072 118V67.308H324.072V118H325.072ZM324.572 67.808H375.036V66.808H324.572V67.808ZM374.536 67.308V72.4H375.536V67.308H374.536ZM375.036 71.9H330.652V72.9H375.036V71.9ZM330.152 72.4V89.348H331.152V72.4H330.152ZM330.652 89.848H373.44V88.848H330.652V89.848ZM372.94 89.348V94.136H373.94V89.348H372.94ZM373.44 93.636H330.652V94.636H373.44V93.636ZM330.152 94.136V112.908H331.152V94.136H330.152ZM330.652 113.408H375.416V112.408H330.652V113.408ZM374.916 112.908V118H375.916V112.908H374.916ZM375.416 117.5H324.572V118.5H375.416V117.5ZM386.841 118H386.341V118.5H386.841V118ZM386.841 67.308V66.808H386.341V67.308H386.841ZM392.921 67.308H393.421V66.808H392.921V67.308ZM392.921 89.5H392.421V90H392.921V89.5ZM440.421 89.5V90H440.921V89.5H440.421ZM440.421 67.308V66.808H439.921V67.308H440.421ZM446.501 67.308H447.001V66.808H446.501V67.308ZM446.501 118V118.5H447.001V118H446.501ZM440.421 118H439.921V118.5H440.421V118ZM440.421 94.288H440.921V93.788H440.421V94.288ZM392.921 94.288V93.788H392.421V94.288H392.921ZM392.921 118V118.5H393.421V118H392.921ZM387.341 118V67.308H386.341V118H387.341ZM386.841 67.808H392.921V66.808H386.841V67.808ZM392.421 67.308V89.5H393.421V67.308H392.421ZM392.921 90H440.421V89H392.921V90ZM440.921 89.5V67.308H439.921V89.5H440.921ZM440.421 67.808H446.501V66.808H440.421V67.808ZM446.001 67.308V118H447.001V67.308H446.001ZM446.501 117.5H440.421V118.5H446.501V117.5ZM440.921 118V94.288H439.921V118H440.921ZM440.421 93.788H392.921V94.788H440.421V93.788ZM392.421 94.288V118H393.421V94.288H392.421ZM392.921 117.5H386.841V118.5H392.921V117.5ZM521.945 113.212H521.445V113.712H521.945V113.212ZM528.025 113.212H528.525V112.712H528.025V113.212ZM528.025 128.108V128.608H528.525V128.108H528.025ZM521.945 128.108H521.445V128.608H521.945V128.108ZM521.945 118H522.445V117.5H521.945V118ZM458.713 118V117.5H458.213V118H458.713ZM458.713 128.108V128.608H459.213V128.108H458.713ZM452.633 128.108H452.133V128.608H452.633V128.108ZM452.633 113.212V112.712H452.133V113.212H452.633ZM462.741 110.4L463.095 110.754L462.741 110.4ZM466.313 67.308V66.808H465.813V67.308H466.313ZM521.945 67.308H522.445V66.808H521.945V67.308ZM515.865 113.212V113.712H516.365V113.212H515.865ZM515.865 72.096H516.365V71.596H515.865V72.096ZM472.393 72.096V71.596H471.893V72.096H472.393ZM470.645 108.044L471.09 108.273L471.095 108.263L470.645 108.044ZM466.009 113.212L465.747 112.786L464.243 113.712H466.009V113.212ZM521.945 113.712H528.025V112.712H521.945V113.712ZM527.525 113.212V128.108H528.525V113.212H527.525ZM528.025 127.608H521.945V128.608H528.025V127.608ZM522.445 128.108V118H521.445V128.108H522.445ZM521.945 117.5H458.713V118.5H521.945V117.5ZM458.213 118V128.108H459.213V118H458.213ZM458.713 127.608H452.633V128.608H458.713V127.608ZM453.133 128.108V113.212H452.133V128.108H453.133ZM452.633 113.712H454.989V112.712H452.633V113.712ZM454.989 113.712C458.432 113.712 461.079 112.769 463.095 110.754L462.388 110.046C460.603 111.831 458.234 112.712 454.989 112.712V113.712ZM463.095 110.754C465.984 107.864 466.813 104.486 466.813 96.492H465.813C465.813 104.458 464.97 107.464 462.388 110.046L463.095 110.754ZM466.813 96.492V67.308H465.813V96.492H466.813ZM466.313 67.808H521.945V66.808H466.313V67.808ZM521.445 67.308V113.212H522.445V67.308H521.445ZM516.365 113.212V72.096H515.365V113.212H516.365ZM515.865 71.596H472.393V72.596H515.865V71.596ZM471.893 72.096V97.024H472.893V72.096H471.893ZM471.893 97.024C471.893 103.08 471.513 105.116 470.195 107.825L471.095 108.263C472.513 105.348 472.893 103.128 472.893 97.024H471.893ZM470.201 107.815C469.021 110.1 467.637 111.623 465.747 112.786L466.271 113.638C468.334 112.369 469.837 110.7 471.089 108.273L470.201 107.815ZM466.009 113.712H515.865V112.712H466.009V113.712ZM536.838 67.308V66.808H536.338V67.308H536.838ZM542.918 67.308H543.418V66.808H542.918V67.308ZM542.918 112.908H542.418V114.115L543.271 113.262L542.918 112.908ZM588.518 67.308V66.808H588.31L588.164 66.9544L588.518 67.308ZM596.498 67.308H596.998V66.808H596.498V67.308ZM596.498 118V118.5H596.998V118H596.498ZM590.418 118H589.918V118.5H590.418V118ZM590.418 72.4H590.918V71.1929L590.064 72.0464L590.418 72.4ZM544.818 118V118.5H545.025L545.171 118.354L544.818 118ZM536.838 118H536.338V118.5H536.838V118ZM536.838 67.808H542.918V66.808H536.838V67.808ZM542.418 67.308V112.908H543.418V67.308H542.418ZM543.271 113.262L588.871 67.6616L588.164 66.9544L542.564 112.554L543.271 113.262ZM588.518 67.808H596.498V66.808H588.518V67.808ZM595.998 67.308V118H596.998V67.308H595.998ZM596.498 117.5H590.418V118.5H596.498V117.5ZM590.918 118V72.4H589.918V118H590.918ZM590.064 72.0464L544.464 117.646L545.171 118.354L590.771 72.7536L590.064 72.0464ZM544.818 117.5H536.838V118.5H544.818V117.5ZM537.338 118V67.308H536.338V118H537.338ZM55.428 171.6L55.8593 171.347L55.7144 171.1H55.428V171.6ZM13.932 171.6V171.1H13.6456L13.5007 171.347L13.932 171.6ZM7.244 183V183.5H7.53036L7.67526 183.253L7.244 183ZM0.48 183L0.0492156 182.746L-0.39494 183.5H0.48V183ZM30.348 132.308V131.808H30.0623L29.9172 132.054L30.348 132.308ZM38.936 132.308L39.3668 132.054L39.2217 131.808H38.936V132.308ZM68.804 183V183.5H69.6789L69.2348 182.746L68.804 183ZM62.116 183L61.6847 183.253L61.8296 183.5H62.116V183ZM52.54 166.812V167.312H53.4159L52.9706 166.558L52.54 166.812ZM34.68 136.564L35.1105 136.31L34.68 135.581L34.2495 136.31L34.68 136.564ZM16.82 166.812L16.3895 166.558L15.9441 167.312H16.82V166.812ZM55.428 171.1H13.932V172.1H55.428V171.1ZM13.5007 171.347L6.81274 182.747L7.67526 183.253L14.3633 171.853L13.5007 171.347ZM7.244 182.5H0.48V183.5H7.244V182.5ZM0.910784 183.254L30.7788 132.562L29.9172 132.054L0.0492156 182.746L0.910784 183.254ZM30.348 132.808H38.936V131.808H30.348V132.808ZM38.5052 132.562L68.3732 183.254L69.2348 182.746L39.3668 132.054L38.5052 132.562ZM68.804 182.5H62.116V183.5H68.804V182.5ZM62.5473 182.747L55.8593 171.347L54.9967 171.853L61.6847 183.253L62.5473 182.747ZM52.9706 166.558L35.1105 136.31L34.2495 136.818L52.1095 167.066L52.9706 166.558ZM34.2495 136.31L16.3895 166.558L17.2506 167.066L35.1105 136.818L34.2495 136.31ZM16.82 167.312H52.54V166.312H16.82V167.312ZM74.3805 183H73.8805V183.5H74.3805V183ZM74.3805 132.308V131.808H73.8805V132.308H74.3805ZM127.885 135.272L127.548 135.642L127.885 135.272ZM121.729 156.248L121.67 155.751L121.697 156.747L121.729 156.248ZM130.012 158.3L129.707 158.696L129.71 158.698L130.012 158.3ZM80.4605 154.12H79.9605V154.62H80.4605V154.12ZM122.489 152.828L122.748 153.255L122.754 153.252L122.489 152.828ZM80.4605 137.4V136.9H79.9605V137.4H80.4605ZM80.4605 177.908H79.9605V178.408H80.4605V177.908ZM80.4605 158.908V158.408H79.9605V158.908H80.4605ZM74.8805 183V132.308H73.8805V183H74.8805ZM74.3805 132.808H114.965V131.808H74.3805V132.808ZM114.965 132.808C122.409 132.808 125.194 133.502 127.548 135.642L128.221 134.902C125.559 132.482 122.416 131.808 114.965 131.808V132.808ZM127.548 135.642C129.911 137.79 130.956 140.741 130.956 145.608H131.956C131.956 140.595 130.874 137.314 128.221 134.902L127.548 135.642ZM130.956 145.608C130.956 149.355 130.438 151.614 129.103 153.07C127.763 154.53 125.498 155.297 121.67 155.751L121.787 156.745C125.635 156.287 128.234 155.496 129.839 153.745C131.449 151.99 131.956 149.385 131.956 145.608H130.956ZM121.697 156.747C126.482 157.051 128.166 157.505 129.707 158.696L130.318 157.904C128.515 156.511 126.551 156.053 121.76 155.749L121.697 156.747ZM129.71 158.698C131.718 160.222 132.781 163.201 132.781 168.18H133.781C133.781 163.127 132.715 159.722 130.315 157.902L129.71 158.698ZM132.781 168.18C132.781 173.361 131.616 176.898 129.17 179.156C126.714 181.422 122.861 182.5 117.244 182.5V183.5C122.952 183.5 127.117 182.412 129.848 179.89C132.589 177.36 133.781 173.487 133.781 168.18H132.781ZM117.244 182.5H74.3805V183.5H117.244V182.5ZM80.4605 154.62H110.709V153.62H80.4605V154.62ZM110.709 154.62C114.77 154.62 117.306 154.563 119.048 154.37C120.81 154.174 121.797 153.834 122.748 153.255L122.229 152.401C121.432 152.886 120.595 153.192 118.937 153.376C117.259 153.562 114.779 153.62 110.709 153.62V154.62ZM122.754 153.252C124.802 151.971 125.649 149.537 125.649 145.912H124.649C124.649 149.431 123.823 151.405 122.224 152.404L122.754 153.252ZM125.649 145.912C125.649 142.635 124.996 140.306 123.13 138.84C121.303 137.405 118.428 136.9 114.281 136.9V137.9C118.417 137.9 120.976 138.421 122.512 139.627C124.009 140.802 124.649 142.729 124.649 145.912H125.649ZM114.281 136.9H80.4605V137.9H114.281V136.9ZM79.9605 137.4V154.12H80.9605V137.4H79.9605ZM80.4605 178.408H114.509V177.408H80.4605V178.408ZM114.509 178.408C117.028 178.408 119.095 178.289 120.778 177.982C122.461 177.675 123.792 177.173 124.809 176.384C126.872 174.784 127.473 172.148 127.473 168.256H126.473C126.473 172.116 125.857 174.306 124.196 175.594C123.351 176.249 122.193 176.707 120.598 176.998C119.004 177.289 117.005 177.408 114.509 177.408V178.408ZM127.473 168.256C127.473 164.372 126.913 161.785 124.669 160.261C123.573 159.517 122.121 159.06 120.248 158.784C118.373 158.508 116.035 158.408 113.141 158.408V159.408C116.022 159.408 118.301 159.508 120.102 159.773C121.906 160.039 123.19 160.465 124.108 161.089C125.892 162.301 126.473 164.388 126.473 168.256H127.473ZM113.141 158.408H80.4605V159.408H113.141V158.408ZM79.9605 158.908V177.908H80.9605V158.908H79.9605ZM164.982 183H164.482V183.5H164.982V183ZM164.982 137.4H165.482V136.9H164.982V137.4ZM139.218 137.4H138.718V137.9H139.218V137.4ZM139.218 132.308V131.808H138.718V132.308H139.218ZM196.75 132.308H197.25V131.808H196.75V132.308ZM196.75 137.4V137.9H197.25V137.4H196.75ZM171.062 137.4V136.9H170.562V137.4H171.062ZM171.062 183V183.5H171.562V183H171.062ZM165.482 183V137.4H164.482V183H165.482ZM164.982 136.9H139.218V137.9H164.982V136.9ZM139.718 137.4V132.308H138.718V137.4H139.718ZM139.218 132.808H196.75V131.808H139.218V132.808ZM196.25 132.308V137.4H197.25V132.308H196.25ZM196.75 136.9H171.062V137.9H196.75V136.9ZM170.562 137.4V183H171.562V137.4H170.562ZM171.062 182.5H164.982V183.5H171.062V182.5ZM264.74 136.412L265.101 136.067L265.097 136.062L264.74 136.412ZM264.74 178.896L265.1 179.243L265.101 179.241L264.74 178.896ZM207.588 178.896L207.226 179.241L207.227 179.243L207.588 178.896ZM207.588 136.412L207.945 136.761L207.948 136.759L207.588 136.412ZM212.528 140.212L212.887 140.559L212.892 140.555L212.528 140.212ZM212.528 175.096L212.891 174.753L212.887 174.749L212.528 175.096ZM259.8 175.096L260.158 175.444L260.159 175.443L259.8 175.096ZM259.8 140.212L259.43 140.549L259.435 140.554L259.44 140.559L259.8 140.212ZM236.468 132.276C246.7 132.276 252.755 132.448 256.735 133.105C258.717 133.432 260.161 133.877 261.338 134.467C262.511 135.056 263.441 135.802 264.383 136.762L265.097 136.062C264.101 135.046 263.083 134.225 261.786 133.574C260.493 132.924 258.945 132.457 256.898 132.119C252.822 131.446 246.68 131.276 236.468 131.276V132.276ZM264.378 136.757C265.939 138.391 266.906 140.143 267.488 143.203C268.077 146.295 268.268 150.697 268.268 157.616H269.268C269.268 150.703 269.079 146.213 268.47 143.016C267.856 139.787 266.808 137.853 265.101 136.067L264.378 136.757ZM268.268 157.616C268.268 164.574 268.077 168.994 267.488 172.096C266.906 175.165 265.939 176.917 264.378 178.551L265.101 179.241C266.809 177.455 267.856 175.521 268.47 172.282C269.079 169.076 269.268 164.566 269.268 157.616H268.268ZM264.379 178.549C263.437 179.528 262.512 180.282 261.342 180.873C260.169 181.467 258.723 181.908 256.727 182.231C252.719 182.879 246.587 183.032 236.164 183.032V184.032C246.565 184.032 252.783 183.881 256.887 183.218C258.948 182.885 260.5 182.42 261.793 181.766C263.091 181.11 264.104 180.278 265.1 179.243L264.379 178.549ZM236.164 183.032C225.741 183.032 219.609 182.879 215.6 182.231C213.604 181.908 212.159 181.467 210.985 180.873C209.815 180.282 208.89 179.528 207.948 178.549L207.227 179.243C208.223 180.278 209.236 181.11 210.534 181.766C211.828 182.42 213.38 182.885 215.44 183.218C219.545 183.881 225.763 184.032 236.164 184.032V183.032ZM207.949 178.551C206.388 176.917 205.422 175.165 204.839 172.105C204.251 169.013 204.06 164.611 204.06 157.692H203.06C203.06 164.605 203.249 169.095 203.857 172.292C204.472 175.521 205.519 177.455 207.226 179.241L207.949 178.551ZM204.06 157.692C204.06 150.735 204.251 146.295 204.84 143.183C205.422 140.104 206.389 138.354 207.945 136.761L207.23 136.063C205.519 137.814 204.471 139.75 203.857 142.998C203.249 146.213 203.06 150.741 203.06 157.692H204.06ZM207.948 136.759C208.89 135.78 209.815 135.026 210.989 134.435C212.168 133.842 213.622 133.4 215.637 133.077C219.685 132.429 225.893 132.276 236.468 132.276V131.276C225.915 131.276 219.621 131.427 215.479 132.09C213.4 132.423 211.838 132.888 210.539 133.542C209.237 134.197 208.223 135.03 207.227 136.065L207.948 136.759ZM236.468 136.596C227.734 136.596 222.324 136.728 218.79 137.189C215.24 137.652 213.493 138.457 212.164 139.869L212.892 140.555C213.995 139.383 215.477 138.63 218.919 138.181C222.378 137.73 227.721 137.596 236.468 137.596V136.596ZM212.168 139.865C211.005 141.07 210.313 142.647 209.905 145.343C209.5 148.026 209.368 151.881 209.368 157.692H210.368C210.368 151.875 210.501 148.092 210.894 145.493C211.285 142.907 211.923 141.558 212.887 140.559L212.168 139.865ZM209.368 157.692C209.368 163.466 209.5 167.301 209.905 169.974C210.313 172.661 211.005 174.239 212.168 175.443L212.887 174.749C211.923 173.749 211.285 172.401 210.894 169.825C210.501 167.235 210.368 163.47 210.368 157.692H209.368ZM212.164 175.439C212.847 176.162 213.583 176.742 214.596 177.194C215.599 177.641 216.851 177.954 218.553 178.176C221.945 178.618 227.244 178.712 236.164 178.712V177.712C227.223 177.712 221.996 177.616 218.682 177.184C217.03 176.969 215.884 176.674 215.003 176.281C214.132 175.892 213.501 175.398 212.891 174.753L212.164 175.439ZM236.164 178.712C245.085 178.712 250.383 178.599 253.776 178.147C255.478 177.921 256.729 177.606 257.73 177.162C258.741 176.715 259.476 176.146 260.158 175.444L259.441 174.748C258.831 175.376 258.198 175.862 257.326 176.248C256.444 176.638 255.296 176.936 253.644 177.156C250.33 177.597 245.103 177.712 236.164 177.712V178.712ZM260.159 175.443C261.323 174.239 262.015 172.661 262.422 169.974C262.827 167.301 262.96 163.466 262.96 157.692H261.96C261.96 163.47 261.826 167.235 261.433 169.825C261.043 172.401 260.405 173.749 259.44 174.749L260.159 175.443ZM262.96 157.692C262.96 151.881 262.827 148.026 262.422 145.343C262.015 142.647 261.323 141.07 260.159 139.865L259.44 140.559C260.405 141.558 261.043 142.907 261.433 145.493C261.826 148.092 261.96 151.875 261.96 157.692H262.96ZM260.169 139.875C258.875 138.456 257.083 137.652 253.586 137.189C250.099 136.728 244.822 136.596 236.468 136.596V137.596C244.834 137.596 250.044 137.73 253.455 138.181C256.854 138.63 258.368 139.384 259.43 140.549L260.169 139.875ZM281.451 183H280.951V183.5H281.451V183ZM281.451 132.308V131.808H280.951V132.308H281.451ZM291.255 132.308L291.664 132.021L291.515 131.808H291.255V132.308ZM321.807 175.932L321.397 176.219L321.806 176.803L322.216 176.219L321.807 175.932ZM352.435 132.308V131.808H352.175L352.026 132.021L352.435 132.308ZM361.935 132.308H362.435V131.808H361.935V132.308ZM361.935 183V183.5H362.435V183H361.935ZM355.855 183H355.355V183.5H355.855V183ZM355.855 137.324H356.355V135.736L355.445 137.038L355.855 137.324ZM323.935 183V183.5H324.195L324.345 183.286L323.935 183ZM319.451 183L319.041 183.286L319.19 183.5H319.451V183ZM287.531 137.324L287.941 137.038L287.031 135.736V137.324H287.531ZM287.531 183V183.5H288.031V183H287.531ZM281.951 183V132.308H280.951V183H281.951ZM281.451 132.808H291.255V131.808H281.451V132.808ZM290.845 132.595L321.397 176.219L322.216 175.645L291.664 132.021L290.845 132.595ZM322.216 176.219L352.844 132.595L352.026 132.021L321.398 175.645L322.216 176.219ZM352.435 132.808H361.935V131.808H352.435V132.808ZM361.435 132.308V183H362.435V132.308H361.435ZM361.935 182.5H355.855V183.5H361.935V182.5ZM356.355 183V137.324H355.355V183H356.355ZM355.445 137.038L323.525 182.714L324.345 183.286L356.265 137.61L355.445 137.038ZM323.935 182.5H319.451V183.5H323.935V182.5ZM319.861 182.714L287.941 137.038L287.121 137.61L319.041 183.286L319.861 182.714ZM287.031 137.324V183H288.031V137.324H287.031ZM287.531 182.5H281.451V183.5H287.531V182.5ZM435.814 136.412L436.175 136.067L436.171 136.062L435.814 136.412ZM435.814 178.896L436.174 179.243L436.175 179.241L435.814 178.896ZM378.662 178.896L378.3 179.241L378.302 179.243L378.662 178.896ZM378.662 136.412L379.02 136.761L379.022 136.759L378.662 136.412ZM383.602 140.212L383.962 140.559L383.966 140.555L383.602 140.212ZM383.602 175.096L383.965 174.753L383.962 174.749L383.602 175.096ZM430.874 175.096L431.233 175.444L431.234 175.443L430.874 175.096ZM430.874 140.212L430.504 140.549L430.509 140.554L430.514 140.559L430.874 140.212ZM407.542 132.276C417.774 132.276 423.83 132.448 427.81 133.105C429.791 133.432 431.235 133.877 432.412 134.467C433.585 135.056 434.515 135.802 435.457 136.762L436.171 136.062C435.175 135.046 434.158 134.225 432.86 133.574C431.567 132.924 430.019 132.457 427.972 132.119C423.896 131.446 417.754 131.276 407.542 131.276V132.276ZM435.452 136.757C437.013 138.391 437.98 140.143 438.562 143.203C439.151 146.295 439.342 150.697 439.342 157.616H440.342C440.342 150.703 440.153 146.213 439.545 143.016C438.93 139.787 437.883 137.853 436.175 136.067L435.452 136.757ZM439.342 157.616C439.342 164.574 439.151 168.994 438.562 172.096C437.98 175.165 437.013 176.917 435.452 178.551L436.175 179.241C437.883 177.455 438.93 175.521 439.545 172.282C440.153 169.076 440.342 164.566 440.342 157.616H439.342ZM435.454 178.549C434.511 179.528 433.587 180.282 432.417 180.873C431.243 181.467 429.798 181.908 427.802 182.231C423.793 182.879 417.661 183.032 407.238 183.032V184.032C417.639 184.032 423.857 183.881 427.961 183.218C430.022 182.885 431.574 182.42 432.868 181.766C434.165 181.11 435.178 180.278 436.174 179.243L435.454 178.549ZM407.238 183.032C396.815 183.032 390.683 182.879 386.674 182.231C384.678 181.908 383.233 181.467 382.059 180.873C380.889 180.282 379.964 179.528 379.022 178.549L378.302 179.243C379.297 180.278 380.311 181.11 381.608 181.766C382.902 182.42 384.454 182.885 386.515 183.218C390.619 183.881 396.837 184.032 407.238 184.032V183.032ZM379.023 178.551C377.463 176.917 376.496 175.165 375.914 172.105C375.325 169.013 375.134 164.611 375.134 157.692H374.134C374.134 164.605 374.323 169.095 374.931 172.292C375.546 175.521 376.593 177.455 378.3 179.241L379.023 178.551ZM375.134 157.692C375.134 150.735 375.325 146.295 375.914 143.183C376.496 140.104 377.463 138.354 379.02 136.761L378.304 136.063C376.593 137.814 375.546 139.75 374.931 142.998C374.323 146.213 374.134 150.741 374.134 157.692H375.134ZM379.022 136.759C379.964 135.78 380.889 135.026 382.063 134.435C383.242 133.842 384.696 133.4 386.711 133.077C390.759 132.429 396.967 132.276 407.542 132.276V131.276C396.989 131.276 390.695 131.427 386.553 132.09C384.474 132.423 382.912 132.888 381.614 133.542C380.311 134.197 379.298 135.03 378.302 136.065L379.022 136.759ZM407.542 136.596C398.808 136.596 393.398 136.728 389.864 137.189C386.315 137.652 384.567 138.457 383.238 139.869L383.966 140.555C385.069 139.383 386.551 138.63 389.994 138.181C393.452 137.73 398.795 137.596 407.542 137.596V136.596ZM383.242 139.865C382.079 141.07 381.387 142.647 380.98 145.343C380.574 148.026 380.442 151.881 380.442 157.692H381.442C381.442 151.875 381.576 148.092 381.968 145.493C382.359 142.907 382.997 141.558 383.962 140.559L383.242 139.865ZM380.442 157.692C380.442 163.466 380.574 167.301 380.98 169.974C381.387 172.661 382.079 174.239 383.242 175.443L383.962 174.749C382.997 173.749 382.359 172.401 381.968 169.825C381.576 167.235 381.442 163.47 381.442 157.692H380.442ZM383.238 175.439C383.921 176.162 384.657 176.742 385.67 177.194C386.673 177.641 387.925 177.954 389.627 178.176C393.019 178.618 398.318 178.712 407.238 178.712V177.712C398.297 177.712 393.071 177.616 389.756 177.184C388.104 176.969 386.958 176.674 386.077 176.281C385.207 175.892 384.575 175.398 383.965 174.753L383.238 175.439ZM407.238 178.712C416.159 178.712 421.458 178.599 424.85 178.147C426.552 177.921 427.803 177.606 428.805 177.162C429.815 176.715 430.551 176.146 431.233 175.444L430.515 174.748C429.905 175.376 429.273 175.862 428.4 176.248C427.518 176.638 426.37 176.936 424.718 177.156C421.404 177.597 416.177 177.712 407.238 177.712V178.712ZM431.234 175.443C432.397 174.239 433.089 172.661 433.496 169.974C433.902 167.301 434.034 163.466 434.034 157.692H433.034C433.034 163.47 432.9 167.235 432.508 169.825C432.117 172.401 431.479 173.749 430.514 174.749L431.234 175.443ZM434.034 157.692C434.034 151.881 433.902 148.026 433.496 145.343C433.089 142.647 432.397 141.07 431.234 139.865L430.514 140.559C431.479 141.558 432.117 142.907 432.508 145.493C432.9 148.092 433.034 151.875 433.034 157.692H434.034ZM431.243 139.875C429.95 138.456 428.157 137.652 424.66 137.189C421.173 136.728 415.896 136.596 407.542 136.596V137.596C415.908 137.596 421.119 137.73 424.529 138.181C427.929 138.63 429.442 139.384 430.504 140.549L431.243 139.875ZM458.605 137.4V136.9H458.105V137.4H458.605ZM458.605 152.296H458.105V152.796H458.605V152.296ZM505.953 155.108L506.265 154.718L506.262 154.715L505.953 155.108ZM506.941 179.656L506.582 179.308L506.577 179.313L506.941 179.656ZM452.525 183H452.025V183.5H452.525V183ZM452.525 132.308V131.808H452.025V132.308H452.525ZM498.809 132.308H499.309V131.808H498.809V132.308ZM498.809 137.4V137.9H499.309V137.4H498.809ZM458.605 157.388V156.888H458.105V157.388H458.605ZM458.605 177.908H458.105V178.408H458.605V177.908ZM458.105 137.4V152.296H459.105V137.4H458.105ZM458.605 152.796H494.781V151.796H458.605V152.796ZM494.781 152.796C500.208 152.796 503.265 153.627 505.644 155.501L506.262 154.715C503.625 152.637 500.298 151.796 494.781 151.796V152.796ZM505.641 155.498C507.087 156.655 508.034 157.96 508.63 159.865C509.233 161.794 509.481 164.354 509.481 168.028H510.481C510.481 164.33 510.235 161.646 509.584 159.566C508.926 157.462 507.859 155.993 506.265 154.718L505.641 155.498ZM509.481 168.028C509.481 174.161 508.642 177.177 506.582 179.308L507.301 180.004C509.648 177.575 510.481 174.207 510.481 168.028H509.481ZM506.577 179.313C504.305 181.727 501.472 182.5 493.489 182.5V183.5C501.466 183.5 504.713 182.753 507.305 179.999L506.577 179.313ZM493.489 182.5H452.525V183.5H493.489V182.5ZM453.025 183V132.308H452.025V183H453.025ZM452.525 132.808H498.809V131.808H452.525V132.808ZM498.309 132.308V137.4H499.309V132.308H498.309ZM498.809 136.9H458.605V137.9H498.809V136.9ZM458.105 157.388V177.908H459.105V157.388H458.105ZM458.605 178.408H491.513V177.408H458.605V178.408ZM491.513 178.408C496.365 178.408 499.584 177.908 501.563 176.238C503.574 174.542 504.173 171.762 504.173 167.648H503.173C503.173 171.742 502.556 174.092 500.919 175.474C499.25 176.882 496.389 177.408 491.513 177.408V178.408ZM504.173 167.648C504.173 163.461 503.576 160.665 501.394 158.987C500.317 158.159 498.9 157.639 497.09 157.323C495.28 157.007 493.043 156.888 490.297 156.888V157.888C493.024 157.888 495.194 158.007 496.918 158.308C498.642 158.609 499.885 159.087 500.784 159.779C502.554 161.141 503.173 163.475 503.173 167.648H504.173ZM490.297 156.888H458.605V157.888H490.297V156.888ZM520.658 183H520.158V183.5H520.658V183ZM520.658 132.308V131.808H520.158V132.308H520.658ZM526.738 132.308H527.238V131.808H526.738V132.308ZM526.738 183V183.5H527.238V183H526.738ZM521.158 183V132.308H520.158V183H521.158ZM520.658 132.808H526.738V131.808H520.658V132.808ZM526.238 132.308V183H527.238V132.308H526.238ZM526.738 182.5H520.658V183.5H526.738V182.5ZM600.276 132.308H600.776V131.808H600.276V132.308ZM600.276 183V183.5H600.776V183H600.276ZM594.196 183H593.696V183.5H594.196V183ZM594.196 137.096H594.696V136.596H594.196V137.096ZM550.724 137.096V136.596H550.224V137.096H550.724ZM543.048 181.024L542.798 180.591L542.794 180.593L543.048 181.024ZM533.32 183.38H532.82V183.898L533.337 183.88L533.32 183.38ZM533.32 178.44L533.309 177.94L532.82 177.95V178.44H533.32ZM541.072 175.628L540.718 175.274L541.072 175.628ZM544.644 132.308V131.808H544.144V132.308H544.644ZM599.776 132.308V183H600.776V132.308H599.776ZM600.276 182.5H594.196V183.5H600.276V182.5ZM594.696 183V137.096H593.696V183H594.696ZM594.196 136.596H550.724V137.596H594.196V136.596ZM550.224 137.096V162.328H551.224V137.096H550.224ZM550.224 162.328C550.224 167.432 549.693 171.233 548.503 174.137C547.322 177.021 545.481 179.047 542.798 180.591L543.297 181.457C546.162 179.809 548.159 177.617 549.429 174.516C550.69 171.435 551.224 167.484 551.224 162.328H550.224ZM542.794 180.593C540.306 182.056 537.585 182.73 533.302 182.88L533.337 183.88C537.718 183.726 540.621 183.032 543.301 181.455L542.794 180.593ZM533.82 183.38V178.44H532.82V183.38H533.82ZM533.33 178.94C535.184 178.901 536.687 178.689 537.993 178.217C539.305 177.742 540.392 177.014 541.425 175.982L540.718 175.274C539.775 176.218 538.81 176.858 537.653 177.276C536.488 177.697 535.103 177.903 533.309 177.94L533.33 178.94ZM541.425 175.982C544.314 173.092 545.144 169.714 545.144 161.72H544.144C544.144 169.686 543.301 172.691 540.718 175.274L541.425 175.982ZM545.144 161.72V132.308H544.144V161.72H545.144ZM544.644 132.808H600.276V131.808H544.644V132.808ZM614.47 183H613.97V183.5H614.47V183ZM614.47 132.308V131.808H613.97V132.308H614.47ZM620.55 132.308H621.05V131.808H620.55V132.308ZM620.55 183V183.5H621.05V183H620.55ZM614.97 183V132.308H613.97V183H614.97ZM614.47 132.808H620.55V131.808H614.47V132.808ZM620.05 132.308V183H621.05V132.308H620.05ZM620.55 182.5H614.47V183.5H620.55V182.5ZM634.732 183H634.232V183.5H634.732V183ZM634.732 132.308V131.808H634.232V132.308H634.732ZM688.236 135.272L687.9 135.642L688.236 135.272ZM682.08 156.248L682.021 155.751L682.048 156.747L682.08 156.248ZM690.364 158.3L690.058 158.696L690.062 158.698L690.364 158.3ZM640.812 154.12H640.312V154.62H640.812V154.12ZM682.84 152.828L683.1 153.255L683.105 153.252L682.84 152.828ZM640.812 137.4V136.9H640.312V137.4H640.812ZM640.812 177.908H640.312V178.408H640.812V177.908ZM640.812 158.908V158.408H640.312V158.908H640.812ZM635.232 183V132.308H634.232V183H635.232ZM634.732 132.808H675.316V131.808H634.732V132.808ZM675.316 132.808C682.761 132.808 685.545 133.502 687.9 135.642L688.572 134.902C685.911 132.482 682.768 131.808 675.316 131.808V132.808ZM687.9 135.642C690.262 137.79 691.308 140.741 691.308 145.608H692.308C692.308 140.595 691.226 137.314 688.572 134.902L687.9 135.642ZM691.308 145.608C691.308 149.355 690.789 151.614 689.454 153.07C688.114 154.53 685.849 155.297 682.021 155.751L682.139 156.745C685.987 156.287 688.586 155.496 690.191 153.745C691.801 151.99 692.308 149.385 692.308 145.608H691.308ZM682.048 156.747C686.834 157.051 688.518 157.505 690.058 158.696L690.67 157.904C688.867 156.511 686.902 156.053 682.112 155.749L682.048 156.747ZM690.062 158.698C692.07 160.222 693.132 163.201 693.132 168.18H694.132C694.132 163.127 693.066 159.722 690.666 157.902L690.062 158.698ZM693.132 168.18C693.132 173.361 691.967 176.898 689.521 179.156C687.066 181.422 683.213 182.5 677.596 182.5V183.5C683.304 183.5 687.468 182.412 690.2 179.89C692.941 177.36 694.132 173.487 694.132 168.18H693.132ZM677.596 182.5H634.732V183.5H677.596V182.5ZM640.812 154.62H671.06V153.62H640.812V154.62ZM671.06 154.62C675.122 154.62 677.657 154.563 679.399 154.37C681.162 154.174 682.148 153.834 683.1 153.255L682.58 152.401C681.784 152.886 680.946 153.192 679.289 153.376C677.611 153.562 675.13 153.62 671.06 153.62V154.62ZM683.105 153.252C685.154 151.971 686 149.537 686 145.912H685C685 149.431 684.174 151.405 682.575 152.404L683.105 153.252ZM686 145.912C686 142.635 685.348 140.306 683.481 138.84C681.654 137.405 678.78 136.9 674.632 136.9V137.9C678.768 137.9 681.328 138.421 682.864 139.627C684.36 140.802 685 142.729 685 145.912H686ZM674.632 136.9H640.812V137.9H674.632V136.9ZM640.312 137.4V154.12H641.312V137.4H640.312ZM640.812 178.408H674.86V177.408H640.812V178.408ZM674.86 178.408C677.379 178.408 679.447 178.289 681.13 177.982C682.813 177.675 684.143 177.173 685.16 176.384C687.223 174.784 687.824 172.148 687.824 168.256H686.824C686.824 172.116 686.209 174.306 684.548 175.594C683.703 176.249 682.545 176.707 680.95 176.998C679.355 177.289 677.357 177.408 674.86 177.408V178.408ZM687.824 168.256C687.824 164.372 687.264 161.785 685.021 160.261C683.925 159.517 682.472 159.06 680.6 158.784C678.725 158.508 676.387 158.408 673.492 158.408V159.408C676.373 159.408 678.653 159.508 680.454 159.773C682.258 160.039 683.541 160.465 684.459 161.089C686.244 162.301 686.824 164.388 686.824 168.256H687.824ZM673.492 158.408H640.812V159.408H673.492V158.408ZM640.312 158.908V177.908H641.312V158.908H640.312ZM705.463 174.488V173.988H704.963V174.488H705.463ZM713.215 174.488H713.715V173.988H713.215V174.488ZM705.083 191.208V191.708L705.09 191.708L705.083 191.208ZM704.551 191.208H704.051V191.708H704.551V191.208ZM704.551 187.104V186.604H704.051V187.104H704.551ZM708.199 183L708.698 182.986L708.685 182.5H708.199V183ZM705.463 183H704.963V183.5H705.463V183ZM705.463 174.988H713.215V173.988H705.463V174.988ZM712.715 174.488V183H713.715V174.488H712.715ZM712.715 183C712.715 185.619 712.051 187.504 710.817 188.747C709.583 189.99 707.696 190.671 705.076 190.708L705.09 191.708C707.865 191.669 710.044 190.944 711.527 189.451C713.01 187.958 713.715 185.777 713.715 183H712.715ZM705.083 190.708H704.551V191.708H705.083V190.708ZM705.051 191.208V187.104H704.051V191.208H705.051ZM704.551 187.604C705.918 187.604 707.016 187.261 707.746 186.438C708.467 185.626 708.738 184.447 708.698 182.986L707.699 183.014C707.735 184.365 707.474 185.238 706.998 185.775C706.531 186.301 705.767 186.604 704.551 186.604V187.604ZM708.199 182.5H705.463V183.5H708.199V182.5ZM705.963 183V174.488H704.963V183H705.963ZM9.068 248H8.568V248.5H9.068V248ZM9.068 197.308V196.808H8.568V197.308H9.068ZM18.872 197.308L19.2815 197.021L19.1323 196.808H18.872V197.308ZM49.424 240.932L49.0145 241.219L49.4235 241.803L49.8332 241.219L49.424 240.932ZM80.052 197.308V196.808H79.7921L79.6428 197.021L80.052 197.308ZM89.552 197.308H90.052V196.808H89.552V197.308ZM89.552 248V248.5H90.052V248H89.552ZM83.472 248H82.972V248.5H83.472V248ZM83.472 202.324H83.972V200.736L83.0622 202.038L83.472 202.324ZM51.552 248V248.5H51.8126L51.9618 248.286L51.552 248ZM47.068 248L46.6582 248.286L46.8074 248.5H47.068V248ZM15.148 202.324L15.5578 202.038L14.648 200.736V202.324H15.148ZM15.148 248V248.5H15.648V248H15.148ZM9.568 248V197.308H8.568V248H9.568ZM9.068 197.808H18.872V196.808H9.068V197.808ZM18.4625 197.595L49.0145 241.219L49.8335 240.645L19.2815 197.021L18.4625 197.595ZM49.8332 241.219L80.4612 197.595L79.6428 197.021L49.0148 240.645L49.8332 241.219ZM80.052 197.808H89.552V196.808H80.052V197.808ZM89.052 197.308V248H90.052V197.308H89.052ZM89.552 247.5H83.472V248.5H89.552V247.5ZM83.972 248V202.324H82.972V248H83.972ZM83.0622 202.038L51.1422 247.714L51.9618 248.286L83.8818 202.61L83.0622 202.038ZM51.552 247.5H47.068V248.5H51.552V247.5ZM47.4778 247.714L15.5578 202.038L14.7382 202.61L46.6582 248.286L47.4778 247.714ZM14.648 202.324V248H15.648V202.324H14.648ZM15.148 247.5H9.068V248.5H15.148V247.5ZM164.951 201.412L165.313 201.067L165.308 201.062L164.951 201.412ZM164.951 243.896L165.311 244.243L165.313 244.241L164.951 243.896ZM107.799 243.896L107.438 244.241L107.439 244.243L107.799 243.896ZM107.799 201.412L108.157 201.761L108.159 201.759L107.799 201.412ZM112.739 205.212L113.099 205.559L113.103 205.555L112.739 205.212ZM112.739 240.096L113.103 239.753L113.099 239.749L112.739 240.096ZM160.011 240.096L160.37 240.444L160.371 240.443L160.011 240.096ZM160.011 205.212L159.642 205.549L159.646 205.554L159.651 205.559L160.011 205.212ZM136.679 197.276C146.911 197.276 152.967 197.448 156.947 198.105C158.928 198.432 160.372 198.877 161.549 199.467C162.722 200.056 163.652 200.802 164.594 201.762L165.308 201.062C164.312 200.046 163.295 199.225 161.998 198.574C160.704 197.924 159.156 197.457 157.11 197.119C153.033 196.446 146.891 196.276 136.679 196.276V197.276ZM164.59 201.757C166.15 203.391 167.117 205.143 167.699 208.203C168.288 211.295 168.479 215.697 168.479 222.616H169.479C169.479 215.703 169.29 211.213 168.682 208.016C168.067 204.787 167.02 202.853 165.313 201.067L164.59 201.757ZM168.479 222.616C168.479 229.574 168.288 233.994 167.699 237.096C167.117 240.165 166.15 241.917 164.59 243.551L165.313 244.241C167.02 242.455 168.067 240.521 168.682 237.282C169.29 234.076 169.479 229.566 169.479 222.616H168.479ZM164.591 243.549C163.649 244.528 162.724 245.282 161.554 245.873C160.38 246.467 158.935 246.908 156.939 247.231C152.93 247.879 146.798 248.032 136.375 248.032V249.032C146.776 249.032 152.994 248.881 157.098 248.218C159.159 247.885 160.711 247.42 162.005 246.766C163.302 246.11 164.316 245.278 165.311 244.243L164.591 243.549ZM136.375 248.032C125.952 248.032 119.82 247.879 115.811 247.231C113.816 246.908 112.37 246.467 111.196 245.873C110.026 245.282 109.102 244.528 108.159 243.549L107.439 244.243C108.435 245.278 109.448 246.11 110.745 246.766C112.039 247.42 113.591 247.885 115.652 248.218C119.756 248.881 125.974 249.032 136.375 249.032V248.032ZM108.161 243.551C106.6 241.917 105.633 240.165 105.051 237.105C104.462 234.013 104.271 229.611 104.271 222.692H103.271C103.271 229.605 103.46 234.095 104.068 237.292C104.683 240.521 105.73 242.455 107.438 244.241L108.161 243.551ZM104.271 222.692C104.271 215.735 104.462 211.295 105.051 208.183C105.634 205.104 106.6 203.354 108.157 201.761L107.442 201.063C105.73 202.814 104.683 204.75 104.068 207.998C103.46 211.213 103.271 215.741 103.271 222.692H104.271ZM108.159 201.759C109.102 200.78 110.026 200.026 111.2 199.435C112.379 198.842 113.834 198.4 115.849 198.077C119.896 197.429 126.104 197.276 136.679 197.276V196.276C126.126 196.276 119.832 196.427 115.691 197.09C113.611 197.423 112.05 197.888 110.751 198.542C109.448 199.197 108.435 200.03 107.439 201.065L108.159 201.759ZM136.679 201.596C127.946 201.596 122.535 201.728 119.001 202.189C115.452 202.652 113.704 203.457 112.375 204.869L113.103 205.555C114.206 204.383 115.688 203.63 119.131 203.181C122.589 202.73 127.933 202.596 136.679 202.596V201.596ZM112.379 204.865C111.216 206.07 110.524 207.647 110.117 210.343C109.711 213.026 109.579 216.881 109.579 222.692H110.579C110.579 216.875 110.713 213.092 111.106 210.493C111.496 207.907 112.134 206.558 113.099 205.559L112.379 204.865ZM109.579 222.692C109.579 228.466 109.711 232.301 110.117 234.974C110.524 237.661 111.216 239.239 112.379 240.443L113.099 239.749C112.134 238.749 111.496 237.401 111.105 234.825C110.713 232.235 110.579 228.47 110.579 222.692H109.579ZM112.376 240.439C113.058 241.162 113.794 241.742 114.807 242.194C115.81 242.641 117.062 242.954 118.764 243.176C122.157 243.618 127.456 243.712 136.375 243.712V242.712C127.435 242.712 122.208 242.616 118.893 242.184C117.242 241.969 116.095 241.674 115.215 241.281C114.344 240.892 113.712 240.398 113.103 239.753L112.376 240.439ZM136.375 243.712C145.296 243.712 150.595 243.599 153.988 243.147C155.689 242.921 156.94 242.606 157.942 242.162C158.952 241.715 159.688 241.146 160.37 240.444L159.652 239.748C159.042 240.376 158.41 240.862 157.537 241.248C156.655 241.638 155.507 241.936 153.856 242.156C150.542 242.597 145.314 242.712 136.375 242.712V243.712ZM160.371 240.443C161.534 239.239 162.226 237.661 162.633 234.974C163.039 232.301 163.171 228.466 163.171 222.692H162.171C162.171 228.47 162.037 232.235 161.645 234.825C161.254 237.401 160.616 238.749 159.651 239.749L160.371 240.443ZM163.171 222.692C163.171 216.881 163.039 213.026 162.634 210.343C162.226 207.647 161.534 206.07 160.371 204.865L159.651 205.559C160.616 206.558 161.254 207.907 161.645 210.493C162.037 213.092 162.171 216.875 162.171 222.692H163.171ZM160.381 204.875C159.087 203.456 157.294 202.652 153.797 202.189C150.31 201.728 145.033 201.596 136.679 201.596V202.596C145.045 202.596 150.256 202.73 153.666 203.181C157.066 203.63 158.58 204.384 159.642 205.549L160.381 204.875ZM203.053 248H202.553V248.5H203.053V248ZM203.053 202.4H203.553V201.9H203.053V202.4ZM177.289 202.4H176.789V202.9H177.289V202.4ZM177.289 197.308V196.808H176.789V197.308H177.289ZM234.821 197.308H235.321V196.808H234.821V197.308ZM234.821 202.4V202.9H235.321V202.4H234.821ZM209.133 202.4V201.9H208.633V202.4H209.133ZM209.133 248V248.5H209.633V248H209.133ZM203.553 248V202.4H202.553V248H203.553ZM203.053 201.9H177.289V202.9H203.053V201.9ZM177.789 202.4V197.308H176.789V202.4H177.789ZM177.289 197.808H234.821V196.808H177.289V197.808ZM234.321 197.308V202.4H235.321V197.308H234.321ZM234.821 201.9H209.133V202.9H234.821V201.9ZM208.633 202.4V248H209.633V202.4H208.633ZM209.133 247.5H203.053V248.5H209.133V247.5ZM304.331 201.412L304.693 201.067L304.688 201.062L304.331 201.412ZM304.331 243.896L304.691 244.243L304.692 244.241L304.331 243.896ZM247.179 243.896L246.817 244.241L246.819 244.243L247.179 243.896ZM247.179 201.412L247.537 201.761L247.539 201.759L247.179 201.412ZM252.119 205.212L252.479 205.559L252.483 205.555L252.119 205.212ZM252.119 240.096L252.482 239.753L252.479 239.749L252.119 240.096ZM299.391 240.096L299.75 240.444L299.751 240.443L299.391 240.096ZM299.391 205.212L299.021 205.549L299.026 205.554L299.031 205.559L299.391 205.212ZM276.059 197.276C286.291 197.276 292.347 197.448 296.327 198.105C298.308 198.432 299.752 198.877 300.929 199.467C302.102 200.056 303.032 200.802 303.974 201.762L304.688 201.062C303.692 200.046 302.675 199.225 301.378 198.574C300.084 197.924 298.536 197.457 296.489 197.119C292.413 196.446 286.271 196.276 276.059 196.276V197.276ZM303.969 201.757C305.53 203.391 306.497 205.143 307.079 208.203C307.668 211.295 307.859 215.697 307.859 222.616H308.859C308.859 215.703 308.67 211.213 308.062 208.016C307.447 204.787 306.4 202.853 304.692 201.067L303.969 201.757ZM307.859 222.616C307.859 229.574 307.668 233.994 307.079 237.096C306.497 240.165 305.53 241.917 303.969 243.551L304.692 244.241C306.4 242.455 307.447 240.521 308.062 237.282C308.67 234.076 308.859 229.566 308.859 222.616H307.859ZM303.971 243.549C303.029 244.528 302.104 245.282 300.934 245.873C299.76 246.467 298.315 246.908 296.319 247.231C292.31 247.879 286.178 248.032 275.755 248.032V249.032C286.156 249.032 292.374 248.881 296.478 248.218C298.539 247.885 300.091 247.42 301.385 246.766C302.682 246.11 303.695 245.278 304.691 244.243L303.971 243.549ZM275.755 248.032C265.332 248.032 259.2 247.879 255.191 247.231C253.195 246.908 251.75 246.467 250.576 245.873C249.406 245.282 248.481 244.528 247.539 243.549L246.819 244.243C247.815 245.278 248.828 246.11 250.125 246.766C251.419 247.42 252.971 247.885 255.032 248.218C259.136 248.881 265.354 249.032 275.755 249.032V248.032ZM247.54 243.551C245.98 241.917 245.013 240.165 244.431 237.105C243.842 234.013 243.651 229.611 243.651 222.692H242.651C242.651 229.605 242.84 234.095 243.448 237.292C244.063 240.521 245.11 242.455 246.817 244.241L247.54 243.551ZM243.651 222.692C243.651 215.735 243.842 211.295 244.431 208.183C245.013 205.104 245.98 203.354 247.537 201.761L246.821 201.063C245.11 202.814 244.063 204.75 243.448 207.998C242.84 211.213 242.651 215.741 242.651 222.692H243.651ZM247.539 201.759C248.481 200.78 249.406 200.026 250.58 199.435C251.759 198.842 253.213 198.4 255.229 198.077C259.276 197.429 265.484 197.276 276.059 197.276V196.276C265.506 196.276 259.212 196.427 255.07 197.09C252.991 197.423 251.429 197.888 250.131 198.542C248.828 199.197 247.815 200.03 246.819 201.065L247.539 201.759ZM276.059 201.596C267.325 201.596 261.915 201.728 258.381 202.189C254.832 202.652 253.084 203.457 251.755 204.869L252.483 205.555C253.586 204.383 255.068 203.63 258.511 203.181C261.969 202.73 267.312 202.596 276.059 202.596V201.596ZM251.759 204.865C250.596 206.07 249.904 207.647 249.497 210.343C249.091 213.026 248.959 216.881 248.959 222.692H249.959C249.959 216.875 250.093 213.092 250.485 210.493C250.876 207.907 251.514 206.558 252.479 205.559L251.759 204.865ZM248.959 222.692C248.959 228.466 249.091 232.301 249.497 234.974C249.904 237.661 250.596 239.239 251.759 240.443L252.479 239.749C251.514 238.749 250.876 237.401 250.485 234.825C250.093 232.235 249.959 228.47 249.959 222.692H248.959ZM251.755 240.439C252.438 241.162 253.174 241.742 254.187 242.194C255.19 242.641 256.442 242.954 258.144 243.176C261.536 243.618 266.835 243.712 275.755 243.712V242.712C266.814 242.712 261.588 242.616 258.273 242.184C256.621 241.969 255.475 241.674 254.594 241.281C253.724 240.892 253.092 240.398 252.482 239.753L251.755 240.439ZM275.755 243.712C284.676 243.712 289.975 243.599 293.367 243.147C295.069 242.921 296.32 242.606 297.322 242.162C298.332 241.715 299.068 241.146 299.75 240.444L299.032 239.748C298.422 240.376 297.79 240.862 296.917 241.248C296.035 241.638 294.887 241.936 293.235 242.156C289.921 242.597 284.694 242.712 275.755 242.712V243.712ZM299.751 240.443C300.914 239.239 301.606 237.661 302.013 234.974C302.419 232.301 302.551 228.466 302.551 222.692H301.551C301.551 228.47 301.417 232.235 301.025 234.825C300.634 237.401 299.996 238.749 299.031 239.749L299.751 240.443ZM302.551 222.692C302.551 216.881 302.419 213.026 302.013 210.343C301.606 207.647 300.914 206.07 299.751 204.865L299.031 205.559C299.996 206.558 300.634 207.907 301.025 210.493C301.417 213.092 301.551 216.875 301.551 222.692H302.551ZM299.76 204.875C298.467 203.456 296.674 202.652 293.177 202.189C289.69 201.728 284.413 201.596 276.059 201.596V202.596C284.425 202.596 289.636 202.73 293.046 203.181C296.446 203.63 297.959 204.384 299.021 205.549L299.76 204.875ZM382.222 243.212H381.722V243.712H382.222V243.212ZM388.302 243.212H388.802V242.712H388.302V243.212ZM388.302 258.108V258.608H388.802V258.108H388.302ZM382.222 258.108H381.722V258.608H382.222V258.108ZM382.222 248H382.722V247.5H382.222V248ZM322.562 248H322.062V248.5H322.562V248ZM322.562 197.308V196.808H322.062V197.308H322.562ZM328.642 197.308H329.142V196.808H328.642V197.308ZM328.642 243.212H328.142V243.712H328.642V243.212ZM376.142 243.212V243.712H376.642V243.212H376.142ZM376.142 197.308V196.808H375.642V197.308H376.142ZM382.222 197.308H382.722V196.808H382.222V197.308ZM382.222 243.712H388.302V242.712H382.222V243.712ZM387.802 243.212V258.108H388.802V243.212H387.802ZM388.302 257.608H382.222V258.608H388.302V257.608ZM382.722 258.108V248H381.722V258.108H382.722ZM382.222 247.5H322.562V248.5H382.222V247.5ZM323.062 248V197.308H322.062V248H323.062ZM322.562 197.808H328.642V196.808H322.562V197.808ZM328.142 197.308V243.212H329.142V197.308H328.142ZM328.642 243.712H376.142V242.712H328.642V243.712ZM376.642 243.212V197.308H375.642V243.212H376.642ZM376.142 197.808H382.222V196.808H376.142V197.808ZM381.722 197.308V243.212H382.722V197.308H381.722ZM398.746 197.308V196.808H398.246V197.308H398.746ZM404.826 197.308H405.326V196.808H404.826V197.308ZM404.826 242.908H404.326V244.115L405.18 243.262L404.826 242.908ZM450.426 197.308V196.808H450.219L450.073 196.954L450.426 197.308ZM458.406 197.308H458.906V196.808H458.406V197.308ZM458.406 248V248.5H458.906V248H458.406ZM452.326 248H451.826V248.5H452.326V248ZM452.326 202.4H452.826V201.193L451.973 202.046L452.326 202.4ZM406.726 248V248.5H406.933L407.08 248.354L406.726 248ZM398.746 248H398.246V248.5H398.746V248ZM398.746 197.808H404.826V196.808H398.746V197.808ZM404.326 197.308V242.908H405.326V197.308H404.326ZM405.18 243.262L450.78 197.662L450.073 196.954L404.473 242.554L405.18 243.262ZM450.426 197.808H458.406V196.808H450.426V197.808ZM457.906 197.308V248H458.906V197.308H457.906ZM458.406 247.5H452.326V248.5H458.406V247.5ZM452.826 248V202.4H451.826V248H452.826ZM451.973 202.046L406.373 247.646L407.08 248.354L452.68 202.754L451.973 202.046ZM406.726 247.5H398.746V248.5H406.726V247.5ZM399.246 248V197.308H398.246V248H399.246ZM474.114 248H473.614V248.5H474.114V248ZM474.114 197.308V196.808H473.614V197.308H474.114ZM480.194 197.308H480.694V196.808H480.194V197.308ZM480.194 219.424H479.694V219.924H480.194V219.424ZM489.39 219.424V219.924H489.541L489.667 219.84L489.39 219.424ZM522.526 197.308V196.808H522.374L522.248 196.892L522.526 197.308ZM532.786 197.308L533.062 197.725L534.444 196.808H532.786V197.308ZM495.774 221.856L495.497 221.439L494.873 221.853L495.495 222.271L495.774 221.856ZM534.686 248V248.5H536.327L534.965 247.585L534.686 248ZM524.502 248L524.222 248.415L524.349 248.5H524.502V248ZM489.238 224.212L489.517 223.797L489.391 223.712H489.238V224.212ZM480.194 224.212V223.712H479.694V224.212H480.194ZM480.194 248V248.5H480.694V248H480.194ZM474.614 248V197.308H473.614V248H474.614ZM474.114 197.808H480.194V196.808H474.114V197.808ZM479.694 197.308V219.424H480.694V197.308H479.694ZM480.194 219.924H489.39V218.924H480.194V219.924ZM489.667 219.84L522.803 197.724L522.248 196.892L489.112 219.008L489.667 219.84ZM522.526 197.808H532.786V196.808H522.526V197.808ZM532.509 196.891L495.497 221.439L496.05 222.273L533.062 197.725L532.509 196.891ZM495.495 222.271L534.407 248.415L534.965 247.585L496.053 221.441L495.495 222.271ZM534.686 247.5H524.502V248.5H534.686V247.5ZM524.781 247.585L489.517 223.797L488.958 224.627L524.222 248.415L524.781 247.585ZM489.238 223.712H480.194V224.712H489.238V223.712ZM479.694 224.212V248H480.694V224.212H479.694ZM480.194 247.5H474.114V248.5H480.194V247.5ZM601.119 197.308H601.619V196.808H601.119V197.308ZM601.119 248V248.5H601.619V248H601.119ZM595.039 248H594.539V248.5H595.039V248ZM595.039 202.096H595.539V201.596H595.039V202.096ZM551.567 202.096V201.596H551.067V202.096H551.567ZM543.891 246.024L543.641 245.591L543.637 245.593L543.891 246.024ZM534.163 248.38H533.663V248.898L534.18 248.88L534.163 248.38ZM534.163 243.44L534.152 242.94L533.663 242.95V243.44H534.163ZM541.915 240.628L541.561 240.274L541.915 240.628ZM545.487 197.308V196.808H544.987V197.308H545.487ZM600.619 197.308V248H601.619V197.308H600.619ZM601.119 247.5H595.039V248.5H601.119V247.5ZM595.539 248V202.096H594.539V248H595.539ZM595.039 201.596H551.567V202.596H595.039V201.596ZM551.067 202.096V227.328H552.067V202.096H551.067ZM551.067 227.328C551.067 232.432 550.536 236.233 549.346 239.137C548.165 242.021 546.324 244.047 543.641 245.591L544.14 246.457C547.005 244.809 549.002 242.617 550.272 239.516C551.534 236.435 552.067 232.484 552.067 227.328H551.067ZM543.637 245.593C541.149 247.056 538.428 247.73 534.145 247.88L534.18 248.88C538.561 248.726 541.464 248.032 544.144 246.455L543.637 245.593ZM534.663 248.38V243.44H533.663V248.38H534.663ZM534.173 243.94C536.027 243.901 537.53 243.689 538.836 243.217C540.148 242.742 541.235 242.014 542.268 240.982L541.561 240.274C540.618 241.218 539.653 241.858 538.496 242.276C537.331 242.697 535.947 242.903 534.152 242.94L534.173 243.94ZM542.268 240.982C545.157 238.092 545.987 234.714 545.987 226.72H544.987C544.987 234.686 544.144 237.691 541.561 240.274L542.268 240.982ZM545.987 226.72V197.308H544.987V226.72H545.987ZM545.487 197.808H601.119V196.808H545.487V197.808ZM616.833 248H616.333V248.5H616.833V248ZM616.833 197.308V196.808H616.333V197.308H616.833ZM622.913 197.308H623.413V196.808H622.913V197.308ZM622.913 248V248.5H623.413V248H622.913ZM617.333 248V197.308H616.333V248H617.333ZM616.833 197.808H622.913V196.808H616.833V197.808ZM622.413 197.308V248H623.413V197.308H622.413ZM622.913 247.5H616.833V248.5H622.913V247.5ZM638.615 248H638.115V248.5H638.615V248ZM638.615 197.308V196.808H638.115V197.308H638.615ZM692.119 200.272L691.783 200.642L692.119 200.272ZM685.963 221.248L685.904 220.751L685.932 221.747L685.963 221.248ZM694.247 223.3L693.941 223.696L693.945 223.698L694.247 223.3ZM644.695 219.12H644.195V219.62H644.695V219.12ZM686.723 217.828L686.983 218.255L686.988 218.252L686.723 217.828ZM644.695 202.4V201.9H644.195V202.4H644.695ZM644.695 242.908H644.195V243.408H644.695V242.908ZM644.695 223.908V223.408H644.195V223.908H644.695ZM639.115 248V197.308H638.115V248H639.115ZM638.615 197.808H679.199V196.808H638.615V197.808ZM679.199 197.808C686.644 197.808 689.428 198.502 691.783 200.642L692.456 199.902C689.794 197.482 686.651 196.808 679.199 196.808V197.808ZM691.783 200.642C694.145 202.79 695.191 205.741 695.191 210.608H696.191C696.191 205.595 695.109 202.314 692.456 199.902L691.783 200.642ZM695.191 210.608C695.191 214.355 694.672 216.614 693.337 218.07C691.997 219.53 689.733 220.297 685.904 220.751L686.022 221.745C689.87 221.287 692.469 220.496 694.074 218.745C695.684 216.99 696.191 214.385 696.191 210.608H695.191ZM685.932 221.747C690.717 222.051 692.401 222.505 693.941 223.696L694.553 222.904C692.75 221.511 690.785 221.053 685.995 220.749L685.932 221.747ZM693.945 223.698C695.953 225.222 697.015 228.201 697.015 233.18H698.015C698.015 228.127 696.949 224.722 694.549 222.902L693.945 223.698ZM697.015 233.18C697.015 238.361 695.85 241.898 693.405 244.156C690.949 246.422 687.096 247.5 681.479 247.5V248.5C687.187 248.5 691.351 247.412 694.083 244.89C696.824 242.36 698.015 238.487 698.015 233.18H697.015ZM681.479 247.5H638.615V248.5H681.479V247.5ZM644.695 219.62H674.943V218.62H644.695V219.62ZM674.943 219.62C679.005 219.62 681.54 219.563 683.282 219.37C685.045 219.174 686.032 218.834 686.983 218.255L686.463 217.401C685.667 217.886 684.829 218.192 683.172 218.376C681.494 218.562 679.013 218.62 674.943 218.62V219.62ZM686.988 218.252C689.037 216.971 689.883 214.537 689.883 210.912H688.883C688.883 214.431 688.057 216.405 686.458 217.404L686.988 218.252ZM689.883 210.912C689.883 207.635 689.231 205.306 687.365 203.84C685.537 202.405 682.663 201.9 678.515 201.9V202.9C682.651 202.9 685.211 203.421 686.747 204.627C688.244 205.802 688.883 207.729 688.883 210.912H689.883ZM678.515 201.9H644.695V202.9H678.515V201.9ZM644.195 202.4V219.12H645.195V202.4H644.195ZM644.695 243.408H678.743V242.408H644.695V243.408ZM678.743 243.408C681.262 243.408 683.33 243.289 685.013 242.982C686.696 242.675 688.026 242.173 689.044 241.384C691.106 239.784 691.707 237.148 691.707 233.256H690.707C690.707 237.116 690.092 239.306 688.431 240.594C687.586 241.249 686.428 241.707 684.833 241.998C683.238 242.289 681.24 242.408 678.743 242.408V243.408ZM691.707 233.256C691.707 229.372 691.148 226.785 688.904 225.261C687.808 224.517 686.355 224.06 684.483 223.784C682.608 223.508 680.27 223.408 677.375 223.408V224.408C680.256 224.408 682.536 224.508 684.337 224.773C686.141 225.039 687.424 225.465 688.342 226.089C690.127 227.301 690.707 229.388 690.707 233.256H691.707ZM677.375 223.408H644.695V224.408H677.375V223.408ZM644.195 223.908V242.908H645.195V223.908H644.195Z" fill="#EFEFEF"/>
<rect x="3" y="65" width="156" height="55" rx="27.5" fill="#D9D9D9" fill-opacity="0.04"/>
<rect x="3.5" y="65.5" width="155" height="54" rx="27" stroke="#EFEFEF" stroke-opacity="0.2"/>
<path d="M53.8947 90.8847H53.884V90.8954H53.8947V90.8847Z" stroke="#DB2929" stroke-width="3" stroke-linejoin="round"/>
<path d="M53.8848 102.035L59.4601 96.4601C62.5393 93.3809 62.5393 88.3886 59.4601 85.3094C56.3809 82.2302 51.3886 82.2302 48.3094 85.3094C45.2302 88.3886 45.2302 93.3809 48.3094 96.4601L53.8848 102.035Z" stroke="#DB2929" stroke-width="2" stroke-linejoin="round"/>
<path d="M86.6495 99.5177H84.5495L77.9095 92.1377L74.7895 94.6977V99.5177H73.3095V85.2377H74.7895V92.9577L84.0095 85.2377H86.1495L79.0695 91.1377L86.6495 99.5177ZM98.1738 99.5177H96.6738V90.5977L89.6138 99.5177H87.7338V89.1177H89.2138V98.0777L96.2538 89.1177H98.1738V99.5177ZM101.869 99.5177H100.389V89.1177H101.869V99.5177ZM99.6086 87.2177H98.1486V85.0177H99.6086V87.2177ZM104.129 87.2177H102.649V85.0177H104.129V87.2177ZM110.74 99.5177H104.12V89.1177H110.9C112.9 89.1177 113.92 90.0977 113.92 91.7177C113.92 92.7177 113.44 93.7177 111.98 94.0577V94.0777C113.9 94.2977 114.28 95.7577 114.28 96.5977C114.28 97.8577 113.62 99.5177 110.74 99.5177ZM110.24 94.7777H105.6V98.3377H110.4C110.9 98.3377 112.78 98.2777 112.78 96.4977C112.78 94.8377 111.24 94.7777 110.24 94.7777ZM110.18 90.3177H105.6V93.6177H110.26C110.8 93.6177 112.42 93.5577 112.42 91.9377C112.42 90.3977 111.12 90.3177 110.18 90.3177Z" fill="#EFEFEF"/>
<path opacity="0.7" fill-rule="evenodd" clip-rule="evenodd" d="M418.776 27.5C418.776 36.5022 411.478 43.8 402.476 43.8C393.474 43.8 386.176 36.5022 386.176 27.5C386.176 18.4978 393.474 11.2 402.476 11.2C411.478 11.2 418.776 18.4978 418.776 27.5ZM419.976 27.5C419.976 37.165 412.141 45 402.476 45C392.811 45 384.976 37.165 384.976 27.5C384.976 17.835 392.811 10 402.476 10C412.141 10 419.976 17.835 419.976 27.5ZM391.405 27.5C391.405 27.4095 391.406 27.3194 391.408 27.2294H392.469C392.467 27.3193 392.466 27.4095 392.466 27.5C392.466 33.0288 396.948 37.5108 402.476 37.5108C408.005 37.5108 412.487 33.0288 412.487 27.5C412.487 27.4095 412.486 27.3193 412.484 27.2294H413.545C413.547 27.3194 413.548 27.4095 413.548 27.5C413.548 33.6146 408.591 38.5714 402.476 38.5714C396.362 38.5714 391.405 33.6146 391.405 27.5Z" fill="#EFEFEF"/>
<path d="M439.326 22.62H438.216V14.82H434.976V13.98H435.636C437.496 13.98 438.096 13.74 438.396 12H439.326V22.62Z" fill="#EFEFEF" fill-opacity="0.8"/>
<path d="M446.351 22.86C443.561 22.86 441.971 20.955 441.971 17.445C441.971 13.905 443.576 12 446.351 12C449.126 12 450.731 13.875 450.731 17.445C450.731 20.925 449.141 22.86 446.351 22.86ZM446.351 21.93C448.526 21.93 449.621 20.49 449.621 17.445C449.621 14.4 448.556 12.93 446.336 12.93C444.176 12.93 443.081 14.37 443.081 17.445C443.081 20.49 444.176 21.93 446.351 21.93Z" fill="#EFEFEF" fill-opacity="0.8"/>
<path d="M456.371 22.86C453.581 22.86 451.991 20.955 451.991 17.445C451.991 13.905 453.596 12 456.371 12C459.146 12 460.751 13.875 460.751 17.445C460.751 20.925 459.161 22.86 456.371 22.86ZM456.371 21.93C458.546 21.93 459.641 20.49 459.641 17.445C459.641 14.4 458.576 12.93 456.356 12.93C454.196 12.93 453.101 14.37 453.101 17.445C453.101 20.49 454.196 21.93 456.371 21.93Z" fill="#EFEFEF" fill-opacity="0.8"/>
<path d="M466.39 22.86C463.6 22.86 462.01 20.955 462.01 17.445C462.01 13.905 463.615 12 466.39 12C469.165 12 470.77 13.875 470.77 17.445C470.77 20.925 469.18 22.86 466.39 22.86ZM466.39 21.93C468.565 21.93 469.66 20.49 469.66 17.445C469.66 14.4 468.595 12.93 466.375 12.93C464.215 12.93 463.12 14.37 463.12 17.445C463.12 20.49 464.215 21.93 466.39 21.93Z" fill="#EFEFEF" fill-opacity="0.8"/>
<path d="M476.275 22.62H475.525V19.2H472.105V18.45H475.525V15.03H476.275V18.45H479.695V19.2H476.275V22.62Z" fill="#EFEFEF" fill-opacity="0.8"/>
<path d="M490.704 18.495V18.54C491.814 18.63 492.684 19.29 492.684 20.415C492.684 22.005 491.304 22.86 488.874 22.86C485.949 22.86 484.974 21.765 484.959 19.95H486.054C486.084 21.405 486.879 21.93 488.889 21.93C490.569 21.93 491.589 21.45 491.589 20.385C491.589 19.335 490.629 19.05 488.949 19.05C488.814 19.05 488.154 19.05 487.989 19.065V18.15C488.049 18.165 488.679 18.165 488.769 18.165C490.134 18.165 491.409 17.85 491.409 16.725C491.409 15.795 490.614 15.465 489.009 15.465C487.209 15.465 486.399 15.855 486.264 17.16H485.199C485.259 15.42 486.489 14.58 489.024 14.58C491.304 14.58 492.429 15.24 492.429 16.68C492.429 17.58 491.829 18.375 490.704 18.495Z" fill="#EFEFEF" fill-opacity="0.8"/>
<path d="M502.555 21.81V22.56C502.3 22.62 501.985 22.68 501.64 22.68C500.845 22.68 500.425 22.38 500.425 21.3H500.395C499.69 22.41 498.475 22.86 496.765 22.86C495.025 22.86 493.72 22.035 493.72 20.52C493.72 18.39 495.955 18.15 497.755 18.06C498.61 18.015 499.15 17.97 499.48 17.91C500.155 17.775 500.335 17.625 500.335 17.04C500.335 15.93 499.645 15.51 497.755 15.51C495.925 15.51 495.16 16.005 495.085 17.22H494.065C494.245 15.315 495.46 14.58 497.785 14.58C500.29 14.58 501.355 15.345 501.355 16.845V20.985C501.355 21.57 501.505 21.84 501.985 21.84C502.135 21.84 502.33 21.825 502.555 21.81ZM500.335 19.605V18.42C499.915 18.705 499.06 18.81 498.37 18.87L496.84 19.005C495.205 19.155 494.83 19.725 494.83 20.445C494.83 21.465 495.565 22.02 497.08 22.02C497.95 22.02 498.7 21.795 499.36 21.36C500.005 20.91 500.335 20.325 500.335 19.605Z" fill="#EFEFEF" fill-opacity="0.8"/>
<path d="M512.25 25.005H511.2V22.62H503.475V25.005H502.455V21.69H503.46C504.405 20.145 504.81 17.73 504.81 15.615V14.82H511.035V21.69H512.25V25.005ZM509.925 21.69V15.75H505.845V16.23C505.845 18.06 505.35 20.415 504.57 21.69H509.925Z" fill="#EFEFEF" fill-opacity="0.8"/>
<path d="M522.334 18.72C522.334 21.375 520.429 22.86 517.909 22.86C515.149 22.86 513.484 21.15 513.484 18.72C513.484 16.62 514.804 14.58 517.909 14.58C520.849 14.58 522.334 16.485 522.334 18.72ZM521.224 18.72C521.224 17.25 520.354 15.51 517.894 15.51C515.929 15.51 514.594 16.785 514.594 18.72C514.594 20.625 515.884 21.93 517.909 21.93C519.919 21.93 521.224 20.655 521.224 18.72Z" fill="#EFEFEF" fill-opacity="0.8"/>
<path d="M528.753 22.62H523.788V14.82H528.873C530.373 14.82 531.138 15.555 531.138 16.77C531.138 17.52 530.778 18.27 529.683 18.525V18.54C531.123 18.705 531.408 19.8 531.408 20.43C531.408 21.375 530.913 22.62 528.753 22.62ZM528.378 19.065H524.898V21.735H528.498C528.873 21.735 530.283 21.69 530.283 20.355C530.283 19.11 529.128 19.065 528.378 19.065ZM528.333 15.72H524.898V18.195H528.393C528.798 18.195 530.013 18.15 530.013 16.935C530.013 15.78 529.038 15.72 528.333 15.72Z" fill="#EFEFEF" fill-opacity="0.8"/>
<path d="M541.435 18.72C541.435 21.375 539.53 22.86 537.01 22.86C534.25 22.86 532.585 21.15 532.585 18.72C532.585 16.62 533.905 14.58 537.01 14.58C539.95 14.58 541.435 16.485 541.435 18.72ZM540.325 18.72C540.325 17.25 539.455 15.51 536.995 15.51C535.03 15.51 533.695 16.785 533.695 18.72C533.695 20.625 534.985 21.93 537.01 21.93C539.02 21.93 540.325 20.655 540.325 18.72Z" fill="#EFEFEF" fill-opacity="0.8"/>
<path d="M550.93 22.62H549.82V15.75H545.59C545.59 21.72 544.63 22.71 542.965 22.71C542.725 22.71 542.275 22.665 542.035 22.62V21.675C542.275 21.72 542.605 21.75 542.8 21.75C543.985 21.75 544.57 20.94 544.57 14.82H550.93V22.62Z" fill="#EFEFEF" fill-opacity="0.8"/>
<path d="M561.001 18.99H553.471C553.471 20.76 554.761 21.93 556.606 21.93C558.316 21.93 559.276 21.435 559.696 20.13H560.806C560.206 21.96 558.706 22.86 556.606 22.86C553.816 22.86 552.361 21.06 552.361 18.72C552.361 16.29 553.966 14.58 556.606 14.58C559.366 14.58 561.001 16.14 561.001 18.99ZM553.471 18.15H559.891C559.636 16.47 558.421 15.51 556.666 15.51C554.956 15.51 553.636 16.53 553.471 18.15Z" fill="#EFEFEF" fill-opacity="0.8"/>
<path d="M570.127 22.62H569.017V19.005H563.482V22.62H562.372V14.82H563.482V18.06H569.017V14.82H570.127V22.62Z" fill="#EFEFEF" fill-opacity="0.8"/>
<path d="M579.665 22.62H578.54V15.93L573.245 22.62H571.835V14.82H572.945V21.54L578.225 14.82H579.665V22.62Z" fill="#EFEFEF" fill-opacity="0.8"/>
<path d="M589.171 22.62H587.701L584.791 19.38L581.926 22.62H580.471L584.041 18.57L580.711 14.82H582.151L584.791 17.79L587.416 14.82H588.871L585.496 18.57L589.171 22.62Z" fill="#EFEFEF" fill-opacity="0.8"/>
<path d="M443.391 41.62H441.936L438.456 37.69L436.656 39.16V41.62H435.546V33.82H436.656V37.93L441.576 33.82H443.091L439.296 36.985L443.391 41.62Z" fill="#EFEFEF" fill-opacity="0.8"/>
<path d="M452.214 41.62H451.104V34.75H446.874C446.874 40.72 445.914 41.71 444.249 41.71C444.009 41.71 443.559 41.665 443.319 41.62V40.675C443.559 40.72 443.889 40.75 444.084 40.75C445.269 40.75 445.854 39.94 445.854 33.82H452.214V41.62Z" fill="#EFEFEF" fill-opacity="0.8"/>
<path d="M454.995 32.47H453.885V30.82H454.995V32.47ZM454.995 41.62H453.885V33.82H454.995V41.62Z" fill="#EFEFEF" fill-opacity="0.8"/>
<path d="M463.644 38.845H464.769C464.394 41.02 462.774 41.875 460.719 41.875C457.914 41.875 456.414 40.015 456.414 37.795C456.414 35.275 458.004 33.58 460.719 33.58C462.954 33.58 464.499 34.75 464.694 36.37H463.569C463.434 35.38 462.399 34.495 460.764 34.495C458.829 34.495 457.764 35.71 457.554 37.195H461.934V38.08H457.524C457.629 39.415 458.544 40.96 460.764 40.96C462.219 40.96 463.374 40.3 463.644 38.845Z" fill="#EFEFEF" fill-opacity="0.8"/>
<path d="M473.741 41.62H472.631V38.005H467.096V41.62H465.986V33.82H467.096V37.06H472.631V33.82H473.741V41.62Z" fill="#EFEFEF" fill-opacity="0.8"/>
<path d="M479.198 41.62H478.088V34.75H474.533V33.82H482.753V34.75H479.198V41.62Z" fill="#EFEFEF" fill-opacity="0.8"/>
<path d="M484.614 32.47H483.504V30.82H484.614V32.47ZM484.614 41.62H483.504V33.82H484.614V41.62Z" fill="#EFEFEF" fill-opacity="0.8"/>
<path d="M491.268 41.62H486.303V33.82H491.388C492.888 33.82 493.653 34.555 493.653 35.77C493.653 36.52 493.293 37.27 492.198 37.525V37.54C493.638 37.705 493.923 38.8 493.923 39.43C493.923 40.375 493.428 41.62 491.268 41.62ZM490.893 38.065H487.413V40.735H491.013C491.388 40.735 492.798 40.69 492.798 39.355C492.798 38.11 491.643 38.065 490.893 38.065ZM490.848 34.72H487.413V37.195H490.908C491.313 37.195 492.528 37.15 492.528 35.935C492.528 34.78 491.553 34.72 490.848 34.72Z" fill="#EFEFEF" fill-opacity="0.8"/>
<path d="M504.825 37.495V37.54C505.935 37.63 506.805 38.29 506.805 39.415C506.805 41.005 505.425 41.86 502.995 41.86C500.07 41.86 499.095 40.765 499.08 38.95H500.175C500.205 40.405 501 40.93 503.01 40.93C504.69 40.93 505.71 40.45 505.71 39.385C505.71 38.335 504.75 38.05 503.07 38.05C502.935 38.05 502.275 38.05 502.11 38.065V37.15C502.17 37.165 502.8 37.165 502.89 37.165C504.255 37.165 505.53 36.85 505.53 35.725C505.53 34.795 504.735 34.465 503.13 34.465C501.33 34.465 500.52 34.855 500.385 36.16H499.32C499.38 34.42 500.61 33.58 503.145 33.58C505.425 33.58 506.55 34.24 506.55 35.68C506.55 36.58 505.95 37.375 504.825 37.495Z" fill="#EFEFEF" fill-opacity="0.8"/>
<path d="M516.676 40.81V41.56C516.421 41.62 516.106 41.68 515.761 41.68C514.966 41.68 514.546 41.38 514.546 40.3H514.516C513.811 41.41 512.596 41.86 510.886 41.86C509.146 41.86 507.841 41.035 507.841 39.52C507.841 37.39 510.076 37.15 511.876 37.06C512.731 37.015 513.271 36.97 513.601 36.91C514.276 36.775 514.456 36.625 514.456 36.04C514.456 34.93 513.766 34.51 511.876 34.51C510.046 34.51 509.281 35.005 509.206 36.22H508.186C508.366 34.315 509.581 33.58 511.906 33.58C514.411 33.58 515.476 34.345 515.476 35.845V39.985C515.476 40.57 515.626 40.84 516.106 40.84C516.256 40.84 516.451 40.825 516.676 40.81ZM514.456 38.605V37.42C514.036 37.705 513.181 37.81 512.491 37.87L510.961 38.005C509.326 38.155 508.951 38.725 508.951 39.445C508.951 40.465 509.686 41.02 511.201 41.02C512.071 41.02 512.821 40.795 513.481 40.36C514.126 39.91 514.456 39.325 514.456 38.605Z" fill="#EFEFEF" fill-opacity="0.8"/>
<path d="M529.121 32.17H523.706L522.971 35.605L523.001 35.635C523.616 35.035 524.636 34.615 525.731 34.615C528.236 34.615 529.781 36.04 529.781 38.215C529.781 39.28 529.421 40.15 528.716 40.84C527.996 41.515 526.976 41.86 525.626 41.86C523.166 41.86 521.726 40.765 521.471 38.635H522.581C522.851 40.24 523.841 40.93 525.626 40.93C527.501 40.93 528.671 39.94 528.671 38.23C528.671 36.52 527.501 35.545 525.551 35.545C524.441 35.545 523.526 35.95 522.851 36.775L521.816 36.73L522.866 31.24H529.121V32.17Z" fill="#EFEFEF" fill-opacity="0.8"/>
<path d="M536.895 44.65H535.785V33.82H536.895V35.38H536.925C537.45 34.195 538.56 33.58 540.105 33.58C543.375 33.58 544.35 35.935 544.35 37.72C544.35 40.15 542.745 41.86 540.12 41.86C538.77 41.86 537.48 41.14 536.925 40.06H536.895V44.65ZM540.105 40.93C541.965 40.93 543.24 39.58 543.24 37.72C543.24 35.875 542.085 34.51 540.09 34.51C538.23 34.51 536.835 35.755 536.835 37.72C536.835 39.58 538.095 40.93 540.105 40.93Z" fill="#EFEFEF" fill-opacity="0.8"/>
<path d="M554.37 37.72C554.37 40.375 552.465 41.86 549.945 41.86C547.185 41.86 545.52 40.15 545.52 37.72C545.52 35.62 546.84 33.58 549.945 33.58C552.885 33.58 554.37 35.485 554.37 37.72ZM553.26 37.72C553.26 36.25 552.39 34.51 549.93 34.51C547.965 34.51 546.63 35.785 546.63 37.72C546.63 39.625 547.92 40.93 549.945 40.93C551.955 40.93 553.26 39.655 553.26 37.72Z" fill="#EFEFEF" fill-opacity="0.8"/>
<path d="M563.669 41.62H562.214L558.734 37.69L556.934 39.16V41.62H555.824V33.82H556.934V37.93L561.854 33.82H563.369L559.574 36.985L563.669 41.62Z" fill="#EFEFEF" fill-opacity="0.8"/>
<path d="M565.517 32.47H564.407V30.82H565.517V32.47ZM565.517 41.62H564.407V33.82H565.517V41.62Z" fill="#EFEFEF" fill-opacity="0.8"/>
<path d="M572.171 41.62H567.206V33.82H572.291C573.791 33.82 574.556 34.555 574.556 35.77C574.556 36.52 574.196 37.27 573.101 37.525V37.54C574.541 37.705 574.826 38.8 574.826 39.43C574.826 40.375 574.331 41.62 572.171 41.62ZM571.796 38.065H568.316V40.735H571.916C572.291 40.735 573.701 40.69 573.701 39.355C573.701 38.11 572.546 38.065 571.796 38.065ZM571.751 34.72H568.316V37.195H571.811C572.216 37.195 573.431 37.15 573.431 35.935C573.431 34.78 572.456 34.72 571.751 34.72Z" fill="#EFEFEF" fill-opacity="0.8"/>
<path d="M588.188 41.62H587.078V34.75H581.573V41.62H580.463V33.82H588.188V41.62Z" fill="#EFEFEF" fill-opacity="0.8"/>
<path d="M590.992 44.65H589.882V33.82H590.992V35.38H591.022C591.547 34.195 592.657 33.58 594.202 33.58C597.472 33.58 598.447 35.935 598.447 37.72C598.447 40.15 596.842 41.86 594.217 41.86C592.867 41.86 591.577 41.14 591.022 40.06H590.992V44.65ZM594.202 40.93C596.062 40.93 597.337 39.58 597.337 37.72C597.337 35.875 596.182 34.51 594.187 34.51C592.327 34.51 590.932 35.755 590.932 37.72C590.932 39.58 592.192 40.93 594.202 40.93Z" fill="#EFEFEF" fill-opacity="0.8"/>
<path d="M608.317 40.81V41.56C608.062 41.62 607.747 41.68 607.402 41.68C606.607 41.68 606.187 41.38 606.187 40.3H606.157C605.452 41.41 604.237 41.86 602.527 41.86C600.787 41.86 599.482 41.035 599.482 39.52C599.482 37.39 601.717 37.15 603.517 37.06C604.372 37.015 604.912 36.97 605.242 36.91C605.917 36.775 606.097 36.625 606.097 36.04C606.097 34.93 605.407 34.51 603.517 34.51C601.687 34.51 600.922 35.005 600.847 36.22H599.827C600.007 34.315 601.222 33.58 603.547 33.58C606.052 33.58 607.117 34.345 607.117 35.845V39.985C607.117 40.57 607.267 40.84 607.747 40.84C607.897 40.84 608.092 40.825 608.317 40.81ZM606.097 38.605V37.42C605.677 37.705 604.822 37.81 604.132 37.87L602.602 38.005C600.967 38.155 600.592 38.725 600.592 39.445C600.592 40.465 601.327 41.02 602.842 41.02C603.712 41.02 604.462 40.795 605.122 40.36C605.767 39.91 606.097 39.325 606.097 38.605Z" fill="#EFEFEF" fill-opacity="0.8"/>
<path d="M617.996 44.005H616.961V41.62H609.071V33.82H610.181V40.69H615.686V33.82H616.796V40.69H617.996V44.005Z" fill="#EFEFEF" fill-opacity="0.8"/>
<path d="M620.024 32.47H618.914V30.82H620.024V32.47ZM620.024 41.62H618.914V33.82H620.024V41.62Z" fill="#EFEFEF" fill-opacity="0.8"/>
</svg>
