<svg width="341" height="225" viewBox="0 0 341 225" fill="none" xmlns="http://www.w3.org/2000/svg">
<g opacity="0.7">
<circle cx="18.5" cy="197.5" r="16.9" stroke="#EFEFEF" stroke-width="1.2"/>
<path fill-rule="evenodd" clip-rule="evenodd" d="M7.43214 197.229C7.42998 197.319 7.42889 197.41 7.42889 197.5C7.42889 203.615 12.3857 208.571 18.5003 208.571C24.6149 208.571 29.5718 203.615 29.5718 197.5C29.5718 197.41 29.5707 197.319 29.5685 197.229H28.5076C28.5099 197.319 28.5111 197.41 28.5111 197.5C28.5111 203.029 24.0291 207.511 18.5003 207.511C12.9715 207.511 8.4895 203.029 8.4895 197.5C8.4895 197.41 8.4907 197.319 8.49309 197.229H7.43214Z" fill="#EFEFEF"/>
</g>
<path d="M55.635 193H54.525V185.2H51.285V184.36H51.945C53.805 184.36 54.405 184.12 54.705 182.38H55.635V193ZM62.66 193.24C59.87 193.24 58.28 191.335 58.28 187.825C58.28 184.285 59.885 182.38 62.66 182.38C65.435 182.38 67.04 184.255 67.04 187.825C67.04 191.305 65.45 193.24 62.66 193.24ZM62.66 192.31C64.835 192.31 65.93 190.87 65.93 187.825C65.93 184.78 64.865 183.31 62.645 183.31C60.485 183.31 59.39 184.75 59.39 187.825C59.39 190.87 60.485 192.31 62.66 192.31ZM72.6796 193.24C69.8896 193.24 68.2996 191.335 68.2996 187.825C68.2996 184.285 69.9046 182.38 72.6796 182.38C75.4546 182.38 77.0596 184.255 77.0596 187.825C77.0596 191.305 75.4696 193.24 72.6796 193.24ZM72.6796 192.31C74.8546 192.31 75.9496 190.87 75.9496 187.825C75.9496 184.78 74.8846 183.31 72.6646 183.31C70.5046 183.31 69.4096 184.75 69.4096 187.825C69.4096 190.87 70.5046 192.31 72.6796 192.31ZM82.6991 193.24C79.9091 193.24 78.3191 191.335 78.3191 187.825C78.3191 184.285 79.9241 182.38 82.6991 182.38C85.4741 182.38 87.0791 184.255 87.0791 187.825C87.0791 191.305 85.4891 193.24 82.6991 193.24ZM82.6991 192.31C84.8741 192.31 85.9691 190.87 85.9691 187.825C85.9691 184.78 84.9041 183.31 82.6841 183.31C80.5241 183.31 79.4291 184.75 79.4291 187.825C79.4291 190.87 80.5241 192.31 82.6991 192.31ZM92.5836 193H91.8336V189.58H88.4136V188.83H91.8336V185.41H92.5836V188.83H96.0036V189.58H92.5836V193ZM107.013 188.875V188.92C108.123 189.01 108.993 189.67 108.993 190.795C108.993 192.385 107.613 193.24 105.183 193.24C102.258 193.24 101.283 192.145 101.268 190.33H102.363C102.393 191.785 103.188 192.31 105.198 192.31C106.878 192.31 107.898 191.83 107.898 190.765C107.898 189.715 106.938 189.43 105.258 189.43C105.123 189.43 104.463 189.43 104.298 189.445V188.53C104.358 188.545 104.988 188.545 105.078 188.545C106.443 188.545 107.718 188.23 107.718 187.105C107.718 186.175 106.923 185.845 105.318 185.845C103.518 185.845 102.708 186.235 102.573 187.54H101.508C101.568 185.8 102.798 184.96 105.333 184.96C107.613 184.96 108.738 185.62 108.738 187.06C108.738 187.96 108.138 188.755 107.013 188.875ZM118.864 192.19V192.94C118.609 193 118.294 193.06 117.949 193.06C117.154 193.06 116.734 192.76 116.734 191.68H116.704C115.999 192.79 114.784 193.24 113.074 193.24C111.334 193.24 110.029 192.415 110.029 190.9C110.029 188.77 112.264 188.53 114.064 188.44C114.919 188.395 115.459 188.35 115.789 188.29C116.464 188.155 116.644 188.005 116.644 187.42C116.644 186.31 115.954 185.89 114.064 185.89C112.234 185.89 111.469 186.385 111.394 187.6H110.374C110.554 185.695 111.769 184.96 114.094 184.96C116.599 184.96 117.664 185.725 117.664 187.225V191.365C117.664 191.95 117.814 192.22 118.294 192.22C118.444 192.22 118.639 192.205 118.864 192.19ZM116.644 189.985V188.8C116.224 189.085 115.369 189.19 114.679 189.25L113.149 189.385C111.514 189.535 111.139 190.105 111.139 190.825C111.139 191.845 111.874 192.4 113.389 192.4C114.259 192.4 115.009 192.175 115.669 191.74C116.314 191.29 116.644 190.705 116.644 189.985ZM128.559 195.385H127.509V193H119.784V195.385H118.764V192.07H119.769C120.714 190.525 121.119 188.11 121.119 185.995V185.2H127.344V192.07H128.559V195.385ZM126.234 192.07V186.13H122.154V186.61C122.154 188.44 121.659 190.795 120.879 192.07H126.234ZM138.643 189.1C138.643 191.755 136.738 193.24 134.218 193.24C131.458 193.24 129.793 191.53 129.793 189.1C129.793 187 131.113 184.96 134.218 184.96C137.158 184.96 138.643 186.865 138.643 189.1ZM137.533 189.1C137.533 187.63 136.663 185.89 134.203 185.89C132.238 185.89 130.903 187.165 130.903 189.1C130.903 191.005 132.193 192.31 134.218 192.31C136.228 192.31 137.533 191.035 137.533 189.1ZM145.062 193H140.097V185.2H145.182C146.682 185.2 147.447 185.935 147.447 187.15C147.447 187.9 147.087 188.65 145.992 188.905V188.92C147.432 189.085 147.717 190.18 147.717 190.81C147.717 191.755 147.222 193 145.062 193ZM144.687 189.445H141.207V192.115H144.807C145.182 192.115 146.592 192.07 146.592 190.735C146.592 189.49 145.437 189.445 144.687 189.445ZM144.642 186.1H141.207V188.575H144.702C145.107 188.575 146.322 188.53 146.322 187.315C146.322 186.16 145.347 186.1 144.642 186.1ZM157.744 189.1C157.744 191.755 155.839 193.24 153.319 193.24C150.559 193.24 148.894 191.53 148.894 189.1C148.894 187 150.214 184.96 153.319 184.96C156.259 184.96 157.744 186.865 157.744 189.1ZM156.634 189.1C156.634 187.63 155.764 185.89 153.304 185.89C151.339 185.89 150.004 187.165 150.004 189.1C150.004 191.005 151.294 192.31 153.319 192.31C155.329 192.31 156.634 191.035 156.634 189.1ZM167.239 193H166.129V186.13H161.899C161.899 192.1 160.939 193.09 159.274 193.09C159.034 193.09 158.584 193.045 158.344 193V192.055C158.584 192.1 158.914 192.13 159.109 192.13C160.294 192.13 160.879 191.32 160.879 185.2H167.239V193ZM177.31 189.37H169.78C169.78 191.14 171.07 192.31 172.915 192.31C174.625 192.31 175.585 191.815 176.005 190.51H177.115C176.515 192.34 175.015 193.24 172.915 193.24C170.125 193.24 168.67 191.44 168.67 189.1C168.67 186.67 170.275 184.96 172.915 184.96C175.675 184.96 177.31 186.52 177.31 189.37ZM169.78 188.53H176.2C175.945 186.85 174.73 185.89 172.975 185.89C171.265 185.89 169.945 186.91 169.78 188.53ZM186.436 193H185.326V189.385H179.791V193H178.681V185.2H179.791V188.44H185.326V185.2H186.436V193ZM195.974 193H194.849V186.31L189.554 193H188.144V185.2H189.254V191.92L194.534 185.2H195.974V193ZM205.48 193H204.01L201.1 189.76L198.235 193H196.78L200.35 188.95L197.02 185.2H198.46L201.1 188.17L203.725 185.2H205.18L201.805 188.95L205.48 193ZM59.7 212H58.245L54.765 208.07L52.965 209.54V212H51.855V204.2H52.965V208.31L57.885 204.2H59.4L55.605 207.365L59.7 212ZM68.5229 212H67.4129V205.13H63.1829C63.1829 211.1 62.2229 212.09 60.5579 212.09C60.3179 212.09 59.8679 212.045 59.6279 212V211.055C59.8679 211.1 60.1979 211.13 60.3929 211.13C61.5779 211.13 62.1629 210.32 62.1629 204.2H68.5229V212ZM71.3038 202.85H70.1938V201.2H71.3038V202.85ZM71.3038 212H70.1938V204.2H71.3038V212ZM79.9527 209.225H81.0777C80.7027 211.4 79.0827 212.255 77.0277 212.255C74.2227 212.255 72.7227 210.395 72.7227 208.175C72.7227 205.655 74.3127 203.96 77.0277 203.96C79.2627 203.96 80.8077 205.13 81.0027 206.75H79.8777C79.7427 205.76 78.7077 204.875 77.0727 204.875C75.1377 204.875 74.0727 206.09 73.8627 207.575H78.2427V208.46H73.8327C73.9377 209.795 74.8527 211.34 77.0727 211.34C78.5277 211.34 79.6827 210.68 79.9527 209.225ZM90.0495 212H88.9395V208.385H83.4045V212H82.2945V204.2H83.4045V207.44H88.9395V204.2H90.0495V212ZM95.5073 212H94.3973V205.13H90.8423V204.2H99.0623V205.13H95.5073V212ZM100.923 202.85H99.8129V201.2H100.923V202.85ZM100.923 212H99.8129V204.2H100.923V212ZM107.577 212H102.612V204.2H107.697C109.197 204.2 109.962 204.935 109.962 206.15C109.962 206.9 109.602 207.65 108.507 207.905V207.92C109.947 208.085 110.232 209.18 110.232 209.81C110.232 210.755 109.737 212 107.577 212ZM107.202 208.445H103.722V211.115H107.322C107.697 211.115 109.107 211.07 109.107 209.735C109.107 208.49 107.952 208.445 107.202 208.445ZM107.157 205.1H103.722V207.575H107.217C107.622 207.575 108.837 207.53 108.837 206.315C108.837 205.16 107.862 205.1 107.157 205.1ZM121.134 207.875V207.92C122.244 208.01 123.114 208.67 123.114 209.795C123.114 211.385 121.734 212.24 119.304 212.24C116.379 212.24 115.404 211.145 115.389 209.33H116.484C116.514 210.785 117.309 211.31 119.319 211.31C120.999 211.31 122.019 210.83 122.019 209.765C122.019 208.715 121.059 208.43 119.379 208.43C119.244 208.43 118.584 208.43 118.419 208.445V207.53C118.479 207.545 119.109 207.545 119.199 207.545C120.564 207.545 121.839 207.23 121.839 206.105C121.839 205.175 121.044 204.845 119.439 204.845C117.639 204.845 116.829 205.235 116.694 206.54H115.629C115.689 204.8 116.919 203.96 119.454 203.96C121.734 203.96 122.859 204.62 122.859 206.06C122.859 206.96 122.259 207.755 121.134 207.875ZM132.985 211.19V211.94C132.73 212 132.415 212.06 132.07 212.06C131.275 212.06 130.855 211.76 130.855 210.68H130.825C130.12 211.79 128.905 212.24 127.195 212.24C125.455 212.24 124.15 211.415 124.15 209.9C124.15 207.77 126.385 207.53 128.185 207.44C129.04 207.395 129.58 207.35 129.91 207.29C130.585 207.155 130.765 207.005 130.765 206.42C130.765 205.31 130.075 204.89 128.185 204.89C126.355 204.89 125.59 205.385 125.515 206.6H124.495C124.675 204.695 125.89 203.96 128.215 203.96C130.72 203.96 131.785 204.725 131.785 206.225V210.365C131.785 210.95 131.935 211.22 132.415 211.22C132.565 211.22 132.76 211.205 132.985 211.19ZM130.765 208.985V207.8C130.345 208.085 129.49 208.19 128.8 208.25L127.27 208.385C125.635 208.535 125.26 209.105 125.26 209.825C125.26 210.845 125.995 211.4 127.51 211.4C128.38 211.4 129.13 211.175 129.79 210.74C130.435 210.29 130.765 209.705 130.765 208.985ZM145.43 202.55H140.015L139.28 205.985L139.31 206.015C139.925 205.415 140.945 204.995 142.04 204.995C144.545 204.995 146.09 206.42 146.09 208.595C146.09 209.66 145.73 210.53 145.025 211.22C144.305 211.895 143.285 212.24 141.935 212.24C139.475 212.24 138.035 211.145 137.78 209.015H138.89C139.16 210.62 140.15 211.31 141.935 211.31C143.81 211.31 144.98 210.32 144.98 208.61C144.98 206.9 143.81 205.925 141.86 205.925C140.75 205.925 139.835 206.33 139.16 207.155L138.125 207.11L139.175 201.62H145.43V202.55ZM153.204 215.03H152.094V204.2H153.204V205.76H153.234C153.759 204.575 154.869 203.96 156.414 203.96C159.684 203.96 160.659 206.315 160.659 208.1C160.659 210.53 159.054 212.24 156.429 212.24C155.079 212.24 153.789 211.52 153.234 210.44H153.204V215.03ZM156.414 211.31C158.274 211.31 159.549 209.96 159.549 208.1C159.549 206.255 158.394 204.89 156.399 204.89C154.539 204.89 153.144 206.135 153.144 208.1C153.144 209.96 154.404 211.31 156.414 211.31ZM170.679 208.1C170.679 210.755 168.774 212.24 166.254 212.24C163.494 212.24 161.829 210.53 161.829 208.1C161.829 206 163.149 203.96 166.254 203.96C169.194 203.96 170.679 205.865 170.679 208.1ZM169.569 208.1C169.569 206.63 168.699 204.89 166.239 204.89C164.274 204.89 162.939 206.165 162.939 208.1C162.939 210.005 164.229 211.31 166.254 211.31C168.264 211.31 169.569 210.035 169.569 208.1ZM179.978 212H178.523L175.043 208.07L173.243 209.54V212H172.133V204.2H173.243V208.31L178.163 204.2H179.678L175.883 207.365L179.978 212ZM181.826 202.85H180.716V201.2H181.826V202.85ZM181.826 212H180.716V204.2H181.826V212ZM188.48 212H183.515V204.2H188.6C190.1 204.2 190.865 204.935 190.865 206.15C190.865 206.9 190.505 207.65 189.41 207.905V207.92C190.85 208.085 191.135 209.18 191.135 209.81C191.135 210.755 190.64 212 188.48 212ZM188.105 208.445H184.625V211.115H188.225C188.6 211.115 190.01 211.07 190.01 209.735C190.01 208.49 188.855 208.445 188.105 208.445ZM188.06 205.1H184.625V207.575H188.12C188.525 207.575 189.74 207.53 189.74 206.315C189.74 205.16 188.765 205.1 188.06 205.1ZM204.497 212H203.387V205.13H197.882V212H196.772V204.2H204.497V212ZM207.301 215.03H206.191V204.2H207.301V205.76H207.331C207.856 204.575 208.966 203.96 210.511 203.96C213.781 203.96 214.756 206.315 214.756 208.1C214.756 210.53 213.151 212.24 210.526 212.24C209.176 212.24 207.886 211.52 207.331 210.44H207.301V215.03ZM210.511 211.31C212.371 211.31 213.646 209.96 213.646 208.1C213.646 206.255 212.491 204.89 210.496 204.89C208.636 204.89 207.241 206.135 207.241 208.1C207.241 209.96 208.501 211.31 210.511 211.31ZM224.625 211.19V211.94C224.37 212 224.055 212.06 223.71 212.06C222.915 212.06 222.495 211.76 222.495 210.68H222.465C221.76 211.79 220.545 212.24 218.835 212.24C217.095 212.24 215.79 211.415 215.79 209.9C215.79 207.77 218.025 207.53 219.825 207.44C220.68 207.395 221.22 207.35 221.55 207.29C222.225 207.155 222.405 207.005 222.405 206.42C222.405 205.31 221.715 204.89 219.825 204.89C217.995 204.89 217.23 205.385 217.155 206.6H216.135C216.315 204.695 217.53 203.96 219.855 203.96C222.36 203.96 223.425 204.725 223.425 206.225V210.365C223.425 210.95 223.575 211.22 224.055 211.22C224.205 211.22 224.4 211.205 224.625 211.19ZM222.405 208.985V207.8C221.985 208.085 221.13 208.19 220.44 208.25L218.91 208.385C217.275 208.535 216.9 209.105 216.9 209.825C216.9 210.845 217.635 211.4 219.15 211.4C220.02 211.4 220.77 211.175 221.43 210.74C222.075 210.29 222.405 209.705 222.405 208.985ZM234.305 214.385H233.27V212H225.38V204.2H226.49V211.07H231.995V204.2H233.105V211.07H234.305V214.385ZM236.333 202.85H235.223V201.2H236.333V202.85ZM236.333 212H235.223V204.2H236.333V212Z" fill="#EFEFEF" fill-opacity="0.8"/>
<path d="M28.72 52.16H31.45V53.14C31.45 55.94 31.17 57.165 30.26 58.215C29.385 59.265 28.23 59.755 26.095 60C24.765 60.105 20.775 60.245 17.625 60.245C9.19 60.245 7.125 59.895 5.41 58.11C3.905 56.57 3.555 54.715 3.555 48.345C3.555 41.065 4.045 39.21 6.425 37.705C8.21 36.585 10.135 36.41 19.76 36.41C25.605 36.41 27.635 36.69 29.07 37.74C30.645 38.825 31.135 40.295 31.24 44.005H28.51V43.41C28.51 39.28 27.53 38.86 17.73 38.86C6.53 38.86 6.46 38.895 6.46 48.345C6.46 53.665 6.705 55.345 7.685 56.36C8.805 57.515 10.59 57.795 17.135 57.795C27.635 57.795 28.72 57.41 28.72 53.49V52.16ZM37.0333 60V36.655H60.2733V39H39.8333V46.805H59.5383V49.01H39.8333V57.655H60.4483V60H37.0333ZM65.7101 60V36.655H84.5401C88.2151 36.655 89.6501 37.005 90.7701 38.195C91.7851 39.245 92.1701 40.75 92.1701 43.55C92.1701 46.98 91.7151 48.415 90.3151 49.535C89.1601 50.445 87.6901 50.83 85.1701 50.83H68.5101V60H65.7101ZM68.5101 48.485H83.1051C88.1451 48.485 89.2651 47.61 89.2651 43.725C89.2651 39.945 88.1451 39 83.6651 39H68.5101V48.485ZM97.087 60V36.655H115.777C119.207 36.655 120.572 36.97 121.727 38.02C122.882 39.07 123.372 40.505 123.372 42.78C123.372 46.245 122.427 47.26 118.892 47.68C121.097 47.82 121.937 48.03 122.707 48.625C123.722 49.395 124.212 50.865 124.212 53.175C124.212 58.005 122.042 60 116.827 60H97.087ZM99.887 46.7H113.817C117.562 46.7 118.437 46.595 119.242 46.105C120.082 45.58 120.467 44.565 120.467 42.92C120.467 39.945 119.277 39 115.462 39H99.887V46.7ZM99.887 57.655H115.567C120.187 57.655 121.307 56.78 121.307 53.21C121.307 49.64 120.257 48.905 114.937 48.905H99.887V57.655ZM129.66 60V36.655H132.46V60H129.66ZM163.456 52.16H166.186V53.14C166.186 55.94 165.906 57.165 164.996 58.215C164.121 59.265 162.966 59.755 160.831 60C159.501 60.105 155.511 60.245 152.361 60.245C143.926 60.245 141.861 59.895 140.146 58.11C138.641 56.57 138.291 54.715 138.291 48.345C138.291 41.065 138.781 39.21 141.161 37.705C142.946 36.585 144.871 36.41 154.496 36.41C160.341 36.41 162.371 36.69 163.806 37.74C165.381 38.825 165.871 40.295 165.976 44.005H163.246V43.41C163.246 39.28 162.266 38.86 152.466 38.86C141.266 38.86 141.196 38.895 141.196 48.345C141.196 53.665 141.441 55.345 142.421 56.36C143.541 57.515 145.326 57.795 151.871 57.795C162.371 57.795 163.456 57.41 163.456 53.49V52.16ZM18.71 66.41C28.125 66.41 29.945 66.725 31.73 68.545C33.235 70.12 33.585 71.94 33.585 78.31C33.585 84.715 33.235 86.535 31.73 88.11C29.945 89.965 28.16 90.245 18.57 90.245C8.98 90.245 7.195 89.965 5.41 88.11C3.905 86.535 3.555 84.715 3.555 78.345C3.555 71.94 3.905 70.085 5.41 68.545C7.195 66.69 8.98 66.41 18.71 66.41ZM18.71 68.86C10.66 68.86 8.805 69.105 7.685 70.295C6.705 71.31 6.46 72.99 6.46 78.345C6.46 83.665 6.705 85.345 7.685 86.36C8.875 87.62 10.345 87.795 18.57 87.795C26.795 87.795 28.265 87.585 29.455 86.36C30.435 85.345 30.68 83.665 30.68 78.345C30.68 72.99 30.435 71.31 29.455 70.295C28.37 69.105 26.41 68.86 18.71 68.86ZM39.4259 90V66.655H58.2559C61.9309 66.655 63.3659 67.005 64.4859 68.195C65.5009 69.245 65.8859 70.75 65.8859 73.55C65.8859 76.98 65.4309 78.415 64.0309 79.535C62.8759 80.445 61.4059 80.83 58.8859 80.83H42.2259V90H39.4259ZM42.2259 78.485H56.8209C61.8609 78.485 62.9809 77.61 62.9809 73.725C62.9809 69.945 61.8609 69 57.3809 69H42.2259V78.485ZM70.8029 90V66.655H94.0429V69H73.6029V76.805H93.3079V79.01H73.6029V87.655H94.2179V90H70.8029ZM99.4796 90V66.655H102.28V76.875H124.155V66.655H126.955V90H124.155V79.08H102.28V90H99.4796ZM161.698 87.795H164.498V94.655H161.698V90H132.578V94.655H129.778V87.795H130.863C132.403 87.795 133.558 87.375 134.433 86.5C135.693 85.24 136.078 83.77 136.078 80.095V66.655H161.698V87.795ZM158.898 87.795V68.86H138.878V80.34C138.878 83.14 138.703 84.12 138.073 85.415C137.513 86.5 136.848 87.235 135.938 87.795H158.898ZM168.557 66.655H171.357V87.655L192.357 66.655H196.032V90H193.232V69L172.232 90H168.557V66.655ZM25.605 114.75H6.495L3.415 120H0.3L14.055 96.655H18.01L31.765 120H28.685L25.605 114.75ZM24.275 112.545L16.05 98.615L7.825 112.545H24.275ZM34.3331 120V96.655H53.0231C56.4531 96.655 57.8181 96.97 58.9731 98.02C60.1281 99.07 60.6181 100.505 60.6181 102.78C60.6181 106.245 59.6731 107.26 56.1381 107.68C58.3431 107.82 59.1831 108.03 59.9531 108.625C60.9681 109.395 61.4581 110.865 61.4581 113.175C61.4581 118.005 59.2881 120 54.0731 120H34.3331ZM37.1331 106.7H51.0631C54.8081 106.7 55.6831 106.595 56.4881 106.105C57.3281 105.58 57.7131 104.565 57.7131 102.92C57.7131 99.945 56.5231 99 52.7081 99H37.1331V106.7ZM37.1331 117.655H52.8131C57.4331 117.655 58.5531 116.78 58.5531 113.21C58.5531 109.64 57.5031 108.905 52.1831 108.905H37.1331V117.655ZM76.0575 120V99H64.1925V96.655H90.6875V99H78.8575V120H76.0575ZM108.979 96.41C118.394 96.41 120.214 96.725 121.999 98.545C123.504 100.12 123.854 101.94 123.854 108.31C123.854 114.715 123.504 116.535 121.999 118.11C120.214 119.965 118.429 120.245 108.839 120.245C99.2486 120.245 97.4636 119.965 95.6786 118.11C94.1736 116.535 93.8236 114.715 93.8236 108.345C93.8236 101.94 94.1736 100.085 95.6786 98.545C97.4636 96.69 99.2486 96.41 108.979 96.41ZM108.979 98.86C100.929 98.86 99.0736 99.105 97.9536 100.295C96.9736 101.31 96.7286 102.99 96.7286 108.345C96.7286 113.665 96.9736 115.345 97.9536 116.36C99.1436 117.62 100.614 117.795 108.839 117.795C117.064 117.795 118.534 117.585 119.724 116.36C120.704 115.345 120.949 113.665 120.949 108.345C120.949 102.99 120.704 101.31 119.724 100.295C118.639 99.105 116.679 98.86 108.979 98.86ZM129.694 120V96.655H134.209L148.279 116.745L162.384 96.655H166.759V120H163.959V98.965L149.259 120H147.194L132.494 98.965V120H129.694ZM187.763 96.41C197.178 96.41 198.998 96.725 200.783 98.545C202.288 100.12 202.638 101.94 202.638 108.31C202.638 114.715 202.288 116.535 200.783 118.11C198.998 119.965 197.213 120.245 187.623 120.245C178.033 120.245 176.248 119.965 174.463 118.11C172.958 116.535 172.608 114.715 172.608 108.345C172.608 101.94 172.958 100.085 174.463 98.545C176.248 96.69 178.033 96.41 187.763 96.41ZM187.763 98.86C179.713 98.86 177.858 99.105 176.738 100.295C175.758 101.31 175.513 102.99 175.513 108.345C175.513 113.665 175.758 115.345 176.738 116.36C177.928 117.62 179.398 117.795 187.623 117.795C195.848 117.795 197.318 117.585 198.508 116.36C199.488 115.345 199.733 113.665 199.733 108.345C199.733 102.99 199.488 101.31 198.508 100.295C197.423 99.105 195.463 98.86 187.763 98.86ZM211.279 99V105.86H227.939C230.459 105.86 231.929 106.245 233.084 107.155C234.484 108.275 234.939 109.71 234.939 113.105C234.939 115.94 234.554 117.41 233.539 118.46C232.419 119.65 231.019 120 227.344 120H208.479V96.655H229.794V99H211.279ZM211.279 108.205V117.655H226.434C230.914 117.655 232.034 116.71 232.034 112.93C232.034 109.08 230.914 108.205 225.874 108.205H211.279ZM239.856 120V96.655H242.656V120H239.856ZM276.522 96.655V120H273.722V98.86H253.702V110.48C253.702 115.205 252.722 117.62 250.167 119.09C248.977 119.79 247.682 120.105 245.687 120.175V117.9C247.367 117.865 248.347 117.515 249.257 116.605C250.517 115.345 250.902 113.875 250.902 110.2V96.655H276.522ZM283.059 120V96.655H285.859V120H283.059ZM292.39 120V96.655H311.08C314.51 96.655 315.875 96.97 317.03 98.02C318.185 99.07 318.675 100.505 318.675 102.78C318.675 106.245 317.73 107.26 314.195 107.68C316.4 107.82 317.24 108.03 318.01 108.625C319.025 109.395 319.515 110.865 319.515 113.175C319.515 118.005 317.345 120 312.13 120H292.39ZM295.19 106.7H309.12C312.865 106.7 313.74 106.595 314.545 106.105C315.385 105.58 315.77 104.565 315.77 102.92C315.77 99.945 314.58 99 310.765 99H295.19V106.7ZM295.19 117.655H310.87C315.49 117.655 316.61 116.78 316.61 113.21C316.61 109.64 315.56 108.905 310.24 108.905H295.19V117.655ZM324.963 116.08H328.533V120C328.533 122.485 327.273 123.745 324.788 123.78H324.543V121.89C325.733 121.89 326.258 121.295 326.223 120H324.963V116.08ZM4.255 150V126.655H8.77L22.84 146.745L36.945 126.655H41.32V150H38.52V128.965L23.82 150H21.755L7.055 128.965V150H4.255ZM63.0233 126.41C72.4383 126.41 74.2583 126.725 76.0433 128.545C77.5483 130.12 77.8983 131.94 77.8983 138.31C77.8983 144.715 77.5483 146.535 76.0433 148.11C74.2583 149.965 72.4733 150.245 62.8833 150.245C53.2933 150.245 51.5083 149.965 49.7233 148.11C48.2183 146.535 47.8683 144.715 47.8683 138.345C47.8683 131.94 48.2183 130.085 49.7233 128.545C51.5083 126.69 53.2933 126.41 63.0233 126.41ZM63.0233 128.86C54.9733 128.86 53.1183 129.105 51.9983 130.295C51.0183 131.31 50.7733 132.99 50.7733 138.345C50.7733 143.665 51.0183 145.345 51.9983 146.36C53.1883 147.62 54.6583 147.795 62.8833 147.795C71.1083 147.795 72.5783 147.585 73.7683 146.36C74.7483 145.345 74.9933 143.665 74.9933 138.345C74.9933 132.99 74.7483 131.31 73.7683 130.295C72.6833 129.105 70.7233 128.86 63.0233 128.86ZM93.5903 150V129H81.7253V126.655H108.22V129H96.3903V150H93.5903ZM127.211 126.41C136.626 126.41 138.446 126.725 140.231 128.545C141.736 130.12 142.086 131.94 142.086 138.31C142.086 144.715 141.736 146.535 140.231 148.11C138.446 149.965 136.661 150.245 127.071 150.245C117.481 150.245 115.696 149.965 113.911 148.11C112.406 146.535 112.056 144.715 112.056 138.345C112.056 131.94 112.406 130.085 113.911 128.545C115.696 126.69 117.481 126.41 127.211 126.41ZM127.211 128.86C119.161 128.86 117.306 129.105 116.186 130.295C115.206 131.31 114.961 132.99 114.961 138.345C114.961 143.665 115.206 145.345 116.186 146.36C117.376 147.62 118.846 147.795 127.071 147.795C135.296 147.795 136.766 147.585 137.956 146.36C138.936 145.345 139.181 143.665 139.181 138.345C139.181 132.99 138.936 131.31 137.956 130.295C136.871 129.105 134.911 128.86 127.211 128.86ZM176.102 147.795H178.902V154.655H176.102V150H148.627V126.655H151.427V147.795H173.302V126.655H176.102V147.795ZM183.712 126.655H186.512V147.655L207.512 126.655H211.187V150H208.387V129L187.387 150H183.712V126.655ZM218.421 150V126.655H221.221V136.84H225.456L240.716 126.655H245.441L228.396 137.96L246.316 150H241.626L225.386 139.045H221.221V150H218.421ZM276.91 126.655V150H274.11V128.86H254.09V140.48C254.09 145.205 253.11 147.62 250.555 149.09C249.365 149.79 248.07 150.105 246.075 150.175V147.9C247.755 147.865 248.735 147.515 249.645 146.605C250.905 145.345 251.29 143.875 251.29 140.2V126.655H276.91ZM284.147 150V126.655H286.947V150H284.147ZM294.178 150V126.655H312.868C316.298 126.655 317.663 126.97 318.818 128.02C319.973 129.07 320.463 130.505 320.463 132.78C320.463 136.245 319.518 137.26 315.983 137.68C318.188 137.82 319.028 138.03 319.798 138.625C320.813 139.395 321.303 140.865 321.303 143.175C321.303 148.005 319.133 150 313.918 150H294.178ZM296.978 136.7H310.908C314.653 136.7 315.528 136.595 316.333 136.105C317.173 135.58 317.558 134.565 317.558 132.92C317.558 129.945 316.368 129 312.553 129H296.978V136.7ZM296.978 147.655H312.658C317.278 147.655 318.398 146.78 318.398 143.21C318.398 139.64 317.348 138.905 312.028 138.905H296.978V147.655Z" fill="#EFEFEF"/>
<path d="M28.72 52.16V51.66H28.22V52.16H28.72ZM31.45 52.16H31.95V51.66H31.45V52.16ZM30.26 58.215L29.8821 57.8875L29.8759 57.8949L30.26 58.215ZM26.095 60L26.1344 60.4984L26.1432 60.4978L26.152 60.4967L26.095 60ZM5.41 58.11L5.77057 57.7636L5.76759 57.7605L5.41 58.11ZM6.425 37.705L6.15925 37.2815L6.15777 37.2824L6.425 37.705ZM29.07 37.74L28.7747 38.1435L28.7805 38.1477L28.7863 38.1518L29.07 37.74ZM31.24 44.005V44.505H31.7544L31.7398 43.9909L31.24 44.005ZM28.51 44.005H28.01V44.505H28.51V44.005ZM7.685 56.36L7.3253 56.7073L7.32605 56.7081L7.685 56.36ZM28.72 52.66H31.45V51.66H28.72V52.66ZM30.95 52.16V53.14H31.95V52.16H30.95ZM30.95 53.14C30.95 55.926 30.6642 56.9852 29.8822 57.8875L30.6378 58.5425C31.6758 57.3448 31.95 55.954 31.95 53.14H30.95ZM29.8759 57.8949C29.1202 58.8017 28.1176 59.2646 26.038 59.5033L26.152 60.4967C28.3424 60.2454 29.6498 59.7283 30.6441 58.5351L29.8759 57.8949ZM26.0556 59.5016C24.7438 59.6051 20.7682 59.745 17.625 59.745V60.745C20.7818 60.745 24.7862 60.6049 26.1344 60.4984L26.0556 59.5016ZM17.625 59.745C13.4003 59.745 10.8186 59.6563 9.08322 59.3543C7.38554 59.0588 6.5429 58.5675 5.77055 57.7636L5.04945 58.4564C5.9921 59.4375 7.03946 60.0137 8.91178 60.3395C10.7464 60.6587 13.4147 60.745 17.625 60.745V59.745ZM5.76759 57.7605C5.09238 57.0696 4.66903 56.314 4.40936 54.9455C4.14366 53.5453 4.055 51.5334 4.055 48.345H3.055C3.055 51.5266 3.14134 53.6272 3.42689 55.132C3.71847 56.6685 4.22262 57.6104 5.05241 58.4595L5.76759 57.7605ZM4.055 48.345C4.055 44.696 4.18014 42.4775 4.58035 40.9892C4.77716 40.2573 5.03669 39.7192 5.37014 39.2818C5.70425 38.8435 6.13039 38.4829 6.69223 38.1276L6.15777 37.2824C5.5296 37.6796 5.002 38.1152 4.57486 38.6755C4.14706 39.2367 3.83784 39.8996 3.61465 40.7295C3.17486 42.365 3.055 44.714 3.055 48.345H4.055ZM6.69075 38.1285C7.49723 37.6225 8.34251 37.3142 10.2004 37.1352C12.0793 36.9542 14.9411 36.91 19.76 36.91V35.91C14.9539 35.91 12.0407 35.9533 10.1046 36.1398C8.14749 36.3283 7.13777 36.6675 6.15925 37.2815L6.69075 38.1285ZM19.76 36.91C22.6826 36.91 24.6196 36.9805 25.9985 37.1763C27.3648 37.3703 28.1445 37.6823 28.7747 38.1435L29.3653 37.3365C28.5605 36.7477 27.6077 36.3947 26.139 36.1862C24.6829 35.9795 22.6824 35.91 19.76 35.91V36.91ZM28.7863 38.1518C29.4906 38.6369 29.9376 39.1904 30.2334 40.0507C30.5397 40.9413 30.6879 42.1716 30.7402 44.0191L31.7398 43.9909C31.6871 42.1284 31.5378 40.7687 31.1791 39.7255C30.8099 38.6521 30.2244 37.9281 29.3537 37.3282L28.7863 38.1518ZM31.24 43.505H28.51V44.505H31.24V43.505ZM29.01 44.005V43.41H28.01V44.005H29.01ZM29.01 43.41C29.01 42.3761 28.952 41.4899 28.6688 40.773C28.3695 40.0153 27.8351 39.483 26.9896 39.1257C26.1751 38.7814 25.065 38.5961 23.584 38.4914C22.0944 38.3861 20.1796 38.36 17.73 38.36V39.36C20.1804 39.36 22.0631 39.3864 23.5135 39.4889C24.9725 39.592 25.9449 39.7698 26.6004 40.0468C27.2249 40.3107 27.548 40.6578 27.7387 41.1404C27.9455 41.6639 28.01 42.3789 28.01 43.41H29.01ZM17.73 38.36C14.9399 38.36 12.8074 38.3617 11.1966 38.5154C9.59518 38.6682 8.40484 38.9779 7.57351 39.6758C6.72417 40.3888 6.3386 41.4287 6.15052 42.8087C5.96331 44.1823 5.96 45.9961 5.96 48.345H6.96C6.96 45.9689 6.96544 44.2345 7.14136 42.9438C7.3164 41.6594 7.64833 40.9187 8.21649 40.4417C8.80266 39.9496 9.72982 39.6599 11.2916 39.5109C12.8438 39.3627 14.9201 39.36 17.73 39.36V38.36ZM5.96 48.345C5.96 51.0025 6.02052 52.7878 6.21065 54.0418C6.40281 55.3092 6.73605 56.097 7.3253 56.7073L8.0447 56.0127C7.65395 55.608 7.37469 55.0483 7.19935 53.8919C7.02198 52.7222 6.96 51.0075 6.96 48.345H5.96ZM7.32605 56.7081C7.98886 57.3916 8.83342 57.781 10.3002 58.0049C11.7476 58.2258 13.8667 58.295 17.135 58.295V57.295C13.8583 57.295 11.8124 57.2242 10.4511 57.0163C9.10908 56.8115 8.50114 56.4834 8.04395 56.0119L7.32605 56.7081ZM17.135 58.295C19.7596 58.295 21.8102 58.271 23.4056 58.1726C24.9928 58.0748 26.1743 57.9013 27.0386 57.5814C27.9284 57.252 28.5101 56.7559 28.8419 56.0225C29.1559 55.3288 29.22 54.4736 29.22 53.49H28.22C28.22 54.4664 28.1485 55.1293 27.9309 55.6103C27.7312 56.0516 27.3853 56.3867 26.6914 56.6436C25.9719 56.9099 24.9134 57.0777 23.3441 57.1745C21.7829 57.2708 19.7604 57.295 17.135 57.295V58.295ZM29.22 53.49V52.16H28.22V53.49H29.22ZM37.0333 60H36.5333V60.5H37.0333V60ZM37.0333 36.655V36.155H36.5333V36.655H37.0333ZM60.2733 36.655H60.7733V36.155H60.2733V36.655ZM60.2733 39V39.5H60.7733V39H60.2733ZM39.8333 39V38.5H39.3333V39H39.8333ZM39.8333 46.805H39.3333V47.305H39.8333V46.805ZM59.5383 46.805H60.0383V46.305H59.5383V46.805ZM59.5383 49.01V49.51H60.0383V49.01H59.5383ZM39.8333 49.01V48.51H39.3333V49.01H39.8333ZM39.8333 57.655H39.3333V58.155H39.8333V57.655ZM60.4483 57.655H60.9483V57.155H60.4483V57.655ZM60.4483 60V60.5H60.9483V60H60.4483ZM37.5333 60V36.655H36.5333V60H37.5333ZM37.0333 37.155H60.2733V36.155H37.0333V37.155ZM59.7733 36.655V39H60.7733V36.655H59.7733ZM60.2733 38.5H39.8333V39.5H60.2733V38.5ZM39.3333 39V46.805H40.3333V39H39.3333ZM39.8333 47.305H59.5383V46.305H39.8333V47.305ZM59.0383 46.805V49.01H60.0383V46.805H59.0383ZM59.5383 48.51H39.8333V49.51H59.5383V48.51ZM39.3333 49.01V57.655H40.3333V49.01H39.3333ZM39.8333 58.155H60.4483V57.155H39.8333V58.155ZM59.9483 57.655V60H60.9483V57.655H59.9483ZM60.4483 59.5H37.0333V60.5H60.4483V59.5ZM65.7101 60H65.2101V60.5H65.7101V60ZM65.7101 36.655V36.155H65.2101V36.655H65.7101ZM90.7701 38.195L90.4059 38.5377L90.4106 38.5425L90.7701 38.195ZM90.3151 49.535L90.6245 49.9278L90.6274 49.9254L90.3151 49.535ZM68.5101 50.83V50.33H68.0101V50.83H68.5101ZM68.5101 60V60.5H69.0101V60H68.5101ZM68.5101 48.485H68.0101V48.985H68.5101V48.485ZM68.5101 39V38.5H68.0101V39H68.5101ZM66.2101 60V36.655H65.2101V60H66.2101ZM65.7101 37.155H84.5401V36.155H65.7101V37.155ZM84.5401 37.155C88.2204 37.155 89.4469 37.5187 90.406 38.5377L91.1342 37.8523C89.8533 36.4913 88.2097 36.155 84.5401 36.155V37.155ZM90.4106 38.5425C91.2812 39.4432 91.6701 40.7718 91.6701 43.55H92.6701C92.6701 40.7282 92.2889 39.0468 91.1296 37.8475L90.4106 38.5425ZM91.6701 43.55C91.6701 45.2534 91.5556 46.4074 91.2902 47.2601C91.0325 48.0877 90.6287 48.6438 90.0027 49.1446L90.6274 49.9254C91.4014 49.3062 91.9251 48.5848 92.245 47.5574C92.557 46.5551 92.6701 45.2766 92.6701 43.55H91.6701ZM90.0056 49.1423C88.9801 49.9503 87.645 50.33 85.1701 50.33V51.33C87.7351 51.33 89.3401 50.9397 90.6245 49.9277L90.0056 49.1423ZM85.1701 50.33H68.5101V51.33H85.1701V50.33ZM68.0101 50.83V60H69.0101V50.83H68.0101ZM68.5101 59.5H65.7101V60.5H68.5101V59.5ZM68.5101 48.985H83.1051V47.985H68.5101V48.985ZM83.1051 48.985C84.3745 48.985 85.4236 48.9303 86.2802 48.7801C87.1368 48.6298 87.8375 48.378 88.3811 47.9573C89.4961 47.0942 89.7651 45.6732 89.7651 43.725H88.7651C88.7651 45.6618 88.474 46.6208 87.769 47.1665C87.4026 47.4501 86.8783 47.6599 86.1074 47.7951C85.3365 47.9303 84.3557 47.985 83.1051 47.985V48.985ZM89.7651 43.725C89.7651 41.8249 89.4942 40.4291 88.4675 39.5629C87.4722 38.7231 85.8931 38.5 83.6651 38.5V39.5C85.9171 39.5 87.1379 39.7494 87.8226 40.3271C88.476 40.8784 88.7651 41.8451 88.7651 43.725H89.7651ZM83.6651 38.5H68.5101V39.5H83.6651V38.5ZM68.0101 39V48.485H69.0101V39H68.0101ZM97.087 60H96.587V60.5H97.087V60ZM97.087 36.655V36.155H96.587V36.655H97.087ZM121.727 38.02L121.391 38.39V38.39L121.727 38.02ZM118.892 47.68L118.833 47.1835L118.86 48.179L118.892 47.68ZM122.707 48.625L122.401 49.0207L122.405 49.0233L122.707 48.625ZM99.887 46.7H99.387V47.2H99.887V46.7ZM119.242 46.105L119.502 46.5321L119.507 46.529L119.242 46.105ZM99.887 39V38.5H99.387V39H99.887ZM99.887 57.655H99.387V58.155H99.887V57.655ZM99.887 48.905V48.405H99.387V48.905H99.887ZM97.587 60V36.655H96.587V60H97.587ZM97.087 37.155H115.777V36.155H97.087V37.155ZM115.777 37.155C119.204 37.155 120.389 37.4795 121.391 38.39L122.063 37.65C120.755 36.4605 119.211 36.155 115.777 36.155V37.155ZM121.391 38.39C122.4 39.3077 122.872 40.5784 122.872 42.78H123.872C123.872 40.4316 123.364 38.8323 122.063 37.65L121.391 38.39ZM122.872 42.78C122.872 44.4971 122.63 45.4442 122.089 46.0339C121.544 46.6286 120.591 46.9746 118.833 47.1835L118.951 48.1765C120.728 47.9654 122.015 47.5939 122.826 46.7098C123.642 45.8208 123.872 44.5279 123.872 42.78H122.872ZM118.86 48.179C121.063 48.3188 121.763 48.527 122.401 49.0206L123.013 48.2294C122.112 47.533 121.131 47.3212 118.924 47.181L118.86 48.179ZM122.405 49.0233C123.224 49.6446 123.712 50.902 123.712 53.175H124.712C124.712 50.828 124.22 49.1454 123.009 48.2267L122.405 49.0233ZM123.712 53.175C123.712 55.5269 123.183 57.0652 122.136 58.0313C121.08 59.0065 119.389 59.5 116.827 59.5V60.5C119.48 60.5 121.482 59.996 122.814 58.7662C124.156 57.5273 124.712 55.6531 124.712 53.175H123.712ZM116.827 59.5H97.087V60.5H116.827V59.5ZM99.887 47.2H113.817V46.2H99.887V47.2ZM113.817 47.2C115.685 47.2 116.868 47.1742 117.687 47.0832C118.527 46.9899 119.022 46.8243 119.502 46.5321L118.982 45.6779C118.657 45.8757 118.312 46.0076 117.577 46.0893C116.821 46.1733 115.694 46.2 113.817 46.2V47.2ZM119.507 46.529C120.572 45.8634 120.967 44.6175 120.967 42.92H119.967C119.967 44.5125 119.592 45.2966 118.977 45.681L119.507 46.529ZM120.967 42.92C120.967 41.3851 120.663 40.2044 119.704 39.4511C118.784 38.7287 117.375 38.5 115.462 38.5V39.5C117.364 39.5 118.458 39.7438 119.086 40.2376C119.676 40.7006 119.967 41.4799 119.967 42.92H120.967ZM115.462 38.5H99.887V39.5H115.462V38.5ZM99.387 39V46.7H100.387V39H99.387ZM99.887 58.155H115.567V57.155H99.887V58.155ZM115.567 58.155C116.733 58.155 117.704 58.1002 118.503 57.9544C119.302 57.8085 119.961 57.5659 120.476 57.1664C121.534 56.3457 121.807 55.0109 121.807 53.21H120.807C120.807 54.9791 120.52 55.8668 119.863 56.3761C119.521 56.6416 119.034 56.8409 118.323 56.9706C117.612 57.1004 116.711 57.155 115.567 57.155V58.155ZM121.807 53.21C121.807 51.4166 121.555 50.0909 120.398 49.3051C119.845 48.9297 119.131 48.7107 118.25 48.581C117.366 48.4508 116.274 48.405 114.937 48.405V49.405C116.26 49.405 117.294 49.451 118.104 49.5703C118.916 49.6899 119.461 49.8778 119.836 50.1324C120.534 50.6066 120.807 51.4334 120.807 53.21H121.807ZM114.937 48.405H99.887V49.405H114.937V48.405ZM99.387 48.905V57.655H100.387V48.905H99.387ZM129.66 60H129.16V60.5H129.66V60ZM129.66 36.655V36.155H129.16V36.655H129.66ZM132.46 36.655H132.96V36.155H132.46V36.655ZM132.46 60V60.5H132.96V60H132.46ZM130.16 60V36.655H129.16V60H130.16ZM129.66 37.155H132.46V36.155H129.66V37.155ZM131.96 36.655V60H132.96V36.655H131.96ZM132.46 59.5H129.66V60.5H132.46V59.5ZM163.456 52.16V51.66H162.956V52.16H163.456ZM166.186 52.16H166.686V51.66H166.186V52.16ZM164.996 58.215L164.618 57.8875L164.612 57.8949L164.996 58.215ZM160.831 60L160.871 60.4984L160.88 60.4978L160.888 60.4967L160.831 60ZM140.146 58.11L140.507 57.7636L140.504 57.7605L140.146 58.11ZM141.161 37.705L140.896 37.2815L140.894 37.2824L141.161 37.705ZM163.806 37.74L163.511 38.1435L163.517 38.1477L163.523 38.1518L163.806 37.74ZM165.976 44.005V44.505H166.491L166.476 43.9909L165.976 44.005ZM163.246 44.005H162.746V44.505H163.246V44.005ZM142.421 56.36L142.062 56.7073L142.062 56.7081L142.421 56.36ZM163.456 52.66H166.186V51.66H163.456V52.66ZM165.686 52.16V53.14H166.686V52.16H165.686ZM165.686 53.14C165.686 55.926 165.4 56.9852 164.618 57.8875L165.374 58.5425C166.412 57.3448 166.686 55.954 166.686 53.14H165.686ZM164.612 57.8949C163.857 58.8017 162.854 59.2646 160.774 59.5033L160.888 60.4967C163.079 60.2454 164.386 59.7283 165.38 58.5351L164.612 57.8949ZM160.792 59.5016C159.48 59.6051 155.504 59.745 152.361 59.745V60.745C155.518 60.745 159.523 60.6049 160.871 60.4984L160.792 59.5016ZM152.361 59.745C148.137 59.745 145.555 59.6563 143.82 59.3543C142.122 59.0588 141.279 58.5675 140.507 57.7636L139.786 58.4564C140.728 59.4375 141.776 60.0137 143.648 60.3395C145.483 60.6587 148.151 60.745 152.361 60.745V59.745ZM140.504 57.7605C139.829 57.0696 139.405 56.314 139.146 54.9455C138.88 53.5453 138.791 51.5334 138.791 48.345H137.791C137.791 51.5266 137.878 53.6272 138.163 55.132C138.455 56.6685 138.959 57.6104 139.789 58.4595L140.504 57.7605ZM138.791 48.345C138.791 44.696 138.916 42.4775 139.317 40.9892C139.513 40.2573 139.773 39.7192 140.106 39.2818C140.441 38.8435 140.867 38.4829 141.429 38.1276L140.894 37.2824C140.266 37.6796 139.738 38.1152 139.311 38.6755C138.883 39.2367 138.574 39.8996 138.351 40.7295C137.911 42.365 137.791 44.714 137.791 48.345H138.791ZM141.427 38.1285C142.234 37.6225 143.079 37.3142 144.937 37.1352C146.816 36.9542 149.677 36.91 154.496 36.91V35.91C149.69 35.91 146.777 35.9533 144.841 36.1398C142.884 36.3283 141.874 36.6675 140.896 37.2815L141.427 38.1285ZM154.496 36.91C157.419 36.91 159.356 36.9805 160.735 37.1763C162.101 37.3703 162.881 37.6823 163.511 38.1435L164.102 37.3365C163.297 36.7477 162.344 36.3947 160.875 36.1862C159.419 35.9795 157.419 35.91 154.496 35.91V36.91ZM163.523 38.1518C164.227 38.6369 164.674 39.1904 164.97 40.0507C165.276 40.9413 165.424 42.1716 165.477 44.0191L166.476 43.9909C166.423 42.1284 166.274 40.7687 165.915 39.7255C165.546 38.6521 164.961 37.9281 164.09 37.3282L163.523 38.1518ZM165.976 43.505H163.246V44.505H165.976V43.505ZM163.746 44.005V43.41H162.746V44.005H163.746ZM163.746 43.41C163.746 42.3761 163.688 41.4899 163.405 40.773C163.106 40.0153 162.571 39.483 161.726 39.1257C160.911 38.7814 159.801 38.5961 158.32 38.4914C156.831 38.3861 154.916 38.36 152.466 38.36V39.36C154.917 39.36 156.799 39.3864 158.25 39.4889C159.709 39.592 160.681 39.7698 161.337 40.0468C161.961 40.3107 162.284 40.6578 162.475 41.1404C162.682 41.6639 162.746 42.3789 162.746 43.41H163.746ZM152.466 38.36C149.676 38.36 147.544 38.3617 145.933 38.5154C144.332 38.6682 143.141 38.9779 142.31 39.6758C141.46 40.3888 141.075 41.4287 140.887 42.8087C140.7 44.1823 140.696 45.9961 140.696 48.345H141.696C141.696 45.9689 141.702 44.2345 141.878 42.9438C142.053 41.6594 142.385 40.9187 142.953 40.4417C143.539 39.9496 144.466 39.6599 146.028 39.5109C147.58 39.3627 149.656 39.36 152.466 39.36V38.36ZM140.696 48.345C140.696 51.0025 140.757 52.7878 140.947 54.0418C141.139 55.3092 141.472 56.097 142.062 56.7073L142.781 56.0127C142.39 55.608 142.111 55.0483 141.936 53.8919C141.758 52.7222 141.696 51.0075 141.696 48.345H140.696ZM142.062 56.7081C142.725 57.3916 143.57 57.781 145.036 58.0049C146.484 58.2258 148.603 58.295 151.871 58.295V57.295C148.595 57.295 146.549 57.2242 145.187 57.0163C143.845 56.8115 143.237 56.4834 142.78 56.0119L142.062 56.7081ZM151.871 58.295C154.496 58.295 156.547 58.271 158.142 58.1726C159.729 58.0748 160.911 57.9013 161.775 57.5814C162.665 57.252 163.246 56.7559 163.578 56.0225C163.892 55.3288 163.956 54.4736 163.956 53.49H162.956C162.956 54.4664 162.885 55.1293 162.667 55.6103C162.467 56.0516 162.122 56.3867 161.428 56.6436C160.708 56.9099 159.65 57.0777 158.08 57.1745C156.519 57.2708 154.497 57.295 151.871 57.295V58.295ZM163.956 53.49V52.16H162.956V53.49H163.956ZM31.73 68.545L32.0915 68.1995L32.087 68.1949L31.73 68.545ZM31.73 88.11L32.0903 88.4567L32.0915 88.4554L31.73 88.11ZM5.41 88.11L5.0485 88.4554L5.04971 88.4567L5.41 88.11ZM5.41 68.545L5.7676 68.8945L5.77029 68.8917L5.41 68.545ZM7.685 70.295L8.04473 70.6423L8.0491 70.6377L7.685 70.295ZM7.685 86.36L8.04853 86.0167L8.0447 86.0127L7.685 86.36ZM29.455 86.36L29.8136 86.7084L29.8147 86.7073L29.455 86.36ZM29.455 70.295L29.0855 70.6319L29.0903 70.6372L29.0953 70.6423L29.455 70.295ZM18.71 66.91C23.4273 66.91 26.1929 66.99 27.9998 67.2883C28.895 67.4361 29.5319 67.6343 30.0423 67.8905C30.5489 68.1448 30.9538 68.4677 31.373 68.8951L32.087 68.1949C31.6137 67.7123 31.1217 67.3134 30.4909 66.9967C29.8637 66.6819 29.1226 66.4601 28.1627 66.3017C26.2596 65.9875 23.4077 65.91 18.71 65.91V66.91ZM31.3685 68.8904C32.0478 69.6014 32.4712 70.3597 32.7307 71.7229C32.9963 73.1185 33.085 75.1215 33.085 78.31H34.085C34.085 75.1284 33.9987 73.0365 33.7131 71.5359C33.4213 70.0028 32.9172 69.0636 32.0915 68.1996L31.3685 68.8904ZM33.085 78.31C33.085 81.516 32.9963 83.5279 32.7306 84.928C32.4711 86.2956 32.0477 87.0538 31.3685 87.7646L32.0915 88.4554C32.9173 87.5912 33.4214 86.6519 33.7131 85.1145C33.9987 83.6096 34.085 81.509 34.085 78.31H33.085ZM31.3697 87.7633C30.9503 88.1992 30.5482 88.525 30.0438 88.7799C29.5355 89.0367 28.8988 89.2338 27.9971 89.3795C26.1765 89.6737 23.3761 89.745 18.57 89.745V90.745C23.3539 90.745 26.241 90.6763 28.1566 90.3667C29.1231 90.2105 29.8667 89.9898 30.4948 89.6724C31.1268 89.3531 31.6172 88.9483 32.0903 88.4567L31.3697 87.7633ZM18.57 89.745C13.7639 89.745 10.9635 89.6737 9.14289 89.3795C8.24123 89.2338 7.60449 89.0367 7.0962 88.7799C6.59179 88.525 6.1897 88.1992 5.77029 87.7633L5.04971 88.4567C5.5228 88.9483 6.01321 89.3531 6.64521 89.6724C7.27332 89.9898 8.0169 90.2105 8.98336 90.3667C10.899 90.6763 13.7861 90.745 18.57 90.745V89.745ZM5.7715 87.7646C5.09216 87.0536 4.66876 86.2953 4.40931 84.9321C4.14367 83.5365 4.055 81.5335 4.055 78.345H3.055C3.055 81.5266 3.14133 83.6185 3.42694 85.1191C3.71874 86.6522 4.22284 87.5914 5.0485 88.4554L5.7715 87.7646ZM4.055 78.345C4.055 75.139 4.14366 73.1183 4.40941 71.7136C4.66914 70.3407 5.09252 69.5852 5.76759 68.8945L5.05241 68.1955C4.22248 69.0448 3.71836 69.9868 3.42684 71.5277C3.14134 73.0367 3.055 75.146 3.055 78.345H4.055ZM5.77029 68.8917C6.18963 68.4559 6.5915 68.1302 7.0977 67.8754C7.60797 67.6186 8.24898 67.4214 9.15967 67.2756C10.9981 66.9813 13.8339 66.91 18.71 66.91V65.91C13.8561 65.91 10.9344 65.9787 9.00159 66.2882C8.02665 66.4442 7.27859 66.6648 6.64809 66.9822C6.0135 67.3016 5.52287 67.7066 5.04971 68.1983L5.77029 68.8917ZM18.71 68.36C14.6915 68.36 12.182 68.4205 10.5341 68.6354C8.87047 68.8524 7.9938 69.2374 7.3209 69.9523L8.0491 70.6377C8.4962 70.1626 9.10703 69.8301 10.6634 69.627C12.2355 69.422 14.6785 69.36 18.71 69.36V68.36ZM7.3253 69.9477C6.73589 70.5582 6.40273 71.3462 6.21061 72.6178C6.02052 73.876 5.96 75.6701 5.96 78.345H6.96C6.96 75.6649 7.02198 73.9415 7.19939 72.7672C7.37477 71.6063 7.65411 71.0468 8.0447 70.6423L7.3253 69.9477ZM5.96 78.345C5.96 81.0025 6.02052 82.7878 6.21065 84.0418C6.40281 85.3092 6.73605 86.097 7.3253 86.7073L8.0447 86.0127C7.65395 85.608 7.37469 85.0483 7.19935 83.8919C7.02198 82.7222 6.96 81.0075 6.96 78.345H5.96ZM7.32149 86.7033C7.6554 87.0569 8.02278 87.3471 8.52736 87.5724C9.0224 87.7933 9.62753 87.9419 10.4248 88.0458C12.0082 88.2521 14.468 88.295 18.57 88.295V87.295C14.447 87.295 12.0593 87.2504 10.554 87.0542C9.80684 86.9568 9.30729 86.8254 8.93499 86.6592C8.57223 86.4973 8.3096 86.2931 8.04851 86.0167L7.32149 86.7033ZM18.57 88.295C22.6733 88.295 25.1328 88.2434 26.7166 88.0325C27.5139 87.9263 28.1177 87.7767 28.6112 87.5582C29.1139 87.3357 29.4802 87.0517 29.8136 86.7084L29.0964 86.0116C28.8348 86.2808 28.5711 86.4824 28.2065 86.6438C27.8326 86.8093 27.3318 86.9418 26.5846 87.0412C25.0797 87.2416 22.6917 87.295 18.57 87.295V88.295ZM29.8147 86.7073C30.404 86.097 30.7372 85.3092 30.9294 84.0418C31.1195 82.7878 31.18 81.0025 31.18 78.345H30.18C30.18 81.0075 30.118 82.7222 29.9407 83.8919C29.7653 85.0483 29.486 85.608 29.0953 86.0127L29.8147 86.7073ZM31.18 78.345C31.18 75.6701 31.1195 73.876 30.9294 72.6178C30.7373 71.3462 30.4041 70.5582 29.8147 69.9477L29.0953 70.6423C29.4859 71.0468 29.7652 71.6063 29.9406 72.7672C30.118 73.9415 30.18 75.6649 30.18 78.345H31.18ZM29.8245 69.9581C29.1661 69.236 28.2656 68.852 26.6287 68.6356C25.0023 68.4205 22.554 68.36 18.71 68.36V69.36C22.566 69.36 24.9477 69.422 26.4976 69.6269C28.0369 69.8305 28.6589 70.164 29.0855 70.6319L29.8245 69.9581ZM39.4259 90H38.9259V90.5H39.4259V90ZM39.4259 66.655V66.155H38.9259V66.655H39.4259ZM64.4859 68.195L64.1218 68.5377L64.1264 68.5425L64.4859 68.195ZM64.0309 79.535L64.3403 79.9278L64.3433 79.9254L64.0309 79.535ZM42.2259 80.83V80.33H41.7259V80.83H42.2259ZM42.2259 90V90.5H42.7259V90H42.2259ZM42.2259 78.485H41.7259V78.985H42.2259V78.485ZM42.2259 69V68.5H41.7259V69H42.2259ZM39.9259 90V66.655H38.9259V90H39.9259ZM39.4259 67.155H58.2559V66.155H39.4259V67.155ZM58.2559 67.155C61.9362 67.155 63.1627 67.5187 64.1218 68.5377L64.85 67.8523C63.5691 66.4913 61.9256 66.155 58.2559 66.155V67.155ZM64.1264 68.5425C64.997 69.4432 65.3859 70.7718 65.3859 73.55H66.3859C66.3859 70.7282 66.0048 69.0468 64.8454 67.8475L64.1264 68.5425ZM65.3859 73.55C65.3859 75.2534 65.2715 76.4074 65.006 77.2601C64.7484 78.0877 64.3446 78.6438 63.7186 79.1446L64.3433 79.9254C65.1172 79.3062 65.6409 78.5848 65.9608 77.5574C66.2728 76.5551 66.3859 75.2766 66.3859 73.55H65.3859ZM63.7215 79.1423C62.6959 79.9503 61.3608 80.33 58.8859 80.33V81.33C61.451 81.33 63.0559 80.9397 64.3403 79.9277L63.7215 79.1423ZM58.8859 80.33H42.2259V81.33H58.8859V80.33ZM41.7259 80.83V90H42.7259V80.83H41.7259ZM42.2259 89.5H39.4259V90.5H42.2259V89.5ZM42.2259 78.985H56.8209V77.985H42.2259V78.985ZM56.8209 78.985C58.0903 78.985 59.1394 78.9303 59.996 78.7801C60.8526 78.6298 61.5533 78.378 62.0969 77.9573C63.212 77.0942 63.4809 75.6732 63.4809 73.725H62.4809C62.4809 75.6618 62.1898 76.6208 61.4849 77.1665C61.1185 77.4501 60.5942 77.6599 59.8233 77.7951C59.0524 77.9303 58.0715 77.985 56.8209 77.985V78.985ZM63.4809 73.725C63.4809 71.8249 63.21 70.4291 62.1833 69.5629C61.188 68.7231 59.6089 68.5 57.3809 68.5V69.5C59.6329 69.5 60.8537 69.7494 61.5385 70.3271C62.1918 70.8784 62.4809 71.8451 62.4809 73.725H63.4809ZM57.3809 68.5H42.2259V69.5H57.3809V68.5ZM41.7259 69V78.485H42.7259V69H41.7259ZM70.8028 90H70.3028V90.5H70.8028V90ZM70.8028 66.655V66.155H70.3028V66.655H70.8028ZM94.0429 66.655H94.5429V66.155H94.0429V66.655ZM94.0429 69V69.5H94.5429V69H94.0429ZM73.6029 69V68.5H73.1029V69H73.6029ZM73.6029 76.805H73.1029V77.305H73.6029V76.805ZM93.3079 76.805H93.8079V76.305H93.3079V76.805ZM93.3079 79.01V79.51H93.8079V79.01H93.3079ZM73.6029 79.01V78.51H73.1029V79.01H73.6029ZM73.6029 87.655H73.1029V88.155H73.6029V87.655ZM94.2178 87.655H94.7178V87.155H94.2178V87.655ZM94.2178 90V90.5H94.7178V90H94.2178ZM71.3028 90V66.655H70.3028V90H71.3028ZM70.8028 67.155H94.0429V66.155H70.8028V67.155ZM93.5429 66.655V69H94.5429V66.655H93.5429ZM94.0429 68.5H73.6029V69.5H94.0429V68.5ZM73.1029 69V76.805H74.1029V69H73.1029ZM73.6029 77.305H93.3079V76.305H73.6029V77.305ZM92.8079 76.805V79.01H93.8079V76.805H92.8079ZM93.3079 78.51H73.6029V79.51H93.3079V78.51ZM73.1029 79.01V87.655H74.1029V79.01H73.1029ZM73.6029 88.155H94.2178V87.155H73.6029V88.155ZM93.7178 87.655V90H94.7178V87.655H93.7178ZM94.2178 89.5H70.8028V90.5H94.2178V89.5ZM99.4796 90H98.9796V90.5H99.4796V90ZM99.4796 66.655V66.155H98.9796V66.655H99.4796ZM102.28 66.655H102.78V66.155H102.28V66.655ZM102.28 76.875H101.78V77.375H102.28V76.875ZM124.155 76.875V77.375H124.655V76.875H124.155ZM124.155 66.655V66.155H123.655V66.655H124.155ZM126.955 66.655H127.455V66.155H126.955V66.655ZM126.955 90V90.5H127.455V90H126.955ZM124.155 90H123.655V90.5H124.155V90ZM124.155 79.08H124.655V78.58H124.155V79.08ZM102.28 79.08V78.58H101.78V79.08H102.28ZM102.28 90V90.5H102.78V90H102.28ZM99.9796 90V66.655H98.9796V90H99.9796ZM99.4796 67.155H102.28V66.155H99.4796V67.155ZM101.78 66.655V76.875H102.78V66.655H101.78ZM102.28 77.375H124.155V76.375H102.28V77.375ZM124.655 76.875V66.655H123.655V76.875H124.655ZM124.155 67.155H126.955V66.155H124.155V67.155ZM126.455 66.655V90H127.455V66.655H126.455ZM126.955 89.5H124.155V90.5H126.955V89.5ZM124.655 90V79.08H123.655V90H124.655ZM124.155 78.58H102.28V79.58H124.155V78.58ZM101.78 79.08V90H102.78V79.08H101.78ZM102.28 89.5H99.4796V90.5H102.28V89.5ZM161.698 87.795H161.198V88.295H161.698V87.795ZM164.498 87.795H164.998V87.295H164.498V87.795ZM164.498 94.655V95.155H164.998V94.655H164.498ZM161.698 94.655H161.198V95.155H161.698V94.655ZM161.698 90H162.198V89.5H161.698V90ZM132.578 90V89.5H132.078V90H132.578ZM132.578 94.655V95.155H133.078V94.655H132.578ZM129.778 94.655H129.278V95.155H129.778V94.655ZM129.778 87.795V87.295H129.278V87.795H129.778ZM134.433 86.5L134.787 86.8536L134.433 86.5ZM136.078 66.655V66.155H135.578V66.655H136.078ZM161.698 66.655H162.198V66.155H161.698V66.655ZM158.898 87.795V88.295H159.398V87.795H158.898ZM158.898 68.86H159.398V68.36H158.898V68.86ZM138.878 68.86V68.36H138.378V68.86H138.878ZM138.073 85.415L138.518 85.6444L138.523 85.6337L138.073 85.415ZM135.938 87.795L135.676 87.3692L134.172 88.295H135.938V87.795ZM161.698 88.295H164.498V87.295H161.698V88.295ZM163.998 87.795V94.655H164.998V87.795H163.998ZM164.498 94.155H161.698V95.155H164.498V94.155ZM162.198 94.655V90H161.198V94.655H162.198ZM161.698 89.5H132.578V90.5H161.698V89.5ZM132.078 90V94.655H133.078V90H132.078ZM132.578 94.155H129.778V95.155H132.578V94.155ZM130.278 94.655V87.795H129.278V94.655H130.278ZM129.778 88.295H130.863V87.295H129.778V88.295ZM130.863 88.295C132.502 88.295 133.797 87.8438 134.787 86.8536L134.08 86.1464C133.32 86.9062 132.305 87.295 130.863 87.295V88.295ZM134.787 86.8536C136.2 85.4405 136.578 83.7845 136.578 80.095H135.578C135.578 83.7555 135.187 85.0395 134.08 86.1464L134.787 86.8536ZM136.578 80.095V66.655H135.578V80.095H136.578ZM136.078 67.155H161.698V66.155H136.078V67.155ZM161.198 66.655V87.795H162.198V66.655H161.198ZM159.398 87.795V68.86H158.398V87.795H159.398ZM158.898 68.36H138.878V69.36H158.898V68.36ZM138.378 68.86V80.34H139.378V68.86H138.378ZM138.378 80.34C138.378 83.1157 138.204 84.0041 137.624 85.1963L138.523 85.6337C139.203 84.2359 139.378 83.1643 139.378 80.34H138.378ZM137.629 85.1857C137.106 86.1997 136.5 86.8624 135.676 87.3692L136.2 88.2208C137.197 87.6076 137.921 86.8003 138.518 85.6443L137.629 85.1857ZM135.938 88.295H158.898V87.295H135.938V88.295ZM168.557 66.655V66.155H168.057V66.655H168.557ZM171.357 66.655H171.857V66.155H171.357V66.655ZM171.357 87.655H170.857V88.8621L171.71 88.0086L171.357 87.655ZM192.357 66.655V66.155H192.15L192.003 66.3014L192.357 66.655ZM196.032 66.655H196.532V66.155H196.032V66.655ZM196.032 90V90.5H196.532V90H196.032ZM193.232 90H192.732V90.5H193.232V90ZM193.232 69H193.732V67.7929L192.878 68.6464L193.232 69ZM172.232 90V90.5H172.439L172.585 90.3536L172.232 90ZM168.557 90H168.057V90.5H168.557V90ZM168.557 67.155H171.357V66.155H168.557V67.155ZM170.857 66.655V87.655H171.857V66.655H170.857ZM171.71 88.0086L192.71 67.0086L192.003 66.3014L171.003 87.3014L171.71 88.0086ZM192.357 67.155H196.032V66.155H192.357V67.155ZM195.532 66.655V90H196.532V66.655H195.532ZM196.032 89.5H193.232V90.5H196.032V89.5ZM193.732 90V69H192.732V90H193.732ZM192.878 68.6464L171.878 89.6464L172.585 90.3536L193.585 69.3536L192.878 68.6464ZM172.232 89.5H168.557V90.5H172.232V89.5ZM169.057 90V66.655H168.057V90H169.057ZM25.605 114.75L26.0363 114.497L25.8914 114.25H25.605V114.75ZM6.495 114.75V114.25H6.20864L6.06374 114.497L6.495 114.75ZM3.415 120V120.5H3.70136L3.84626 120.253L3.415 120ZM0.3 120L-0.130784 119.746L-0.574939 120.5H0.3V120ZM14.055 96.655V96.155H13.7693L13.6242 96.4012L14.055 96.655ZM18.01 96.655L18.4408 96.4012L18.2957 96.155H18.01V96.655ZM31.765 120V120.5H32.6399L32.1958 119.746L31.765 120ZM28.685 120L28.2537 120.253L28.3986 120.5H28.685V120ZM24.275 112.545V113.045H25.1509L24.7055 112.291L24.275 112.545ZM16.05 98.615L16.4805 98.3608L16.05 97.6316L15.6195 98.3608L16.05 98.615ZM7.825 112.545L7.39445 112.291L6.94912 113.045H7.825V112.545ZM25.605 114.25H6.495V115.25H25.605V114.25ZM6.06374 114.497L2.98374 119.747L3.84626 120.253L6.92626 115.003L6.06374 114.497ZM3.415 119.5H0.3V120.5H3.415V119.5ZM0.730784 120.254L14.4858 96.9088L13.6242 96.4012L-0.130784 119.746L0.730784 120.254ZM14.055 97.155H18.01V96.155H14.055V97.155ZM17.5792 96.9088L31.3342 120.254L32.1958 119.746L18.4408 96.4012L17.5792 96.9088ZM31.765 119.5H28.685V120.5H31.765V119.5ZM29.1163 119.747L26.0363 114.497L25.1737 115.003L28.2537 120.253L29.1163 119.747ZM24.7055 112.291L16.4805 98.3608L15.6195 98.8692L23.8445 112.799L24.7055 112.291ZM15.6195 98.3608L7.39445 112.291L8.25555 112.799L16.4805 98.8692L15.6195 98.3608ZM7.825 113.045H24.275V112.045H7.825V113.045ZM34.3331 120H33.8331V120.5H34.3331V120ZM34.3331 96.655V96.155H33.8331V96.655H34.3331ZM58.9731 98.02L58.6368 98.39L58.9731 98.02ZM56.1381 107.68L56.0791 107.183L56.1064 108.179L56.1381 107.68ZM59.9531 108.625L59.6474 109.021L59.6509 109.023L59.9531 108.625ZM37.1331 106.7H36.6331V107.2H37.1331V106.7ZM56.4881 106.105L56.7481 106.532L56.7531 106.529L56.4881 106.105ZM37.1331 99V98.5H36.6331V99H37.1331ZM37.1331 117.655H36.6331V118.155H37.1331V117.655ZM37.1331 108.905V108.405H36.6331V108.905H37.1331ZM34.8331 120V96.655H33.8331V120H34.8331ZM34.3331 97.155H53.0231V96.155H34.3331V97.155ZM53.0231 97.155C56.4496 97.155 57.6353 97.4795 58.6368 98.39L59.3095 97.65C58.001 96.4605 56.4566 96.155 53.0231 96.155V97.155ZM58.6368 98.39C59.6463 99.3077 60.1181 100.578 60.1181 102.78H61.1181C61.1181 100.432 60.6099 98.8323 59.3095 97.65L58.6368 98.39ZM60.1181 102.78C60.1181 104.497 59.8761 105.444 59.3353 106.034C58.7899 106.629 57.837 106.975 56.0791 107.183L56.1971 108.177C57.9743 107.965 59.2614 107.594 60.0722 106.71C60.8877 105.821 61.1181 104.528 61.1181 102.78H60.1181ZM56.1064 108.179C58.309 108.319 59.0086 108.527 59.6474 109.021L60.2589 108.229C59.3576 107.533 58.3772 107.321 56.1698 107.181L56.1064 108.179ZM59.6509 109.023C60.4699 109.645 60.9581 110.902 60.9581 113.175H61.9581C61.9581 110.828 61.4664 109.145 60.2553 108.227L59.6509 109.023ZM60.9581 113.175C60.9581 115.527 60.4288 117.065 59.3821 118.031C58.3257 119.007 56.6351 119.5 54.0731 119.5V120.5C56.7262 120.5 58.7281 119.996 60.0604 118.766C61.4025 117.527 61.9581 115.653 61.9581 113.175H60.9581ZM54.0731 119.5H34.3331V120.5H54.0731V119.5ZM37.1331 107.2H51.0631V106.2H37.1331V107.2ZM51.0631 107.2C52.9315 107.2 54.1139 107.174 54.9333 107.083C55.7733 106.99 56.2681 106.824 56.7481 106.532L56.2282 105.678C55.9032 105.876 55.5579 106.008 54.8229 106.089C54.0673 106.173 52.9398 106.2 51.0631 106.2V107.2ZM56.7531 106.529C57.8181 105.863 58.2131 104.618 58.2131 102.92H57.2131C57.2131 104.512 56.8381 105.297 56.2231 105.681L56.7531 106.529ZM58.2131 102.92C58.2131 101.385 57.9093 100.204 56.9501 99.4511C56.0301 98.7287 54.6215 98.5 52.7081 98.5V99.5C54.6098 99.5 55.7036 99.7438 56.3324 100.238C56.922 100.701 57.2131 101.48 57.2131 102.92H58.2131ZM52.7081 98.5H37.1331V99.5H52.7081V98.5ZM36.6331 99V106.7H37.6331V99H36.6331ZM37.1331 118.155H52.8131V117.155H37.1331V118.155ZM52.8131 118.155C53.9792 118.155 54.9504 118.1 55.7489 117.954C56.5478 117.808 57.2069 117.566 57.722 117.166C58.7802 116.346 59.0531 115.011 59.0531 113.21H58.0531C58.0531 114.979 57.766 115.867 57.1092 116.376C56.7668 116.642 56.2797 116.841 55.5692 116.971C54.8584 117.1 53.9571 117.155 52.8131 117.155V118.155ZM59.0531 113.21C59.0531 111.417 58.8009 110.091 57.6441 109.305C57.0913 108.93 56.3766 108.711 55.4957 108.581C54.6122 108.451 53.5199 108.405 52.1831 108.405V109.405C53.5064 109.405 54.5403 109.451 55.35 109.57C56.1622 109.69 56.7074 109.878 57.0822 110.132C57.7803 110.607 58.0531 111.433 58.0531 113.21H59.0531ZM52.1831 108.405H37.1331V109.405H52.1831V108.405ZM36.6331 108.905V117.655H37.6331V108.905H36.6331ZM76.0575 120H75.5575V120.5H76.0575V120ZM76.0575 99H76.5575V98.5H76.0575V99ZM64.1925 99H63.6925V99.5H64.1925V99ZM64.1925 96.655V96.155H63.6925V96.655H64.1925ZM90.6875 96.655H91.1875V96.155H90.6875V96.655ZM90.6875 99V99.5H91.1875V99H90.6875ZM78.8575 99V98.5H78.3575V99H78.8575ZM78.8575 120V120.5H79.3575V120H78.8575ZM76.5575 120V99H75.5575V120H76.5575ZM76.0575 98.5H64.1925V99.5H76.0575V98.5ZM64.6925 99V96.655H63.6925V99H64.6925ZM64.1925 97.155H90.6875V96.155H64.1925V97.155ZM90.1875 96.655V99H91.1875V96.655H90.1875ZM90.6875 98.5H78.8575V99.5H90.6875V98.5ZM78.3575 99V120H79.3575V99H78.3575ZM78.8575 119.5H76.0575V120.5H78.8575V119.5ZM121.999 98.545L122.36 98.1995L122.356 98.1949L121.999 98.545ZM121.999 118.11L122.359 118.457L122.36 118.455L121.999 118.11ZM95.6786 118.11L95.3171 118.455L95.3183 118.457L95.6786 118.11ZM95.6786 98.545L96.0362 98.8945L96.0388 98.8917L95.6786 98.545ZM97.9536 100.295L98.3133 100.642L98.3177 100.638L97.9536 100.295ZM97.9536 116.36L98.3171 116.017L98.3133 116.013L97.9536 116.36ZM119.724 116.36L120.082 116.708L120.083 116.707L119.724 116.36ZM119.724 100.295L119.354 100.632L119.359 100.637L119.364 100.642L119.724 100.295ZM108.979 96.91C113.696 96.91 116.461 96.99 118.268 97.2883C119.164 97.4361 119.8 97.6343 120.311 97.8905C120.817 98.1448 121.222 98.4677 121.642 98.8951L122.356 98.1949C121.882 97.7123 121.39 97.3134 120.759 96.9967C120.132 96.6819 119.391 96.4601 118.431 96.3017C116.528 95.9875 113.676 95.91 108.979 95.91V96.91ZM121.637 98.8904C122.316 99.6014 122.74 100.36 122.999 101.723C123.265 103.119 123.354 105.122 123.354 108.31H124.354C124.354 105.128 124.267 103.036 123.982 101.536C123.69 100.003 123.186 99.0636 122.36 98.1996L121.637 98.8904ZM123.354 108.31C123.354 111.516 123.265 113.528 122.999 114.928C122.74 116.296 122.316 117.054 121.637 117.765L122.36 118.455C123.186 117.591 123.69 116.652 123.982 115.114C124.267 113.61 124.354 111.509 124.354 108.31H123.354ZM121.638 117.763C121.219 118.199 120.817 118.525 120.312 118.78C119.804 119.037 119.167 119.234 118.266 119.38C116.445 119.674 113.645 119.745 108.839 119.745V120.745C113.622 120.745 116.51 120.676 118.425 120.367C119.392 120.211 120.135 119.99 120.763 119.672C121.395 119.353 121.886 118.948 122.359 118.457L121.638 117.763ZM108.839 119.745C104.032 119.745 101.232 119.674 99.4114 119.38C98.5098 119.234 97.873 119.037 97.3648 118.78C96.8603 118.525 96.4583 118.199 96.0388 117.763L95.3183 118.457C95.7914 118.948 96.2818 119.353 96.9138 119.672C97.5419 119.99 98.2855 120.211 99.2519 120.367C101.168 120.676 104.055 120.745 108.839 120.745V119.745ZM96.04 117.765C95.3607 117.054 94.9373 116.295 94.6779 114.932C94.4122 113.536 94.3236 111.533 94.3236 108.345H93.3236C93.3236 111.527 93.4099 113.619 93.6955 115.119C93.9873 116.652 94.4914 117.591 95.3171 118.455L96.04 117.765ZM94.3236 108.345C94.3236 105.139 94.4122 103.118 94.678 101.714C94.9377 100.341 95.3611 99.5852 96.0361 98.8945L95.321 98.1955C94.491 99.0448 93.9869 99.9868 93.6954 101.528C93.4099 103.037 93.3236 105.146 93.3236 108.345H94.3236ZM96.0388 98.8917C96.4582 98.4559 96.8601 98.1302 97.3662 97.8754C97.8765 97.6186 98.5175 97.4214 99.4282 97.2756C101.267 96.9813 104.102 96.91 108.979 96.91V95.91C104.125 95.91 101.203 95.9787 99.2701 96.2882C98.2952 96.4442 97.5471 96.6648 96.9166 96.9822C96.2821 97.3016 95.7914 97.7066 95.3183 98.1983L96.0388 98.8917ZM108.979 98.36C104.96 98.36 102.451 98.4205 100.803 98.6354C99.139 98.8524 98.2624 99.2374 97.5895 99.9523L98.3177 100.638C98.7648 100.163 99.3756 99.8301 100.932 99.627C102.504 99.422 104.947 99.36 108.979 99.36V98.36ZM97.5939 99.9477C97.0044 100.558 96.6713 101.346 96.4792 102.618C96.2891 103.876 96.2286 105.67 96.2286 108.345H97.2286C97.2286 105.665 97.2905 103.941 97.4679 102.767C97.6433 101.606 97.9227 101.047 98.3133 100.642L97.5939 99.9477ZM96.2286 108.345C96.2286 111.003 96.2891 112.788 96.4792 114.042C96.6714 115.309 97.0046 116.097 97.5939 116.707L98.3133 116.013C97.9225 115.608 97.6432 115.048 97.4679 113.892C97.2905 112.722 97.2286 111.007 97.2286 108.345H96.2286ZM97.59 116.703C97.924 117.057 98.2913 117.347 98.7959 117.572C99.2909 117.793 99.8961 117.942 100.693 118.046C102.277 118.252 104.737 118.295 108.839 118.295V117.295C104.716 117.295 102.328 117.25 100.823 117.054C100.075 116.957 99.5759 116.825 99.2035 116.659C98.8408 116.497 98.5782 116.293 98.3171 116.017L97.59 116.703ZM108.839 118.295C112.942 118.295 115.401 118.243 116.985 118.033C117.782 117.926 118.386 117.777 118.88 117.558C119.382 117.336 119.749 117.052 120.082 116.708L119.365 116.012C119.103 116.281 118.84 116.482 118.475 116.644C118.101 116.809 117.6 116.942 116.853 117.041C115.348 117.242 112.96 117.295 108.839 117.295V118.295ZM120.083 116.707C120.673 116.097 121.006 115.309 121.198 114.042C121.388 112.788 121.449 111.003 121.449 108.345H120.449C120.449 111.007 120.387 112.722 120.209 113.892C120.034 115.048 119.755 115.608 119.364 116.013L120.083 116.707ZM121.449 108.345C121.449 105.67 121.388 103.876 121.198 102.618C121.006 101.346 120.673 100.558 120.083 99.9477L119.364 100.642C119.754 101.047 120.034 101.606 120.209 102.767C120.387 103.941 120.449 105.665 120.449 108.345H121.449ZM120.093 99.9581C119.435 99.236 118.534 98.852 116.897 98.6356C115.271 98.4205 112.823 98.36 108.979 98.36V99.36C112.835 99.36 115.216 99.422 116.766 99.6269C118.305 99.8305 118.927 100.164 119.354 100.632L120.093 99.9581ZM129.694 120H129.194V120.5H129.694V120ZM129.694 96.655V96.155H129.194V96.655H129.694ZM134.209 96.655L134.619 96.3682L134.47 96.155H134.209V96.655ZM148.279 116.745L147.87 117.032L148.279 117.616L148.689 117.032L148.279 116.745ZM162.384 96.655V96.155H162.125L161.975 96.3677L162.384 96.655ZM166.759 96.655H167.259V96.155H166.759V96.655ZM166.759 120V120.5H167.259V120H166.759ZM163.959 120H163.459V120.5H163.959V120ZM163.959 98.965H164.459V97.3767L163.55 98.6786L163.959 98.965ZM149.259 120V120.5H149.52L149.669 120.286L149.259 120ZM147.194 120L146.785 120.286L146.934 120.5H147.194V120ZM132.494 98.965L132.904 98.6786L131.994 97.3767V98.965H132.494ZM132.494 120V120.5H132.994V120H132.494ZM130.194 120V96.655H129.194V120H130.194ZM129.694 97.155H134.209V96.155H129.694V97.155ZM133.8 96.9418L147.87 117.032L148.689 116.458L134.619 96.3682L133.8 96.9418ZM148.689 117.032L162.794 96.9423L161.975 96.3677L147.87 116.458L148.689 117.032ZM162.384 97.155H166.759V96.155H162.384V97.155ZM166.259 96.655V120H167.259V96.655H166.259ZM166.759 119.5H163.959V120.5H166.759V119.5ZM164.459 120V98.965H163.459V120H164.459ZM163.55 98.6786L148.85 119.714L149.669 120.286L164.369 99.2514L163.55 98.6786ZM149.259 119.5H147.194V120.5H149.259V119.5ZM147.604 119.714L132.904 98.6786L132.085 99.2514L146.785 120.286L147.604 119.714ZM131.994 98.965V120H132.994V98.965H131.994ZM132.494 119.5H129.694V120.5H132.494V119.5ZM200.783 98.545L201.144 98.1995L201.14 98.1949L200.783 98.545ZM200.783 118.11L201.143 118.457L201.144 118.455L200.783 118.11ZM174.463 118.11L174.101 118.455L174.102 118.457L174.463 118.11ZM174.463 98.545L174.82 98.8945L174.823 98.8917L174.463 98.545ZM176.738 100.295L177.097 100.642L177.102 100.638L176.738 100.295ZM176.738 116.36L177.101 116.017L177.097 116.013L176.738 116.36ZM198.508 116.36L198.866 116.708L198.867 116.707L198.508 116.36ZM198.508 100.295L198.138 100.632L198.143 100.637L198.148 100.642L198.508 100.295ZM187.763 96.91C192.48 96.91 195.246 96.99 197.053 97.2883C197.948 97.4361 198.585 97.6343 199.095 97.8905C199.602 98.1448 200.007 98.4677 200.426 98.8951L201.14 98.1949C200.666 97.7123 200.174 97.3134 199.544 96.9967C198.916 96.6819 198.175 96.4601 197.215 96.3017C195.312 95.9875 192.46 95.91 187.763 95.91V96.91ZM200.421 98.8904C201.101 99.6014 201.524 100.36 201.783 101.723C202.049 103.119 202.138 105.122 202.138 108.31H203.138C203.138 105.128 203.051 103.036 202.766 101.536C202.474 100.003 201.97 99.0636 201.144 98.1996L200.421 98.8904ZM202.138 108.31C202.138 111.516 202.049 113.528 201.783 114.928C201.524 116.296 201.1 117.054 200.421 117.765L201.144 118.455C201.97 117.591 202.474 116.652 202.766 115.114C203.051 113.61 203.138 111.509 203.138 108.31H202.138ZM200.422 117.763C200.003 118.199 199.601 118.525 199.097 118.78C198.588 119.037 197.952 119.234 197.05 119.38C195.229 119.674 192.429 119.745 187.623 119.745V120.745C192.407 120.745 195.294 120.676 197.209 120.367C198.176 120.211 198.919 119.99 199.548 119.672C200.18 119.353 200.67 118.948 201.143 118.457L200.422 117.763ZM187.623 119.745C182.817 119.745 180.016 119.674 178.196 119.38C177.294 119.234 176.657 119.037 176.149 118.78C175.645 118.525 175.242 118.199 174.823 117.763L174.102 118.457C174.576 118.948 175.066 119.353 175.698 119.672C176.326 119.99 177.07 120.211 178.036 120.367C179.952 120.676 182.839 120.745 187.623 120.745V119.745ZM174.824 117.765C174.145 117.054 173.721 116.295 173.462 114.932C173.196 113.536 173.108 111.533 173.108 108.345H172.108C172.108 111.527 172.194 113.619 172.48 115.119C172.771 116.652 173.276 117.591 174.101 118.455L174.824 117.765ZM173.108 108.345C173.108 105.139 173.196 103.118 173.462 101.714C173.722 100.341 174.145 99.5852 174.82 98.8945L174.105 98.1955C173.275 99.0448 172.771 99.9868 172.48 101.528C172.194 103.037 172.108 105.146 172.108 108.345H173.108ZM174.823 98.8917C175.242 98.4559 175.644 98.1302 176.15 97.8754C176.661 97.6186 177.302 97.4214 178.212 97.2756C180.051 96.9813 182.887 96.91 187.763 96.91V95.91C182.909 95.91 179.987 95.9787 178.054 96.2882C177.079 96.4442 176.331 96.6648 175.701 96.9822C175.066 97.3016 174.576 97.7066 174.102 98.1983L174.823 98.8917ZM187.763 98.36C183.744 98.36 181.235 98.4205 179.587 98.6354C177.923 98.8524 177.047 99.2374 176.374 99.9523L177.102 100.638C177.549 100.163 178.16 99.8301 179.716 99.627C181.288 99.422 183.731 99.36 187.763 99.36V98.36ZM176.378 99.9477C175.789 100.558 175.455 101.346 175.263 102.618C175.073 103.876 175.013 105.67 175.013 108.345H176.013C176.013 105.665 176.075 103.941 176.252 102.767C176.428 101.606 176.707 101.047 177.097 100.642L176.378 99.9477ZM175.013 108.345C175.013 111.003 175.073 112.788 175.263 114.042C175.456 115.309 175.789 116.097 176.378 116.707L177.097 116.013C176.707 115.608 176.427 115.048 176.252 113.892C176.075 112.722 176.013 111.007 176.013 108.345H175.013ZM176.374 116.703C176.708 117.057 177.076 117.347 177.58 117.572C178.075 117.793 178.68 117.942 179.477 118.046C181.061 118.252 183.521 118.295 187.623 118.295V117.295C183.5 117.295 181.112 117.25 179.607 117.054C178.86 116.957 178.36 116.825 177.988 116.659C177.625 116.497 177.362 116.293 177.101 116.017L176.374 116.703ZM187.623 118.295C191.726 118.295 194.186 118.243 195.769 118.033C196.567 117.926 197.17 117.777 197.664 117.558C198.167 117.336 198.533 117.052 198.866 116.708L198.149 116.012C197.888 116.281 197.624 116.482 197.259 116.644C196.885 116.809 196.384 116.942 195.637 117.041C194.132 117.242 191.744 117.295 187.623 117.295V118.295ZM198.867 116.707C199.457 116.097 199.79 115.309 199.982 114.042C200.172 112.788 200.233 111.003 200.233 108.345H199.233C199.233 111.007 199.171 112.722 198.993 113.892C198.818 115.048 198.539 115.608 198.148 116.013L198.867 116.707ZM200.233 108.345C200.233 105.67 200.172 103.876 199.982 102.618C199.79 101.346 199.457 100.558 198.867 99.9477L198.148 100.642C198.539 101.047 198.818 101.606 198.993 102.767C199.171 103.941 199.233 105.665 199.233 108.345H200.233ZM198.877 99.9581C198.219 99.236 197.318 98.852 195.681 98.6356C194.055 98.4205 191.607 98.36 187.763 98.36V99.36C191.619 99.36 194 99.422 195.55 99.6269C197.09 99.8305 197.712 100.164 198.138 100.632L198.877 99.9581ZM211.279 99V98.5H210.779V99H211.279ZM211.279 105.86H210.779V106.36H211.279V105.86ZM233.084 107.155L233.396 106.765L233.393 106.762L233.084 107.155ZM233.539 118.46L233.179 118.112L233.175 118.117L233.539 118.46ZM208.479 120H207.979V120.5H208.479V120ZM208.479 96.655V96.155H207.979V96.655H208.479ZM229.794 96.655H230.294V96.155H229.794V96.655ZM229.794 99V99.5H230.294V99H229.794ZM211.279 108.205V107.705H210.779V108.205H211.279ZM211.279 117.655H210.779V118.155H211.279V117.655ZM210.779 99V105.86H211.779V99H210.779ZM211.279 106.36H227.939V105.36H211.279V106.36ZM227.939 106.36C230.414 106.36 231.749 106.74 232.774 107.548L233.393 106.762C232.109 105.75 230.504 105.36 227.939 105.36V106.36ZM232.771 107.545C233.398 108.046 233.801 108.603 234.059 109.426C234.324 110.274 234.439 111.419 234.439 113.105H235.439C235.439 111.396 235.326 110.126 235.013 109.128C234.693 108.105 234.17 107.384 233.396 106.765L232.771 107.545ZM234.439 113.105C234.439 115.917 234.05 117.211 233.179 118.112L233.898 118.808C235.057 117.609 235.439 115.963 235.439 113.105H234.439ZM233.175 118.117C232.215 119.137 231.022 119.5 227.344 119.5V120.5C231.015 120.5 232.622 120.163 233.903 118.803L233.175 118.117ZM227.344 119.5H208.479V120.5H227.344V119.5ZM208.979 120V96.655H207.979V120H208.979ZM208.479 97.155H229.794V96.155H208.479V97.155ZM229.294 96.655V99H230.294V96.655H229.294ZM229.794 98.5H211.279V99.5H229.794V98.5ZM210.779 108.205V117.655H211.779V108.205H210.779ZM211.279 118.155H226.434V117.155H211.279V118.155ZM226.434 118.155C228.662 118.155 230.241 117.932 231.236 117.092C232.263 116.226 232.534 114.83 232.534 112.93H231.534C231.534 114.81 231.245 115.777 230.591 116.328C229.906 116.906 228.686 117.155 226.434 117.155V118.155ZM232.534 112.93C232.534 110.998 232.264 109.586 231.148 108.727C230.605 108.309 229.905 108.059 229.048 107.909C228.192 107.76 227.143 107.705 225.874 107.705V108.705C227.124 108.705 228.105 108.76 228.876 108.894C229.648 109.029 230.172 109.238 230.539 109.52C231.243 110.062 231.534 111.012 231.534 112.93H232.534ZM225.874 107.705H211.279V108.705H225.874V107.705ZM239.856 120H239.356V120.5H239.856V120ZM239.856 96.655V96.155H239.356V96.655H239.856ZM242.656 96.655H243.156V96.155H242.656V96.655ZM242.656 120V120.5H243.156V120H242.656ZM240.356 120V96.655H239.356V120H240.356ZM239.856 97.155H242.656V96.155H239.856V97.155ZM242.156 96.655V120H243.156V96.655H242.156ZM242.656 119.5H239.856V120.5H242.656V119.5ZM276.522 96.655H277.022V96.155H276.522V96.655ZM276.522 120V120.5H277.022V120H276.522ZM273.722 120H273.222V120.5H273.722V120ZM273.722 98.86H274.222V98.36H273.722V98.86ZM253.702 98.86V98.36H253.202V98.86H253.702ZM250.167 119.09L249.917 118.657L249.913 118.659L250.167 119.09ZM245.687 120.175H245.187V120.693L245.704 120.675L245.687 120.175ZM245.687 117.9L245.676 117.4L245.187 117.41V117.9H245.687ZM249.257 116.605L248.903 116.251L249.257 116.605ZM250.902 96.655V96.155H250.402V96.655H250.902ZM276.022 96.655V120H277.022V96.655H276.022ZM276.522 119.5H273.722V120.5H276.522V119.5ZM274.222 120V98.86H273.222V120H274.222ZM273.722 98.36H253.702V99.36H273.722V98.36ZM253.202 98.86V110.48H254.202V98.86H253.202ZM253.202 110.48C253.202 112.817 252.958 114.526 252.43 115.816C251.91 117.086 251.104 117.974 249.917 118.657L250.416 119.523C251.784 118.736 252.746 117.681 253.355 116.195C253.955 114.729 254.202 112.868 254.202 110.48H253.202ZM249.913 118.659C248.819 119.302 247.615 119.607 245.669 119.675L245.704 120.675C247.748 120.603 249.134 120.278 250.42 119.521L249.913 118.659ZM246.187 120.175V117.9H245.187V120.175H246.187ZM245.697 118.4C246.567 118.382 247.291 118.282 247.93 118.051C248.577 117.817 249.11 117.458 249.61 116.959L248.903 116.251C248.493 116.662 248.081 116.933 247.59 117.11C247.092 117.291 246.487 117.383 245.676 117.4L245.697 118.4ZM249.61 116.959C251.023 115.546 251.402 113.889 251.402 110.2H250.402C250.402 113.861 250.01 115.145 248.903 116.251L249.61 116.959ZM251.402 110.2V96.655H250.402V110.2H251.402ZM250.902 97.155H276.522V96.155H250.902V97.155ZM283.059 120H282.559V120.5H283.059V120ZM283.059 96.655V96.155H282.559V96.655H283.059ZM285.859 96.655H286.359V96.155H285.859V96.655ZM285.859 120V120.5H286.359V120H285.859ZM283.559 120V96.655H282.559V120H283.559ZM283.059 97.155H285.859V96.155H283.059V97.155ZM285.359 96.655V120H286.359V96.655H285.359ZM285.859 119.5H283.059V120.5H285.859V119.5ZM292.39 120H291.89V120.5H292.39V120ZM292.39 96.655V96.155H291.89V96.655H292.39ZM317.03 98.02L316.693 98.39L317.03 98.02ZM314.195 107.68L314.136 107.183L314.163 108.179L314.195 107.68ZM318.01 108.625L317.704 109.021L317.708 109.023L318.01 108.625ZM295.19 106.7H294.69V107.2H295.19V106.7ZM314.545 106.105L314.805 106.532L314.81 106.529L314.545 106.105ZM295.19 99V98.5H294.69V99H295.19ZM295.19 117.655H294.69V118.155H295.19V117.655ZM295.19 108.905V108.405H294.69V108.905H295.19ZM292.89 120V96.655H291.89V120H292.89ZM292.39 97.155H311.08V96.155H292.39V97.155ZM311.08 97.155C314.506 97.155 315.692 97.4795 316.693 98.39L317.366 97.65C316.058 96.4605 314.513 96.155 311.08 96.155V97.155ZM316.693 98.39C317.703 99.3077 318.175 100.578 318.175 102.78H319.175C319.175 100.432 318.667 98.8323 317.366 97.65L316.693 98.39ZM318.175 102.78C318.175 104.497 317.933 105.444 317.392 106.034C316.847 106.629 315.894 106.975 314.136 107.183L314.254 108.177C316.031 107.965 317.318 107.594 318.129 106.71C318.944 105.821 319.175 104.528 319.175 102.78H318.175ZM314.163 108.179C316.366 108.319 317.065 108.527 317.704 109.021L318.315 108.229C317.414 107.533 316.434 107.321 314.226 107.181L314.163 108.179ZM317.708 109.023C318.527 109.645 319.015 110.902 319.015 113.175H320.015C320.015 110.828 319.523 109.145 318.312 108.227L317.708 109.023ZM319.015 113.175C319.015 115.527 318.485 117.065 317.439 118.031C316.382 119.007 314.692 119.5 312.13 119.5V120.5C314.783 120.5 316.785 119.996 318.117 118.766C319.459 117.527 320.015 115.653 320.015 113.175H319.015ZM312.13 119.5H292.39V120.5H312.13V119.5ZM295.19 107.2H309.12V106.2H295.19V107.2ZM309.12 107.2C310.988 107.2 312.171 107.174 312.99 107.083C313.83 106.99 314.325 106.824 314.805 106.532L314.285 105.678C313.96 105.876 313.615 106.008 312.88 106.089C312.124 106.173 310.996 106.2 309.12 106.2V107.2ZM314.81 106.529C315.875 105.863 316.27 104.618 316.27 102.92H315.27C315.27 104.512 314.895 105.297 314.28 105.681L314.81 106.529ZM316.27 102.92C316.27 101.385 315.966 100.204 315.007 99.4511C314.087 98.7287 312.678 98.5 310.765 98.5V99.5C312.666 99.5 313.76 99.7438 314.389 100.238C314.979 100.701 315.27 101.48 315.27 102.92H316.27ZM310.765 98.5H295.19V99.5H310.765V98.5ZM294.69 99V106.7H295.69V99H294.69ZM295.19 118.155H310.87V117.155H295.19V118.155ZM310.87 118.155C312.036 118.155 313.007 118.1 313.806 117.954C314.604 117.808 315.264 117.566 315.779 117.166C316.837 116.346 317.11 115.011 317.11 113.21H316.11C316.11 114.979 315.823 115.867 315.166 116.376C314.823 116.642 314.336 116.841 313.626 116.971C312.915 117.1 312.014 117.155 310.87 117.155V118.155ZM317.11 113.21C317.11 111.417 316.858 110.091 315.701 109.305C315.148 108.93 314.433 108.711 313.552 108.581C312.669 108.451 311.577 108.405 310.24 108.405V109.405C311.563 109.405 312.597 109.451 313.407 109.57C314.219 109.69 314.764 109.878 315.139 110.132C315.837 110.607 316.11 111.433 316.11 113.21H317.11ZM310.24 108.405H295.19V109.405H310.24V108.405ZM294.69 108.905V117.655H295.69V108.905H294.69ZM324.963 116.08V115.58H324.463V116.08H324.963ZM328.533 116.08H329.033V115.58H328.533V116.08ZM324.788 123.78V124.28L324.795 124.28L324.788 123.78ZM324.543 123.78H324.043V124.28H324.543V123.78ZM324.543 121.89V121.39H324.043V121.89H324.543ZM326.223 120L326.723 119.986L326.71 119.5H326.223V120ZM324.963 120H324.463V120.5H324.963V120ZM324.963 116.58H328.533V115.58H324.963V116.58ZM328.033 116.08V120H329.033V116.08H328.033ZM328.033 120C328.033 121.163 327.739 121.952 327.238 122.456C326.736 122.962 325.946 123.264 324.781 123.28L324.795 124.28C326.115 124.261 327.198 123.916 327.947 123.161C328.697 122.406 329.033 121.322 329.033 120H328.033ZM324.788 123.28H324.543V124.28H324.788V123.28ZM325.043 123.78V121.89H324.043V123.78H325.043ZM324.543 122.39C325.214 122.39 325.809 122.222 326.216 121.762C326.615 121.314 326.742 120.688 326.723 119.986L325.723 120.014C325.739 120.607 325.622 120.926 325.468 121.099C325.325 121.261 325.062 121.39 324.543 121.39V122.39ZM326.223 119.5H324.963V120.5H326.223V119.5ZM325.463 120V116.08H324.463V120H325.463ZM4.255 150H3.755V150.5H4.255V150ZM4.255 126.655V126.155H3.755V126.655H4.255ZM8.77 126.655L9.17955 126.368L9.03025 126.155H8.77V126.655ZM22.84 146.745L22.4305 147.032L22.8395 147.616L23.2492 147.032L22.84 146.745ZM36.945 126.655V126.155H36.6851L36.5358 126.368L36.945 126.655ZM41.32 126.655H41.82V126.155H41.32V126.655ZM41.32 150V150.5H41.82V150H41.32ZM38.52 150H38.02V150.5H38.52V150ZM38.52 128.965H39.02V127.377L38.1102 128.679L38.52 128.965ZM23.82 150V150.5H24.0806L24.2298 150.286L23.82 150ZM21.755 150L21.3452 150.286L21.4944 150.5H21.755V150ZM7.055 128.965L7.46484 128.679L6.555 127.377V128.965H7.055ZM7.055 150V150.5H7.555V150H7.055ZM4.755 150V126.655H3.755V150H4.755ZM4.255 127.155H8.77V126.155H4.255V127.155ZM8.36045 126.942L22.4305 147.032L23.2495 146.458L9.17955 126.368L8.36045 126.942ZM23.2492 147.032L37.3542 126.942L36.5358 126.368L22.4308 146.458L23.2492 147.032ZM36.945 127.155H41.32V126.155H36.945V127.155ZM40.82 126.655V150H41.82V126.655H40.82ZM41.32 149.5H38.52V150.5H41.32V149.5ZM39.02 150V128.965H38.02V150H39.02ZM38.1102 128.679L23.4102 149.714L24.2298 150.286L38.9298 129.251L38.1102 128.679ZM23.82 149.5H21.755V150.5H23.82V149.5ZM22.1648 149.714L7.46484 128.679L6.64516 129.251L21.3452 150.286L22.1648 149.714ZM6.555 128.965V150H7.555V128.965H6.555ZM7.055 149.5H4.255V150.5H7.055V149.5ZM76.0433 128.545L76.4048 128.2L76.4003 128.195L76.0433 128.545ZM76.0433 148.11L76.4036 148.457L76.4048 148.455L76.0433 148.11ZM49.7233 148.11L49.3618 148.455L49.363 148.457L49.7233 148.11ZM49.7233 128.545L50.0809 128.894L50.0836 128.892L49.7233 128.545ZM51.9983 130.295L52.358 130.642L52.3624 130.638L51.9983 130.295ZM51.9983 146.36L52.3618 146.017L52.358 146.013L51.9983 146.36ZM73.7683 146.36L74.1269 146.708L74.128 146.707L73.7683 146.36ZM73.7683 130.295L73.3988 130.632L73.4036 130.637L73.4086 130.642L73.7683 130.295ZM63.0233 126.91C67.7406 126.91 70.5062 126.99 72.3131 127.288C73.2082 127.436 73.8452 127.634 74.3556 127.89C74.8622 128.145 75.2671 128.468 75.6863 128.895L76.4003 128.195C75.9269 127.712 75.435 127.313 74.8041 126.997C74.177 126.682 73.4358 126.46 72.476 126.302C70.5729 125.987 67.721 125.91 63.0233 125.91V126.91ZM75.6818 128.89C76.3611 129.601 76.7845 130.36 77.044 131.723C77.3096 133.119 77.3983 135.122 77.3983 138.31H78.3983C78.3983 135.128 78.312 133.036 78.0263 131.536C77.7345 130.003 77.2304 129.064 76.4048 128.2L75.6818 128.89ZM77.3983 138.31C77.3983 141.516 77.3096 143.528 77.0439 144.928C76.7844 146.296 76.361 147.054 75.6818 147.765L76.4048 148.455C77.2306 147.591 77.7346 146.652 78.0264 145.114C78.312 143.61 78.3983 141.509 78.3983 138.31H77.3983ZM75.683 147.763C75.2636 148.199 74.8615 148.525 74.3571 148.78C73.8488 149.037 73.2121 149.234 72.3104 149.38C70.4898 149.674 67.6894 149.745 62.8833 149.745V150.745C67.6672 150.745 70.5542 150.676 72.4699 150.367C73.4364 150.211 74.18 149.99 74.8081 149.672C75.4401 149.353 75.9305 148.948 76.4036 148.457L75.683 147.763ZM62.8833 149.745C58.0772 149.745 55.2767 149.674 53.4562 149.38C52.5545 149.234 51.9178 149.037 51.4095 148.78C50.9051 148.525 50.503 148.199 50.0836 147.763L49.363 148.457C49.8361 148.948 50.3265 149.353 50.9585 149.672C51.5866 149.99 52.3302 150.211 53.2966 150.367C55.2123 150.676 58.0994 150.745 62.8833 150.745V149.745ZM50.0848 147.765C49.4054 147.054 48.982 146.295 48.7226 144.932C48.4569 143.536 48.3683 141.533 48.3683 138.345H47.3683C47.3683 141.527 47.4546 143.619 47.7402 145.119C48.032 146.652 48.5361 147.591 49.3618 148.455L50.0848 147.765ZM48.3683 138.345C48.3683 135.139 48.4569 133.118 48.7227 131.714C48.9824 130.341 49.4058 129.585 50.0809 128.894L49.3657 128.196C48.5358 129.045 48.0316 129.987 47.7401 131.528C47.4546 133.037 47.3683 135.146 47.3683 138.345H48.3683ZM50.0836 128.892C50.5029 128.456 50.9048 128.13 51.411 127.875C51.9212 127.619 52.5623 127.421 53.4729 127.276C55.3114 126.981 58.1471 126.91 63.0233 126.91V125.91C58.1694 125.91 55.2477 125.979 53.3149 126.288C52.3399 126.444 51.5919 126.665 50.9614 126.982C50.3268 127.302 49.8361 127.707 49.363 128.198L50.0836 128.892ZM63.0233 128.36C59.0048 128.36 56.4953 128.421 54.8474 128.635C53.1838 128.852 52.3071 129.237 51.6342 129.952L52.3624 130.638C52.8095 130.163 53.4203 129.83 54.9767 129.627C56.5488 129.422 58.9918 129.36 63.0233 129.36V128.36ZM51.6386 129.948C51.0492 130.558 50.716 131.346 50.5239 132.618C50.3338 133.876 50.2733 135.67 50.2733 138.345H51.2733C51.2733 135.665 51.3353 133.941 51.5127 132.767C51.6881 131.606 51.9674 131.047 52.358 130.642L51.6386 129.948ZM50.2733 138.345C50.2733 141.003 50.3338 142.788 50.5239 144.042C50.7161 145.309 51.0493 146.097 51.6386 146.707L52.358 146.013C51.9672 145.608 51.688 145.048 51.5126 143.892C51.3353 142.722 51.2733 141.007 51.2733 138.345H50.2733ZM51.6348 146.703C51.9687 147.057 52.3361 147.347 52.8406 147.572C53.3357 147.793 53.9408 147.942 54.738 148.046C56.3215 148.252 58.7813 148.295 62.8833 148.295V147.295C58.7603 147.295 56.3726 147.25 54.8673 147.054C54.1201 146.957 53.6206 146.825 53.2483 146.659C52.8855 146.497 52.6229 146.293 52.3618 146.017L51.6348 146.703ZM62.8833 148.295C66.9866 148.295 69.4461 148.243 71.0299 148.033C71.8271 147.926 72.431 147.777 72.9245 147.558C73.4271 147.336 73.7935 147.052 74.1269 146.708L73.4096 146.012C73.1481 146.281 72.8844 146.482 72.5197 146.644C72.1459 146.809 71.645 146.942 70.8979 147.041C69.393 147.242 67.0049 147.295 62.8833 147.295V148.295ZM74.128 146.707C74.7172 146.097 75.0505 145.309 75.2426 144.042C75.4328 142.788 75.4933 141.003 75.4933 138.345H74.4933C74.4933 141.007 74.4313 142.722 74.2539 143.892C74.0786 145.048 73.7993 145.608 73.4086 146.013L74.128 146.707ZM75.4933 138.345C75.4933 135.67 75.4328 133.876 75.2427 132.618C75.0506 131.346 74.7174 130.558 74.128 129.948L73.4086 130.642C73.7992 131.047 74.0785 131.606 74.2539 132.767C74.4313 133.941 74.4933 135.665 74.4933 138.345H75.4933ZM74.1378 129.958C73.4794 129.236 72.5788 128.852 70.942 128.636C69.3156 128.421 66.8673 128.36 63.0233 128.36V129.36C66.8793 129.36 69.261 129.422 70.8109 129.627C72.3502 129.83 72.9722 130.164 73.3988 130.632L74.1378 129.958ZM93.5903 150H93.0903V150.5H93.5903V150ZM93.5903 129H94.0903V128.5H93.5903V129ZM81.7253 129H81.2253V129.5H81.7253V129ZM81.7253 126.655V126.155H81.2253V126.655H81.7253ZM108.22 126.655H108.72V126.155H108.22V126.655ZM108.22 129V129.5H108.72V129H108.22ZM96.3903 129V128.5H95.8903V129H96.3903ZM96.3903 150V150.5H96.8903V150H96.3903ZM94.0903 150V129H93.0903V150H94.0903ZM93.5903 128.5H81.7253V129.5H93.5903V128.5ZM82.2253 129V126.655H81.2253V129H82.2253ZM81.7253 127.155H108.22V126.155H81.7253V127.155ZM107.72 126.655V129H108.72V126.655H107.72ZM108.22 128.5H96.3903V129.5H108.22V128.5ZM95.8903 129V150H96.8903V129H95.8903ZM96.3903 149.5H93.5903V150.5H96.3903V149.5ZM140.231 128.545L140.593 128.2L140.588 128.195L140.231 128.545ZM140.231 148.11L140.592 148.457L140.593 148.455L140.231 148.11ZM113.911 148.11L113.55 148.455L113.551 148.457L113.911 148.11ZM113.911 128.545L114.269 128.894L114.272 128.892L113.911 128.545ZM116.186 130.295L116.546 130.642L116.55 130.638L116.186 130.295ZM116.186 146.36L116.55 146.017L116.546 146.013L116.186 146.36ZM137.956 146.36L138.315 146.708L138.316 146.707L137.956 146.36ZM137.956 130.295L137.587 130.632L137.592 130.637L137.597 130.642L137.956 130.295ZM127.211 126.91C131.929 126.91 134.694 126.99 136.501 127.288C137.396 127.436 138.033 127.634 138.544 127.89C139.05 128.145 139.455 128.468 139.874 128.895L140.588 128.195C140.115 127.712 139.623 127.313 138.992 126.997C138.365 126.682 137.624 126.46 136.664 126.302C134.761 125.987 131.909 125.91 127.211 125.91V126.91ZM139.87 128.89C140.549 129.601 140.973 130.36 141.232 131.723C141.498 133.119 141.586 135.122 141.586 138.31H142.586C142.586 135.128 142.5 133.036 142.214 131.536C141.923 130.003 141.419 129.064 140.593 128.2L139.87 128.89ZM141.586 138.31C141.586 141.516 141.498 143.528 141.232 144.928C140.973 146.296 140.549 147.054 139.87 147.765L140.593 148.455C141.419 147.591 141.923 146.652 142.214 145.114C142.5 143.61 142.586 141.509 142.586 138.31H141.586ZM139.871 147.763C139.452 148.199 139.05 148.525 138.545 148.78C138.037 149.037 137.4 149.234 136.498 149.38C134.678 149.674 131.877 149.745 127.071 149.745V150.745C131.855 150.745 134.742 150.676 136.658 150.367C137.624 150.211 138.368 149.99 138.996 149.672C139.628 149.353 140.119 148.948 140.592 148.457L139.871 147.763ZM127.071 149.745C122.265 149.745 119.465 149.674 117.644 149.38C116.743 149.234 116.106 149.037 115.598 148.78C115.093 148.525 114.691 148.199 114.272 147.763L113.551 148.457C114.024 148.948 114.515 149.353 115.147 149.672C115.775 149.99 116.518 150.211 117.485 150.367C119.4 150.676 122.287 150.745 127.071 150.745V149.745ZM114.273 147.765C113.594 147.054 113.17 146.295 112.911 144.932C112.645 143.536 112.556 141.533 112.556 138.345H111.556C111.556 141.527 111.643 143.619 111.928 145.119C112.22 146.652 112.724 147.591 113.55 148.455L114.273 147.765ZM112.556 138.345C112.556 135.139 112.645 133.118 112.911 131.714C113.171 130.341 113.594 129.585 114.269 128.894L113.554 128.196C112.724 129.045 112.22 129.987 111.928 131.528C111.643 133.037 111.556 135.146 111.556 138.345H112.556ZM114.272 128.892C114.691 128.456 115.093 128.13 115.599 127.875C116.109 127.619 116.75 127.421 117.661 127.276C119.499 126.981 122.335 126.91 127.211 126.91V125.91C122.358 125.91 119.436 125.979 117.503 126.288C116.528 126.444 115.78 126.665 115.149 126.982C114.515 127.302 114.024 127.707 113.551 128.198L114.272 128.892ZM127.211 128.36C123.193 128.36 120.683 128.421 119.035 128.635C117.372 128.852 116.495 129.237 115.822 129.952L116.55 130.638C116.998 130.163 117.608 129.83 119.165 129.627C120.737 129.422 123.18 129.36 127.211 129.36V128.36ZM115.827 129.948C115.237 130.558 114.904 131.346 114.712 132.618C114.522 133.876 114.461 135.67 114.461 138.345H115.461C115.461 135.665 115.523 133.941 115.701 132.767C115.876 131.606 116.155 131.047 116.546 130.642L115.827 129.948ZM114.461 138.345C114.461 141.003 114.522 142.788 114.712 144.042C114.904 145.309 115.237 146.097 115.827 146.707L116.546 146.013C116.155 145.608 115.876 145.048 115.701 143.892C115.523 142.722 115.461 141.007 115.461 138.345H114.461ZM115.823 146.703C116.157 147.057 116.524 147.347 117.029 147.572C117.524 147.793 118.129 147.942 118.926 148.046C120.51 148.252 122.969 148.295 127.071 148.295V147.295C122.948 147.295 120.561 147.25 119.055 147.054C118.308 146.957 117.809 146.825 117.436 146.659C117.074 146.497 116.811 146.293 116.55 146.017L115.823 146.703ZM127.071 148.295C131.175 148.295 133.634 148.243 135.218 148.033C136.015 147.926 136.619 147.777 137.113 147.558C137.615 147.336 137.982 147.052 138.315 146.708L137.598 146.012C137.336 146.281 137.073 146.482 136.708 146.644C136.334 146.809 135.833 146.942 135.086 147.041C133.581 147.242 131.193 147.295 127.071 147.295V148.295ZM138.316 146.707C138.905 146.097 139.239 145.309 139.431 144.042C139.621 142.788 139.681 141.003 139.681 138.345H138.681C138.681 141.007 138.619 142.722 138.442 143.892C138.267 145.048 137.987 145.608 137.597 146.013L138.316 146.707ZM139.681 138.345C139.681 135.67 139.621 133.876 139.431 132.618C139.239 131.346 138.905 130.558 138.316 129.948L137.597 130.642C137.987 131.047 138.267 131.606 138.442 132.767C138.619 133.941 138.681 135.665 138.681 138.345H139.681ZM138.326 129.958C137.667 129.236 136.767 128.852 135.13 128.636C133.504 128.421 131.055 128.36 127.211 128.36V129.36C131.067 129.36 133.449 129.422 134.999 129.627C136.538 129.83 137.16 130.164 137.587 130.632L138.326 129.958ZM176.102 147.795H175.602V148.295H176.102V147.795ZM178.902 147.795H179.402V147.295H178.902V147.795ZM178.902 154.655V155.155H179.402V154.655H178.902ZM176.102 154.655H175.602V155.155H176.102V154.655ZM176.102 150H176.602V149.5H176.102V150ZM148.627 150H148.127V150.5H148.627V150ZM148.627 126.655V126.155H148.127V126.655H148.627ZM151.427 126.655H151.927V126.155H151.427V126.655ZM151.427 147.795H150.927V148.295H151.427V147.795ZM173.302 147.795V148.295H173.802V147.795H173.302ZM173.302 126.655V126.155H172.802V126.655H173.302ZM176.102 126.655H176.602V126.155H176.102V126.655ZM176.102 148.295H178.902V147.295H176.102V148.295ZM178.402 147.795V154.655H179.402V147.795H178.402ZM178.902 154.155H176.102V155.155H178.902V154.155ZM176.602 154.655V150H175.602V154.655H176.602ZM176.102 149.5H148.627V150.5H176.102V149.5ZM149.127 150V126.655H148.127V150H149.127ZM148.627 127.155H151.427V126.155H148.627V127.155ZM150.927 126.655V147.795H151.927V126.655H150.927ZM151.427 148.295H173.302V147.295H151.427V148.295ZM173.802 147.795V126.655H172.802V147.795H173.802ZM173.302 127.155H176.102V126.155H173.302V127.155ZM175.602 126.655V147.795H176.602V126.655H175.602ZM183.712 126.655V126.155H183.212V126.655H183.712ZM186.512 126.655H187.012V126.155H186.512V126.655ZM186.512 147.655H186.012V148.862L186.866 148.009L186.512 147.655ZM207.512 126.655V126.155H207.305L207.158 126.301L207.512 126.655ZM211.187 126.655H211.687V126.155H211.187V126.655ZM211.187 150V150.5H211.687V150H211.187ZM208.387 150H207.887V150.5H208.387V150ZM208.387 129H208.887V127.793L208.033 128.646L208.387 129ZM187.387 150V150.5H187.594L187.741 150.354L187.387 150ZM183.712 150H183.212V150.5H183.712V150ZM183.712 127.155H186.512V126.155H183.712V127.155ZM186.012 126.655V147.655H187.012V126.655H186.012ZM186.866 148.009L207.866 127.009L207.158 126.301L186.158 147.301L186.866 148.009ZM207.512 127.155H211.187V126.155H207.512V127.155ZM210.687 126.655V150H211.687V126.655H210.687ZM211.187 149.5H208.387V150.5H211.187V149.5ZM208.887 150V129H207.887V150H208.887ZM208.033 128.646L187.033 149.646L187.741 150.354L208.741 129.354L208.033 128.646ZM187.387 149.5H183.712V150.5H187.387V149.5ZM184.212 150V126.655H183.212V150H184.212ZM218.421 150H217.921V150.5H218.421V150ZM218.421 126.655V126.155H217.921V126.655H218.421ZM221.221 126.655H221.721V126.155H221.221V126.655ZM221.221 136.84H220.721V137.34H221.221V136.84ZM225.456 136.84V137.34H225.607L225.733 137.256L225.456 136.84ZM240.716 126.655V126.155H240.564L240.438 126.239L240.716 126.655ZM245.441 126.655L245.717 127.072L247.099 126.155H245.441V126.655ZM228.396 137.96L228.119 137.543L227.495 137.957L228.117 138.375L228.396 137.96ZM246.316 150V150.5H247.957L246.595 149.585L246.316 150ZM241.626 150L241.346 150.415L241.473 150.5H241.626V150ZM225.386 139.045L225.665 138.63L225.539 138.545H225.386V139.045ZM221.221 139.045V138.545H220.721V139.045H221.221ZM221.221 150V150.5H221.721V150H221.221ZM218.921 150V126.655H217.921V150H218.921ZM218.421 127.155H221.221V126.155H218.421V127.155ZM220.721 126.655V136.84H221.721V126.655H220.721ZM221.221 137.34H225.456V136.34H221.221V137.34ZM225.733 137.256L240.993 127.071L240.438 126.239L225.178 136.424L225.733 137.256ZM240.716 127.155H245.441V126.155H240.716V127.155ZM245.164 126.238L228.119 137.543L228.672 138.377L245.717 127.072L245.164 126.238ZM228.117 138.375L246.037 150.415L246.595 149.585L228.675 137.545L228.117 138.375ZM246.316 149.5H241.626V150.5H246.316V149.5ZM241.905 149.585L225.665 138.63L225.106 139.46L241.346 150.415L241.905 149.585ZM225.386 138.545H221.221V139.545H225.386V138.545ZM220.721 139.045V150H221.721V139.045H220.721ZM221.221 149.5H218.421V150.5H221.221V149.5ZM276.91 126.655H277.41V126.155H276.91V126.655ZM276.91 150V150.5H277.41V150H276.91ZM274.11 150H273.61V150.5H274.11V150ZM274.11 128.86H274.61V128.36H274.11V128.86ZM254.09 128.86V128.36H253.59V128.86H254.09ZM250.555 149.09L250.306 148.657L250.301 148.659L250.555 149.09ZM246.075 150.175H245.575V150.693L246.092 150.675L246.075 150.175ZM246.075 147.9L246.064 147.4L245.575 147.41V147.9H246.075ZM249.645 146.605L249.291 146.251L249.645 146.605ZM251.29 126.655V126.155H250.79V126.655H251.29ZM276.41 126.655V150H277.41V126.655H276.41ZM276.91 149.5H274.11V150.5H276.91V149.5ZM274.61 150V128.86H273.61V150H274.61ZM274.11 128.36H254.09V129.36H274.11V128.36ZM253.59 128.86V140.48H254.59V128.86H253.59ZM253.59 140.48C253.59 142.817 253.346 144.526 252.818 145.816C252.298 147.086 251.492 147.974 250.306 148.657L250.804 149.523C252.173 148.736 253.135 147.681 253.743 146.195C254.344 144.729 254.59 142.868 254.59 140.48H253.59ZM250.301 148.659C249.208 149.302 248.003 149.607 246.057 149.675L246.092 150.675C248.136 150.603 249.522 150.278 250.808 149.521L250.301 148.659ZM246.575 150.175V147.9H245.575V150.175H246.575ZM246.085 148.4C246.955 148.382 247.68 148.282 248.319 148.051C248.965 147.817 249.499 147.458 249.998 146.959L249.291 146.251C248.881 146.662 248.47 146.933 247.979 147.11C247.48 147.291 246.875 147.383 246.064 147.4L246.085 148.4ZM249.998 146.959C251.412 145.546 251.79 143.889 251.79 140.2H250.79C250.79 143.861 250.398 145.145 249.291 146.251L249.998 146.959ZM251.79 140.2V126.655H250.79V140.2H251.79ZM251.29 127.155H276.91V126.155H251.29V127.155ZM284.147 150H283.647V150.5H284.147V150ZM284.147 126.655V126.155H283.647V126.655H284.147ZM286.947 126.655H287.447V126.155H286.947V126.655ZM286.947 150V150.5H287.447V150H286.947ZM284.647 150V126.655H283.647V150H284.647ZM284.147 127.155H286.947V126.155H284.147V127.155ZM286.447 126.655V150H287.447V126.655H286.447ZM286.947 149.5H284.147V150.5H286.947V149.5ZM294.178 150H293.678V150.5H294.178V150ZM294.178 126.655V126.155H293.678V126.655H294.178ZM318.818 128.02L318.482 128.39L318.818 128.02ZM315.983 137.68L315.924 137.183L315.951 138.179L315.983 137.68ZM319.798 138.625L319.492 139.021L319.496 139.023L319.798 138.625ZM296.978 136.7H296.478V137.2H296.978V136.7ZM316.333 136.105L316.593 136.532L316.598 136.529L316.333 136.105ZM296.978 129V128.5H296.478V129H296.978ZM296.978 147.655H296.478V148.155H296.978V147.655ZM296.978 138.905V138.405H296.478V138.905H296.978ZM294.678 150V126.655H293.678V150H294.678ZM294.178 127.155H312.868V126.155H294.178V127.155ZM312.868 127.155C316.295 127.155 317.48 127.48 318.482 128.39L319.154 127.65C317.846 126.46 316.302 126.155 312.868 126.155V127.155ZM318.482 128.39C319.491 129.308 319.963 130.578 319.963 132.78H320.963C320.963 130.432 320.455 128.832 319.154 127.65L318.482 128.39ZM319.963 132.78C319.963 134.497 319.721 135.444 319.18 136.034C318.635 136.629 317.682 136.975 315.924 137.183L316.042 138.177C317.819 137.965 319.106 137.594 319.917 136.71C320.733 135.821 320.963 134.528 320.963 132.78H319.963ZM315.951 138.179C318.154 138.319 318.854 138.527 319.492 139.021L320.104 138.229C319.203 137.533 318.222 137.321 316.015 137.181L315.951 138.179ZM319.496 139.023C320.315 139.645 320.803 140.902 320.803 143.175H321.803C321.803 140.828 321.311 139.145 320.1 138.227L319.496 139.023ZM320.803 143.175C320.803 145.527 320.274 147.065 319.227 148.031C318.171 149.007 316.48 149.5 313.918 149.5V150.5C316.571 150.5 318.573 149.996 319.905 148.766C321.247 147.527 321.803 145.653 321.803 143.175H320.803ZM313.918 149.5H294.178V150.5H313.918V149.5ZM296.978 137.2H310.908V136.2H296.978V137.2ZM310.908 137.2C312.776 137.2 313.959 137.174 314.778 137.083C315.618 136.99 316.113 136.824 316.593 136.532L316.073 135.678C315.748 135.876 315.403 136.008 314.668 136.089C313.912 136.173 312.785 136.2 310.908 136.2V137.2ZM316.598 136.529C317.663 135.863 318.058 134.618 318.058 132.92H317.058C317.058 134.512 316.683 135.297 316.068 135.681L316.598 136.529ZM318.058 132.92C318.058 131.385 317.754 130.204 316.795 129.451C315.875 128.729 314.466 128.5 312.553 128.5V129.5C314.455 129.5 315.549 129.744 316.177 130.238C316.767 130.701 317.058 131.48 317.058 132.92H318.058ZM312.553 128.5H296.978V129.5H312.553V128.5ZM296.478 129V136.7H297.478V129H296.478ZM296.978 148.155H312.658V147.155H296.978V148.155ZM312.658 148.155C313.824 148.155 314.795 148.1 315.594 147.954C316.393 147.808 317.052 147.566 317.567 147.166C318.625 146.346 318.898 145.011 318.898 143.21H317.898C317.898 144.979 317.611 145.867 316.954 146.376C316.612 146.642 316.125 146.841 315.414 146.971C314.703 147.1 313.802 147.155 312.658 147.155V148.155ZM318.898 143.21C318.898 141.417 318.646 140.091 317.489 139.305C316.936 138.93 316.221 138.711 315.341 138.581C314.457 138.451 313.365 138.405 312.028 138.405V139.405C313.351 139.405 314.385 139.451 315.195 139.57C316.007 139.69 316.552 139.878 316.927 140.132C317.625 140.607 317.898 141.433 317.898 143.21H318.898ZM312.028 138.405H296.978V139.405H312.028V138.405ZM296.478 138.905V147.655H297.478V138.905H296.478Z" fill="#EFEFEF"/>
<g filter="url(#filter0_b_219_13)">
<rect x="204" y="31.7169" width="129" height="48" rx="24" transform="rotate(-14.335 204 31.7169)" fill="#D9D9D9" fill-opacity="0.01"/>
</g>
<rect x="204" y="31.7169" width="129" height="48" rx="24" transform="rotate(-14.335 204 31.7169)" fill="#D9D9D9" fill-opacity="0.04"/>
<rect x="204.608" y="32.0775" width="128" height="47" rx="23.5" transform="rotate(-14.335 204.608 32.0775)" stroke="#EFEFEF" stroke-opacity="0.2"/>
<path d="M250.791 43.4461L250.781 43.4485L250.784 43.4578L250.793 43.4554L250.791 43.4461Z" stroke="#DB2929" stroke-width="2.60322" stroke-linejoin="round"/>
<path d="M253.178 52.823L256.667 46.9378C258.594 43.6875 257.522 39.4904 254.272 37.5632C251.021 35.636 246.824 36.7086 244.897 39.9589C242.97 43.2092 244.042 47.4063 247.293 49.3335L253.178 52.823Z" stroke="#DB2929" stroke-width="1.73548" stroke-linejoin="round"/>
<path d="M280.346 43.0327L278.718 43.4487L272.11 39.0437L270.198 41.646L271.153 45.3819L270.006 45.675L267.177 34.6067L268.325 34.3136L269.854 40.2973L275.471 32.4874L277.13 32.0635L272.811 38.0389L280.346 43.0327ZM289.278 40.7501L288.115 41.0472L286.348 34.1334L282.643 42.4456L281.186 42.818L279.126 34.757L280.273 34.4639L282.048 41.4087L285.73 33.0695L287.218 32.6892L289.278 40.7501ZM292.142 40.0183L290.995 40.3114L288.935 32.2505L290.082 31.9573L292.142 40.0183ZM287.954 30.9323L286.822 31.2215L286.386 29.5163L287.518 29.2271L287.954 30.9323ZM291.457 30.037L290.31 30.3301L289.874 28.6249L291.021 28.3318L291.457 30.037ZM299.018 38.261L293.887 39.5722L291.827 31.5113L297.082 30.1683C298.633 29.7722 299.617 30.3297 299.938 31.5854C300.136 32.3605 299.962 33.2306 298.898 33.7834L298.902 33.7989C300.434 33.5891 301.017 34.6455 301.184 35.2965C301.433 36.2731 301.251 37.6905 299.018 38.261ZM297.692 34.6861L294.095 35.6051L294.801 38.3645L298.521 37.4137C298.909 37.3147 300.354 36.8958 300.001 35.5161C299.672 34.2295 298.467 34.488 297.692 34.6861ZM296.762 31.2411L293.212 32.1482L293.866 34.706L297.478 33.783C297.896 33.6761 299.14 33.3087 298.819 32.053C298.514 30.8594 297.491 31.0549 296.762 31.2411Z" fill="#EFEFEF"/>
<defs>
<filter id="filter0_b_219_13" x="189.189" y="-15.0332" width="166.49" height="108.066" filterUnits="userSpaceOnUse" color-interpolation-filters="sRGB">
<feFlood flood-opacity="0" result="BackgroundImageFix"/>
<feGaussianBlur in="BackgroundImageFix" stdDeviation="10"/>
<feComposite in2="SourceAlpha" operator="in" result="effect1_backgroundBlur_219_13"/>
<feBlend mode="normal" in="SourceGraphic" in2="effect1_backgroundBlur_219_13" result="shape"/>
</filter>
</defs>
</svg>
