<svg width="28" height="22" viewBox="0 0 28 22" fill="none" xmlns="http://www.w3.org/2000/svg">
<path d="M16.4476 19.7654H11.5522C11.1316 19.7654 10.7905 20.1064 10.7905 20.5271C10.7905 20.9478 11.1316 21.2888 11.5522 21.2888H16.4476C16.8682 21.2888 17.2093 20.9478 17.2093 20.5271C17.2093 20.1064 16.8682 19.7654 16.4476 19.7654Z" fill="#66C060" stroke="#66C060" stroke-width="0.3"/>
<path d="M16.1422 15.065C16.3022 14.744 16.3926 14.3824 16.3926 13.9994C16.3926 12.678 15.3214 11.6067 13.9999 11.6067C13.6168 11.6067 13.2551 11.6972 12.9341 11.8572L9.34623 8.26913C9.0488 7.97165 8.56648 7.97165 8.26901 8.26913C7.97153 8.56655 7.97153 9.04882 8.26901 9.34635L11.8572 12.9347C11.6975 13.2554 11.6072 13.6168 11.6072 13.9994C11.6072 15.3209 12.6784 16.3922 13.9999 16.3922C14.3827 16.3922 14.7441 16.3019 15.0649 16.1421L15.9089 16.9862C16.2064 17.2837 16.6886 17.2838 16.9862 16.9863C17.2836 16.6889 17.2837 16.2066 16.9862 15.9091L16.1422 15.065Z" fill="#66C060" stroke="#66C060" stroke-width="0.3"/>
<path d="M14 1C6.83177 1 1 6.83177 1 14C1 16.2846 1.60237 18.5326 2.74205 20.5009C2.95259 20.8645 3.41785 20.9888 3.78175 20.7789C3.7819 20.7788 5.90191 19.555 5.90191 19.555C6.26622 19.3447 6.39104 18.8789 6.1807 18.5145C5.97037 18.1502 5.5046 18.0252 5.1402 18.2357L3.70146 19.0663C3.04059 17.7247 2.64932 16.2599 2.54974 14.7618H4.20938C4.63005 14.7618 4.97109 14.4207 4.97109 14.0001C4.97109 13.5794 4.63005 13.2383 4.20938 13.2383H2.54934C2.65049 11.7024 3.05496 10.2482 3.70364 8.93498L5.14025 9.76439C5.50465 9.97488 5.97052 9.8499 6.18075 9.4856C6.39109 9.12124 6.26627 8.65538 5.90196 8.44509L4.46714 7.61664C5.30224 6.37362 6.37367 5.30219 7.6167 4.46709L8.44504 5.90176C8.65538 6.26612 9.12124 6.39104 9.48555 6.18055C9.84985 5.97016 9.97467 5.50435 9.76434 5.14004L8.93498 3.70359C10.2482 3.05496 11.7025 2.65075 13.2383 2.54944V4.20943C13.2383 4.6301 13.5793 4.97114 14 4.97114C14.4207 4.97114 14.7617 4.6301 14.7617 4.20943V2.54944C16.2975 2.65075 17.7518 3.05502 19.065 3.70359L18.2357 5.14004C18.0253 5.50435 18.1501 5.97022 18.5145 6.18055C18.8788 6.39104 19.3446 6.26612 19.555 5.90176L20.3833 4.46709C21.6263 5.30214 22.6978 6.37357 23.5329 7.61664L22.0981 8.44499C21.7338 8.65532 21.609 9.12114 21.8193 9.4855C22.0296 9.8498 22.4954 9.97477 22.8598 9.76429L24.2964 8.93488C24.945 10.2481 25.3496 11.7023 25.4507 13.2382H23.7906C23.37 13.2382 23.0289 13.5793 23.0289 13.9999C23.0289 14.4206 23.37 14.7617 23.7906 14.7617H25.4503C25.3507 16.2598 24.9594 17.7246 24.2985 19.0662L22.8598 18.2356C22.4954 18.0251 22.0296 18.1501 21.8193 18.5144C21.609 18.8788 21.7338 19.3446 22.0981 19.5549C22.0981 19.5549 24.2181 20.7787 24.2183 20.7788C24.5822 20.9887 25.0474 20.8644 25.2579 20.5008C26.3976 18.5326 27 16.2847 27 14C27 6.83177 21.1682 1 14 1Z" fill="#66C060" stroke="#66C060" stroke-width="0.3"/>
</svg>
