<svg width="26" height="27" viewBox="0 0 26 27" fill="none" xmlns="http://www.w3.org/2000/svg">
<path d="M13 0.288818C5.8318 0.288818 0 6.1207 0 13.2889C0 20.4571 5.8318 26.2888 13 26.2888C20.1682 26.2888 26 20.4571 26 13.2889C26 6.1207 20.1682 0.288818 13 0.288818ZM13 23.9252C7.13503 23.9252 2.36364 19.1538 2.36364 13.2889C2.36364 7.42401 7.13503 2.65245 13 2.65245C18.865 2.65245 23.6364 7.42401 23.6364 13.2889C23.6364 19.1538 18.8649 23.9252 13 23.9252Z" fill="#66C060"/>
<path d="M12.9998 5.80396C12.131 5.80396 11.4243 6.51116 11.4243 7.38042C11.4243 8.2489 12.131 8.95547 12.9998 8.95547C13.8685 8.95547 14.5752 8.2489 14.5752 7.38042C14.5752 6.51116 13.8685 5.80396 12.9998 5.80396Z" fill="#66C060"/>
<path d="M13.0002 11.3191C12.3475 11.3191 11.8184 11.8482 11.8184 12.5009V19.5918C11.8184 20.2445 12.3475 20.7736 13.0002 20.7736C13.6529 20.7736 14.182 20.2445 14.182 19.5918V12.5009C14.182 11.8482 13.6529 11.3191 13.0002 11.3191Z" fill="#66C060"/>
</svg>
