<svg width="162" height="28" viewBox="0 0 162 28" fill="none" xmlns="http://www.w3.org/2000/svg">
<path d="M22.1141 15.7681V12.681H34.4626V18.8552C34.4626 22.1276 31.7459 25.0295 28.2883 25.0295H19.027C15.7238 25.0295 12.8528 22.3437 12.8528 18.8552V9.59388C12.8528 6.32154 15.5694 3.41965 19.027 3.41965H28.2883C31.5916 3.41965 34.37 6.16718 34.4626 9.59388H31.3755C31.3755 7.89597 29.9863 6.50677 28.2883 6.50677H19.027C17.3291 6.50677 15.9399 7.89597 15.9399 9.59388V18.8552C15.9399 20.5531 17.3291 21.9423 19.027 21.9423H28.2883C29.9863 21.9423 31.3755 20.5531 31.3755 18.8552V15.7681H22.1141ZM55.4634 18.8552V9.59388C55.4634 7.89597 54.0742 6.50677 52.3763 6.50677H43.1149C41.417 6.50677 40.0278 7.89597 40.0278 9.59388V18.8552C40.0278 20.5531 41.417 21.9423 43.1149 21.9423H52.3763C54.0742 21.9423 55.4634 20.5531 55.4634 18.8552ZM58.5505 9.59388V18.8552C58.5505 22.2511 55.7721 25.0295 52.3763 25.0295H43.1149C39.6882 25.0295 36.9407 22.2819 36.9407 18.8552V9.59388C36.9407 6.19805 39.7191 3.41965 43.1149 3.41965H52.3763C55.6486 3.41965 58.5505 6.22893 58.5505 9.59388ZM79.86 12.681V9.59388C79.86 7.89597 78.4708 6.50677 76.7729 6.50677H64.4245V15.7681H76.7729C78.4708 15.7681 79.86 14.3789 79.86 12.681ZM82.9472 25.0295H80.7553L74.5811 18.8552H64.4245V25.0295H61.3374V3.41965H76.7729C80.0144 3.41965 82.9472 6.16718 82.9472 9.59388V12.681C82.9472 15.305 81.2184 17.6821 78.6561 18.5465L82.9472 22.8376V25.0295ZM85.7268 25.0295V3.41965H88.8139V25.0295H85.7268ZM94.9941 3.41965V21.9423H113.517V25.0295H91.907V3.41965H94.9941ZM118.148 3.41965V21.9423H136.67V25.0295H115.06V3.41965H118.148ZM153.649 6.50677H144.388C142.69 6.50677 141.301 7.89597 141.301 9.59388V15.7681H156.736V9.59388C156.736 7.89597 155.347 6.50677 153.649 6.50677ZM159.824 9.59388V25.0295H156.736V18.8552H141.301V25.0295H138.214V9.59388C138.214 6.32154 140.93 3.41965 144.388 3.41965H153.649C156.953 3.41965 159.731 6.16718 159.824 9.59388Z" fill="#EFEFEF"/>
<path d="M22.1141 15.7681H21.8766V16.0056H22.1141V15.7681ZM22.1141 12.681V12.4435H21.8766V12.681H22.1141ZM34.4626 12.681H34.7V12.4435H34.4626V12.681ZM34.4626 9.59388V9.83135H34.7065L34.7 9.58747L34.4626 9.59388ZM31.3755 9.59388H31.138V9.83135H31.3755V9.59388ZM31.3755 15.7681H31.6129V15.5306H31.3755V15.7681ZM22.3516 15.7681V12.681H21.8766V15.7681H22.3516ZM22.1141 12.9185H34.4626V12.4435H22.1141V12.9185ZM34.2251 12.681V18.8552H34.7V12.681H34.2251ZM34.2251 18.8552C34.2251 22.0011 31.6102 24.792 28.2883 24.792V25.2669C31.8817 25.2669 34.7 22.2541 34.7 18.8552H34.2251ZM28.2883 24.792H19.027V25.2669H28.2883V24.792ZM19.027 24.792C15.8503 24.792 13.0902 22.2079 13.0902 18.8552H12.6153C12.6153 22.4794 15.5973 25.2669 19.027 25.2669V24.792ZM13.0902 18.8552V9.59388H12.6153V18.8552H13.0902ZM13.0902 9.59388C13.0902 6.44805 15.7052 3.65712 19.027 3.65712V3.18218C15.4337 3.18218 12.6153 6.19503 12.6153 9.59388H13.0902ZM19.027 3.65712H28.2883V3.18218H19.027V3.65712ZM28.2883 3.65712C31.4577 3.65712 34.1359 6.29697 34.2252 9.6003L34.7 9.58747C34.604 6.0374 31.7254 3.18218 28.2883 3.18218V3.65712ZM34.4626 9.35641H31.3755V9.83135H34.4626V9.35641ZM31.6129 9.59388C31.6129 7.76482 30.1174 6.2693 28.2883 6.2693V6.74424C29.8551 6.74424 31.138 8.02712 31.138 9.59388H31.6129ZM28.2883 6.2693H19.027V6.74424H28.2883V6.2693ZM19.027 6.2693C17.1979 6.2693 15.7024 7.76482 15.7024 9.59388H16.1774C16.1774 8.02712 17.4602 6.74424 19.027 6.74424V6.2693ZM15.7024 9.59388V18.8552H16.1774V9.59388H15.7024ZM15.7024 18.8552C15.7024 20.6843 17.1979 22.1798 19.027 22.1798V21.7049C17.4602 21.7049 16.1774 20.422 16.1774 18.8552H15.7024ZM19.027 22.1798H28.2883V21.7049H19.027V22.1798ZM28.2883 22.1798C30.1174 22.1798 31.6129 20.6843 31.6129 18.8552H31.138C31.138 20.422 29.8551 21.7049 28.2883 21.7049V22.1798ZM31.6129 18.8552V15.7681H31.138V18.8552H31.6129ZM31.3755 15.5306H22.1141V16.0056H31.3755V15.5306ZM55.7009 18.8552V9.59388H55.2259V18.8552H55.7009ZM55.7009 9.59388C55.7009 7.76482 54.2053 6.2693 52.3763 6.2693V6.74424C53.943 6.74424 55.2259 8.02712 55.2259 9.59388H55.7009ZM52.3763 6.2693H43.1149V6.74424H52.3763V6.2693ZM43.1149 6.2693C41.2859 6.2693 39.7903 7.76482 39.7903 9.59388H40.2653C40.2653 8.02712 41.5482 6.74424 43.1149 6.74424V6.2693ZM39.7903 9.59388V18.8552H40.2653V9.59388H39.7903ZM39.7903 18.8552C39.7903 20.6843 41.2859 22.1798 43.1149 22.1798V21.7049C41.5482 21.7049 40.2653 20.422 40.2653 18.8552H39.7903ZM43.1149 22.1798H52.3763V21.7049H43.1149V22.1798ZM52.3763 22.1798C54.2053 22.1798 55.7009 20.6843 55.7009 18.8552H55.2259C55.2259 20.422 53.943 21.7049 52.3763 21.7049V22.1798ZM58.313 9.59388V18.8552H58.788V9.59388H58.313ZM58.313 18.8552C58.313 22.1199 55.641 24.792 52.3763 24.792V25.2669C55.9033 25.2669 58.788 22.3822 58.788 18.8552H58.313ZM52.3763 24.792H43.1149V25.2669H52.3763V24.792ZM43.1149 24.792C39.8194 24.792 37.1782 22.1508 37.1782 18.8552H36.7032C36.7032 22.4131 39.5571 25.2669 43.1149 25.2669V24.792ZM37.1782 18.8552V9.59388H36.7032V18.8552H37.1782ZM37.1782 9.59388C37.1782 6.32921 39.8503 3.65712 43.1149 3.65712V3.18218C39.588 3.18218 36.7032 6.0669 36.7032 9.59388H37.1782ZM43.1149 3.65712H52.3763V3.18218H43.1149V3.65712ZM52.3763 3.65712C55.5198 3.65712 58.313 6.36237 58.313 9.59388H58.788C58.788 6.09548 55.7775 3.18218 52.3763 3.18218V3.65712ZM64.4245 6.50677V6.2693H64.187V6.50677H64.4245ZM64.4245 15.7681H64.187V16.0056H64.4245V15.7681ZM82.9472 25.0295V25.2669H83.1846V25.0295H82.9472ZM80.7553 25.0295L80.5874 25.1974L80.6569 25.2669H80.7553V25.0295ZM74.5811 18.8552L74.749 18.6873L74.6794 18.6178H74.5811V18.8552ZM64.4245 18.8552V18.6178H64.187V18.8552H64.4245ZM64.4245 25.0295V25.2669H64.6619V25.0295H64.4245ZM61.3374 25.0295H61.0999V25.2669H61.3374V25.0295ZM61.3374 3.41965V3.18218H61.0999V3.41965H61.3374ZM78.6561 18.5465L78.5802 18.3215L78.2176 18.4438L78.4882 18.7144L78.6561 18.5465ZM82.9472 22.8376H83.1846V22.7392L83.1151 22.6697L82.9472 22.8376ZM80.0975 12.681V9.59388H79.6226V12.681H80.0975ZM80.0975 9.59388C80.0975 7.76482 78.602 6.2693 76.7729 6.2693V6.74424C78.3397 6.74424 79.6226 8.02712 79.6226 9.59388H80.0975ZM76.7729 6.2693H64.4245V6.74424H76.7729V6.2693ZM64.187 6.50677V15.7681H64.6619V6.50677H64.187ZM64.4245 16.0056H76.7729V15.5306H64.4245V16.0056ZM76.7729 16.0056C78.602 16.0056 80.0975 14.5101 80.0975 12.681H79.6226C79.6226 14.2478 78.3397 15.5306 76.7729 15.5306V16.0056ZM82.9472 24.792H80.7553V25.2669H82.9472V24.792ZM80.9232 24.8615L74.749 18.6873L74.4132 19.0231L80.5874 25.1974L80.9232 24.8615ZM74.5811 18.6178H64.4245V19.0927H74.5811V18.6178ZM64.187 18.8552V25.0295H64.6619V18.8552H64.187ZM64.4245 24.792H61.3374V25.2669H64.4245V24.792ZM61.5748 25.0295V3.41965H61.0999V25.0295H61.5748ZM61.3374 3.65712H76.7729V3.18218H61.3374V3.65712ZM76.7729 3.65712C79.8879 3.65712 82.7097 6.30291 82.7097 9.59388H83.1846C83.1846 6.03146 80.1409 3.18218 76.7729 3.18218V3.65712ZM82.7097 9.59388V12.681H83.1846V9.59388H82.7097ZM82.7097 12.681C82.7097 15.2 81.0489 17.4887 78.5802 18.3215L78.732 18.7715C81.3878 17.8756 83.1846 15.4101 83.1846 12.681H82.7097ZM78.4882 18.7144L82.7792 23.0055L83.1151 22.6697L78.824 18.3786L78.4882 18.7144ZM82.7097 22.8376V25.0295H83.1846V22.8376H82.7097ZM85.7268 25.0295H85.4893V25.2669H85.7268V25.0295ZM85.7268 3.41965V3.18218H85.4893V3.41965H85.7268ZM88.8139 3.41965H89.0514V3.18218H88.8139V3.41965ZM88.8139 25.0295V25.2669H89.0514V25.0295H88.8139ZM85.9642 25.0295V3.41965H85.4893V25.0295H85.9642ZM85.7268 3.65712H88.8139V3.18218H85.7268V3.65712ZM88.5764 3.41965V25.0295H89.0514V3.41965H88.5764ZM88.8139 24.792H85.7268V25.2669H88.8139V24.792ZM94.9941 3.41965H95.2316V3.18218H94.9941V3.41965ZM94.9941 21.9423H94.7567V22.1798H94.9941V21.9423ZM113.517 21.9423H113.754V21.7049H113.517V21.9423ZM113.517 25.0295V25.2669H113.754V25.0295H113.517ZM91.907 25.0295H91.6696V25.2669H91.907V25.0295ZM91.907 3.41965V3.18218H91.6696V3.41965H91.907ZM94.7567 3.41965V21.9423H95.2316V3.41965H94.7567ZM94.9941 22.1798H113.517V21.7049H94.9941V22.1798ZM113.279 21.9423V25.0295H113.754V21.9423H113.279ZM113.517 24.792H91.907V25.2669H113.517V24.792ZM92.1445 25.0295V3.41965H91.6696V25.0295H92.1445ZM91.907 3.65712H94.9941V3.18218H91.907V3.65712ZM118.148 3.41965H118.385V3.18218H118.148V3.41965ZM118.148 21.9423H117.91V22.1798H118.148V21.9423ZM136.67 21.9423H136.908V21.7049H136.67V21.9423ZM136.67 25.0295V25.2669H136.908V25.0295H136.67ZM115.06 25.0295H114.823V25.2669H115.06V25.0295ZM115.06 3.41965V3.18218H114.823V3.41965H115.06ZM117.91 3.41965V21.9423H118.385V3.41965H117.91ZM118.148 22.1798H136.67V21.7049H118.148V22.1798ZM136.433 21.9423V25.0295H136.908V21.9423H136.433ZM136.67 24.792H115.06V25.2669H136.67V24.792ZM115.298 25.0295V3.41965H114.823V25.0295H115.298ZM115.06 3.65712H118.148V3.18218H115.06V3.65712ZM141.301 15.7681H141.063V16.0056H141.301V15.7681ZM156.736 15.7681V16.0056H156.974V15.7681H156.736ZM159.824 9.59388H160.061L160.061 9.58747L159.824 9.59388ZM159.824 25.0295V25.2669H160.061V25.0295H159.824ZM156.736 25.0295H156.499V25.2669H156.736V25.0295ZM156.736 18.8552H156.974V18.6178H156.736V18.8552ZM141.301 18.8552V18.6178H141.063V18.8552H141.301ZM141.301 25.0295V25.2669H141.538V25.0295H141.301ZM138.214 25.0295H137.976V25.2669H138.214V25.0295ZM153.649 6.2693H144.388V6.74424H153.649V6.2693ZM144.388 6.2693C142.559 6.2693 141.063 7.76482 141.063 9.59388H141.538C141.538 8.02712 142.821 6.74424 144.388 6.74424V6.2693ZM141.063 9.59388V15.7681H141.538V9.59388H141.063ZM141.301 16.0056H156.736V15.5306H141.301V16.0056ZM156.974 15.7681V9.59388H156.499V15.7681H156.974ZM156.974 9.59388C156.974 7.76482 155.478 6.2693 153.649 6.2693V6.74424C155.216 6.74424 156.499 8.02712 156.499 9.59388H156.974ZM159.586 9.59388V25.0295H160.061V9.59388H159.586ZM159.824 24.792H156.736V25.2669H159.824V24.792ZM156.974 25.0295V18.8552H156.499V25.0295H156.974ZM156.736 18.6178H141.301V19.0927H156.736V18.6178ZM141.063 18.8552V25.0295H141.538V18.8552H141.063ZM141.301 24.792H138.214V25.2669H141.301V24.792ZM138.451 25.0295V9.59388H137.976V25.0295H138.451ZM138.451 9.59388C138.451 6.44805 141.066 3.65712 144.388 3.65712V3.18218C140.795 3.18218 137.976 6.19503 137.976 9.59388H138.451ZM144.388 3.65712H153.649V3.18218H144.388V3.65712ZM153.649 3.65712C156.819 3.65712 159.497 6.29697 159.586 9.6003L160.061 9.58747C159.965 6.0374 157.086 3.18218 153.649 3.18218V3.65712Z" fill="#EFEFEF"/>
<path d="M0 4.98751C0 3.82795 0 3.24817 0.127459 2.77249C0.473345 1.48162 1.48162 0.473345 2.77249 0.127459C3.24817 0 3.82795 0 4.98751 0V27.4313C3.82795 27.4313 3.24817 27.4313 2.77249 27.3039C1.48162 26.958 0.473345 25.9497 0.127459 24.6588C0 24.1831 0 23.6034 0 22.4438V4.98751Z" fill="#DB2929"/>
</svg>
