<svg width="221" height="76" viewBox="0 0 221 76" fill="none" xmlns="http://www.w3.org/2000/svg">
<path d="M34.1949 24.146V20.6022H48.37V27.6898C48.37 31.4462 45.2515 34.7773 41.2824 34.7773H30.6511C26.8592 34.7773 23.5635 31.6943 23.5635 27.6898V17.0584C23.5635 13.302 26.682 9.97086 30.6511 9.97086H41.2824C45.0743 9.97086 48.2637 13.1248 48.37 17.0584H44.8262C44.8262 15.1093 43.2315 13.5146 41.2824 13.5146H30.6511C28.702 13.5146 27.1073 15.1093 27.1073 17.0584V27.6898C27.1073 29.6389 28.702 31.2336 30.6511 31.2336H41.2824C43.2315 31.2336 44.8262 29.6389 44.8262 27.6898V24.146H34.1949ZM72.4774 27.6898V17.0584C72.4774 15.1093 70.8827 13.5146 68.9336 13.5146H58.3023C56.3532 13.5146 54.7585 15.1093 54.7585 17.0584V27.6898C54.7585 29.6389 56.3532 31.2336 58.3023 31.2336H68.9336C70.8827 31.2336 72.4774 29.6389 72.4774 27.6898ZM76.0212 17.0584V27.6898C76.0212 31.5879 72.8318 34.7773 68.9336 34.7773H58.3023C54.3687 34.7773 51.2147 31.6234 51.2147 27.6898V17.0584C51.2147 13.1603 54.4041 9.97086 58.3023 9.97086H68.9336C72.69 9.97086 76.0212 13.1957 76.0212 17.0584ZM100.483 20.6022V17.0584C100.483 15.1093 98.8883 13.5146 96.9392 13.5146H82.7641V24.146H96.9392C98.8883 24.146 100.483 22.5513 100.483 20.6022ZM104.027 34.7773H101.511L94.4231 27.6898H82.7641V34.7773H79.2203V9.97086H96.9392C100.66 9.97086 104.027 13.1248 104.027 17.0584V20.6022C104.027 23.6144 102.042 26.3431 99.1009 27.3354L104.027 32.2613V34.7773ZM107.218 34.7773V9.97086H110.761V34.7773H107.218ZM117.856 9.97086V31.2336H139.119V34.7773H114.312V9.97086H117.856ZM144.434 9.97086V31.2336H165.697V34.7773H140.89V9.97086H144.434ZM185.188 13.5146H174.556C172.607 13.5146 171.013 15.1093 171.013 17.0584V24.146H188.732V17.0584C188.732 15.1093 187.137 13.5146 185.188 13.5146ZM192.275 17.0584V34.7773H188.732V27.6898H171.013V34.7773H167.469V17.0584C167.469 13.302 170.587 9.97086 174.556 9.97086H185.188C188.98 9.97086 192.169 13.1248 192.275 17.0584ZM30.6511 41.9709H41.2824C45.0743 41.9709 48.2637 45.1248 48.37 49.0584H44.8262C44.8262 47.1093 43.2315 45.5146 41.2824 45.5146H30.6511C28.702 45.5146 27.1073 47.1093 27.1073 49.0584V59.6898C27.1073 61.6389 28.702 63.2336 30.6511 63.2336H41.2824C43.2315 63.2336 44.8262 61.6389 44.8262 59.6898H48.37C48.37 63.4462 45.2515 66.7773 41.2824 66.7773H30.6511C26.8592 66.7773 23.5635 63.6943 23.5635 59.6898V49.0584C23.5635 45.2311 26.682 42.0772 30.6511 41.9709ZM72.0967 59.6898V49.0584C72.0967 47.1093 70.502 45.5146 68.5529 45.5146H57.9216C55.9725 45.5146 54.3778 47.1093 54.3778 49.0584V59.6898C54.3778 61.6389 55.9725 63.2336 57.9216 63.2336H68.5529C70.502 63.2336 72.0967 61.6389 72.0967 59.6898ZM75.6405 49.0584V59.6898C75.6405 63.5879 72.4511 66.7773 68.5529 66.7773H57.9216C53.988 66.7773 50.834 63.6234 50.834 59.6898V49.0584C50.834 45.1603 54.0234 41.9709 57.9216 41.9709H68.5529C72.3094 41.9709 75.6405 45.1957 75.6405 49.0584ZM93.0147 63.6588L82.3834 48.3142V66.7773H78.8396V41.9709H82.3834L93.0147 57.3154L103.646 41.9709H107.19V66.7773H103.646V48.3142L93.0147 63.6588ZM132.01 52.6022V49.0584C132.01 47.1093 130.416 45.5146 128.466 45.5146H114.291V56.146H128.466C130.416 56.146 132.01 54.5513 132.01 52.6022ZM135.554 49.0584V52.6022C135.554 56.3586 132.435 59.6898 128.466 59.6898H114.291V66.7773H110.748V41.9709H128.466C132.258 41.9709 135.448 45.1248 135.554 49.0584ZM156.118 45.5146H145.486C143.537 45.5146 141.942 47.1093 141.942 49.0584V56.146H159.661V49.0584C159.661 47.1093 158.067 45.5146 156.118 45.5146ZM163.205 49.0584V66.7773H159.661V59.6898H141.942V66.7773H138.399V49.0584C138.399 45.302 141.517 41.9709 145.486 41.9709H156.118C159.909 41.9709 163.099 45.1248 163.205 49.0584ZM191.549 41.9709V66.7773H188.005L170.286 47.7118V66.7773H166.742V41.9709H170.286L188.005 60.7529V41.9709H191.549ZM218.829 47.2865L208.197 58.981V66.7773H204.654V58.981L194.022 47.2865V41.9709H197.566V45.8336L206.426 55.579L215.285 45.8336V41.9709H218.829V47.2865Z" fill="#EFEFEF"/>
<path d="M34.1949 24.146H33.9223V24.4186H34.1949V24.146ZM34.1949 20.6022V20.3296H33.9223V20.6022H34.1949ZM48.37 20.6022H48.6426V20.3296H48.37V20.6022ZM48.37 17.0584V17.331H48.6501L48.6425 17.0511L48.37 17.0584ZM44.8262 17.0584H44.5536V17.331H44.8262V17.0584ZM44.8262 24.146H45.0988V23.8734H44.8262V24.146ZM34.4675 24.146V20.6022H33.9223V24.146H34.4675ZM34.1949 20.8748H48.37V20.3296H34.1949V20.8748ZM48.0974 20.6022V27.6898H48.6426V20.6022H48.0974ZM48.0974 27.6898C48.0974 31.301 45.0956 34.5047 41.2824 34.5047V35.0499C45.4073 35.0499 48.6426 31.5914 48.6426 27.6898H48.0974ZM41.2824 34.5047H30.6511V35.0499H41.2824V34.5047ZM30.6511 34.5047C27.0044 34.5047 23.8361 31.5384 23.8361 27.6898H23.2909C23.2909 31.8501 26.714 35.0499 30.6511 35.0499V34.5047ZM23.8361 27.6898V17.0584H23.2909V27.6898H23.8361ZM23.8361 17.0584C23.8361 13.4472 26.8379 10.2435 30.6511 10.2435V9.69826C26.5262 9.69826 23.2909 13.1568 23.2909 17.0584H23.8361ZM30.6511 10.2435H41.2824V9.69826H30.6511V10.2435ZM41.2824 10.2435C44.9207 10.2435 47.995 13.2738 48.0975 17.0658L48.6425 17.0511C48.5324 12.9758 45.2279 9.69826 41.2824 9.69826V10.2435ZM48.37 16.7858H44.8262V17.331H48.37V16.7858ZM45.0988 17.0584C45.0988 14.9588 43.3821 13.242 41.2824 13.242V13.7872C43.081 13.7872 44.5536 15.2599 44.5536 17.0584H45.0988ZM41.2824 13.242H30.6511V13.7872H41.2824V13.242ZM30.6511 13.242C28.5514 13.242 26.8347 14.9588 26.8347 17.0584H27.3799C27.3799 15.2599 28.8525 13.7872 30.6511 13.7872V13.242ZM26.8347 17.0584V27.6898H27.3799V17.0584H26.8347ZM26.8347 27.6898C26.8347 29.7894 28.5514 31.5062 30.6511 31.5062V30.961C28.8525 30.961 27.3799 29.4883 27.3799 27.6898H26.8347ZM30.6511 31.5062H41.2824V30.961H30.6511V31.5062ZM41.2824 31.5062C43.3821 31.5062 45.0988 29.7894 45.0988 27.6898H44.5536C44.5536 29.4883 43.081 30.961 41.2824 30.961V31.5062ZM45.0988 27.6898V24.146H44.5536V27.6898H45.0988ZM44.8262 23.8734H34.1949V24.4186H44.8262V23.8734ZM72.75 27.6898V17.0584H72.2048V27.6898H72.75ZM72.75 17.0584C72.75 14.9588 71.0333 13.242 68.9336 13.242V13.7872C70.7322 13.7872 72.2048 15.2599 72.2048 17.0584H72.75ZM68.9336 13.242H58.3023V13.7872H68.9336V13.242ZM58.3023 13.242C56.2026 13.242 54.4859 14.9588 54.4859 17.0584H55.0311C55.0311 15.2599 56.5037 13.7872 58.3023 13.7872V13.242ZM54.4859 17.0584V27.6898H55.0311V17.0584H54.4859ZM54.4859 27.6898C54.4859 29.7894 56.2026 31.5062 58.3023 31.5062V30.961C56.5037 30.961 55.0311 29.4883 55.0311 27.6898H54.4859ZM58.3023 31.5062H68.9336V30.961H58.3023V31.5062ZM68.9336 31.5062C71.0333 31.5062 72.75 29.7894 72.75 27.6898H72.2048C72.2048 29.4883 70.7322 30.961 68.9336 30.961V31.5062ZM75.7486 17.0584V27.6898H76.2938V17.0584H75.7486ZM75.7486 27.6898C75.7486 31.4374 72.6812 34.5047 68.9336 34.5047V35.0499C72.9823 35.0499 76.2938 31.7385 76.2938 27.6898H75.7486ZM68.9336 34.5047H58.3023V35.0499H68.9336V34.5047ZM58.3023 34.5047C54.5192 34.5047 51.4873 31.4728 51.4873 27.6898H50.9421C50.9421 31.7739 54.2181 35.0499 58.3023 35.0499V34.5047ZM51.4873 27.6898V17.0584H50.9421V27.6898H51.4873ZM51.4873 17.0584C51.4873 13.3108 54.5547 10.2435 58.3023 10.2435V9.69826C54.2536 9.69826 50.9421 13.0097 50.9421 17.0584H51.4873ZM58.3023 10.2435H68.9336V9.69826H58.3023V10.2435ZM68.9336 10.2435C72.5421 10.2435 75.7486 13.3489 75.7486 17.0584H76.2938C76.2938 13.0425 72.8379 9.69826 68.9336 9.69826V10.2435ZM82.7641 13.5146V13.242H82.4915V13.5146H82.7641ZM82.7641 24.146H82.4915V24.4186H82.7641V24.146ZM104.027 34.7773V35.0499H104.299V34.7773H104.027ZM101.511 34.7773L101.318 34.9701L101.398 35.0499H101.511V34.7773ZM94.4231 27.6898L94.6159 27.497L94.536 27.4172H94.4231V27.6898ZM82.7641 27.6898V27.4172H82.4915V27.6898H82.7641ZM82.7641 34.7773V35.0499H83.0367V34.7773H82.7641ZM79.2203 34.7773H78.9477V35.0499H79.2203V34.7773ZM79.2203 9.97086V9.69826H78.9477V9.97086H79.2203ZM99.1009 27.3354L99.0138 27.0771L98.5975 27.2175L98.9082 27.5282L99.1009 27.3354ZM104.027 32.2613H104.299V32.1483L104.22 32.0685L104.027 32.2613ZM100.756 20.6022V17.0584H100.21V20.6022H100.756ZM100.756 17.0584C100.756 14.9588 99.0388 13.242 96.9392 13.242V13.7872C98.7377 13.7872 100.21 15.2599 100.21 17.0584H100.756ZM96.9392 13.242H82.7641V13.7872H96.9392V13.242ZM82.4915 13.5146V24.146H83.0367V13.5146H82.4915ZM82.7641 24.4186H96.9392V23.8734H82.7641V24.4186ZM96.9392 24.4186C99.0388 24.4186 100.756 22.7018 100.756 20.6022H100.21C100.21 22.4007 98.7377 23.8734 96.9392 23.8734V24.4186ZM104.027 34.5047H101.511V35.0499H104.027V34.5047ZM101.703 34.5846L94.6159 27.497L94.2304 27.8825L101.318 34.9701L101.703 34.5846ZM94.4231 27.4172H82.7641V27.9624H94.4231V27.4172ZM82.4915 27.6898V34.7773H83.0367V27.6898H82.4915ZM82.7641 34.5047H79.2203V35.0499H82.7641V34.5047ZM79.4929 34.7773V9.97086H78.9477V34.7773H79.4929ZM79.2203 10.2435H96.9392V9.69826H79.2203V10.2435ZM96.9392 10.2435C100.515 10.2435 103.754 13.2806 103.754 17.0584H104.299C104.299 12.969 100.805 9.69826 96.9392 9.69826V10.2435ZM103.754 17.0584V20.6022H104.299V17.0584H103.754ZM103.754 20.6022C103.754 23.4939 101.848 26.1211 99.0138 27.0771L99.188 27.5937C102.237 26.5652 104.299 23.735 104.299 20.6022H103.754ZM98.9082 27.5282L103.834 32.454L104.22 32.0685L99.2937 27.1426L98.9082 27.5282ZM103.754 32.2613V34.7773H104.299V32.2613H103.754ZM107.218 34.7773H106.945V35.0499H107.218V34.7773ZM107.218 9.97086V9.69826H106.945V9.97086H107.218ZM110.761 9.97086H111.034V9.69826H110.761V9.97086ZM110.761 34.7773V35.0499H111.034V34.7773H110.761ZM107.49 34.7773V9.97086H106.945V34.7773H107.49ZM107.218 10.2435H110.761V9.69826H107.218V10.2435ZM110.489 9.97086V34.7773H111.034V9.97086H110.489ZM110.761 34.5047H107.218V35.0499H110.761V34.5047ZM117.856 9.97086H118.128V9.69826H117.856V9.97086ZM117.856 31.2336H117.583V31.5062H117.856V31.2336ZM139.119 31.2336H139.391V30.961H139.119V31.2336ZM139.119 34.7773V35.0499H139.391V34.7773H139.119ZM114.312 34.7773H114.039V35.0499H114.312V34.7773ZM114.312 9.97086V9.69826H114.039V9.97086H114.312ZM117.583 9.97086V31.2336H118.128V9.97086H117.583ZM117.856 31.5062H139.119V30.961H117.856V31.5062ZM138.846 31.2336V34.7773H139.391V31.2336H138.846ZM139.119 34.5047H114.312V35.0499H139.119V34.5047ZM114.585 34.7773V9.97086H114.039V34.7773H114.585ZM114.312 10.2435H117.856V9.69826H114.312V10.2435ZM144.434 9.97086H144.707V9.69826H144.434V9.97086ZM144.434 31.2336H144.162V31.5062H144.434V31.2336ZM165.697 31.2336H165.97V30.961H165.697V31.2336ZM165.697 34.7773V35.0499H165.97V34.7773H165.697ZM140.89 34.7773H140.618V35.0499H140.89V34.7773ZM140.89 9.97086V9.69826H140.618V9.97086H140.89ZM144.162 9.97086V31.2336H144.707V9.97086H144.162ZM144.434 31.5062H165.697V30.961H144.434V31.5062ZM165.424 31.2336V34.7773H165.97V31.2336H165.424ZM165.697 34.5047H140.89V35.0499H165.697V34.5047ZM141.163 34.7773V9.97086H140.618V34.7773H141.163ZM140.89 10.2435H144.434V9.69826H140.89V10.2435ZM171.013 24.146H170.74V24.4186H171.013V24.146ZM188.732 24.146V24.4186H189.004V24.146H188.732ZM192.275 17.0584H192.548L192.548 17.0511L192.275 17.0584ZM192.275 34.7773V35.0499H192.548V34.7773H192.275ZM188.732 34.7773H188.459V35.0499H188.732V34.7773ZM188.732 27.6898H189.004V27.4172H188.732V27.6898ZM171.013 27.6898V27.4172H170.74V27.6898H171.013ZM171.013 34.7773V35.0499H171.285V34.7773H171.013ZM167.469 34.7773H167.196V35.0499H167.469V34.7773ZM185.188 13.242H174.556V13.7872H185.188V13.242ZM174.556 13.242C172.457 13.242 170.74 14.9588 170.74 17.0584H171.285C171.285 15.2599 172.758 13.7872 174.556 13.7872V13.242ZM170.74 17.0584V24.146H171.285V17.0584H170.74ZM171.013 24.4186H188.732V23.8734H171.013V24.4186ZM189.004 24.146V17.0584H188.459V24.146H189.004ZM189.004 17.0584C189.004 14.9588 187.287 13.242 185.188 13.242V13.7872C186.986 13.7872 188.459 15.2599 188.459 17.0584H189.004ZM192.003 17.0584V34.7773H192.548V17.0584H192.003ZM192.275 34.5047H188.732V35.0499H192.275V34.5047ZM189.004 34.7773V27.6898H188.459V34.7773H189.004ZM188.732 27.4172H171.013V27.9624H188.732V27.4172ZM170.74 27.6898V34.7773H171.285V27.6898H170.74ZM171.013 34.5047H167.469V35.0499H171.013V34.5047ZM167.741 34.7773V17.0584H167.196V34.7773H167.741ZM167.741 17.0584C167.741 13.4472 170.743 10.2435 174.556 10.2435V9.69826C170.432 9.69826 167.196 13.1568 167.196 17.0584H167.741ZM174.556 10.2435H185.188V9.69826H174.556V10.2435ZM185.188 10.2435C188.826 10.2435 191.9 13.2738 192.003 17.0658L192.548 17.0511C192.438 12.9758 189.133 9.69826 185.188 9.69826V10.2435ZM30.6511 41.9709V41.6982L30.6438 41.6984L30.6511 41.9709ZM48.37 49.0584V49.331H48.6501L48.6425 49.0511L48.37 49.0584ZM44.8262 49.0584H44.5536V49.331H44.8262V49.0584ZM44.8262 59.6898V59.4172H44.5536V59.6898H44.8262ZM48.37 59.6898H48.6426V59.4172H48.37V59.6898ZM30.6511 42.2435H41.2824V41.6983H30.6511V42.2435ZM41.2824 42.2435C44.9207 42.2435 47.995 45.2738 48.0975 49.0658L48.6425 49.0511C48.5324 44.9758 45.2279 41.6983 41.2824 41.6983V42.2435ZM48.37 48.7858H44.8262V49.331H48.37V48.7858ZM45.0988 49.0584C45.0988 46.9588 43.3821 45.242 41.2824 45.242V45.7872C43.081 45.7872 44.5536 47.2599 44.5536 49.0584H45.0988ZM41.2824 45.242H30.6511V45.7872H41.2824V45.242ZM30.6511 45.242C28.5514 45.242 26.8347 46.9588 26.8347 49.0584H27.3799C27.3799 47.2599 28.8525 45.7872 30.6511 45.7872V45.242ZM26.8347 49.0584V59.6898H27.3799V49.0584H26.8347ZM26.8347 59.6898C26.8347 61.7894 28.5514 63.5062 30.6511 63.5062V62.961C28.8525 62.961 27.3799 61.4883 27.3799 59.6898H26.8347ZM30.6511 63.5062H41.2824V62.961H30.6511V63.5062ZM41.2824 63.5062C43.3821 63.5062 45.0988 61.7894 45.0988 59.6898H44.5536C44.5536 61.4883 43.081 62.961 41.2824 62.961V63.5062ZM44.8262 59.9624H48.37V59.4172H44.8262V59.9624ZM48.0974 59.6898C48.0974 63.301 45.0956 66.5047 41.2824 66.5047V67.0499C45.4073 67.0499 48.6426 63.5914 48.6426 59.6898H48.0974ZM41.2824 66.5047H30.6511V67.0499H41.2824V66.5047ZM30.6511 66.5047C27.0044 66.5047 23.8361 63.5384 23.8361 59.6898H23.2909C23.2909 63.8501 26.714 67.0499 30.6511 67.0499V66.5047ZM23.8361 59.6898V49.0584H23.2909V59.6898H23.8361ZM23.8361 49.0584C23.8361 45.3847 26.831 42.3459 30.6584 42.2434L30.6438 41.6984C26.533 41.8085 23.2909 45.0776 23.2909 49.0584H23.8361ZM72.3693 59.6898V49.0584H71.8241V59.6898H72.3693ZM72.3693 49.0584C72.3693 46.9588 70.6526 45.242 68.5529 45.242V45.7872C70.3515 45.7872 71.8241 47.2599 71.8241 49.0584H72.3693ZM68.5529 45.242H57.9216V45.7872H68.5529V45.242ZM57.9216 45.242C55.822 45.242 54.1052 46.9588 54.1052 49.0584H54.6504C54.6504 47.2599 56.1231 45.7872 57.9216 45.7872V45.242ZM54.1052 49.0584V59.6898H54.6504V49.0584H54.1052ZM54.1052 59.6898C54.1052 61.7894 55.822 63.5062 57.9216 63.5062V62.961C56.1231 62.961 54.6504 61.4883 54.6504 59.6898H54.1052ZM57.9216 63.5062H68.5529V62.961H57.9216V63.5062ZM68.5529 63.5062C70.6526 63.5062 72.3693 61.7894 72.3693 59.6898H71.8241C71.8241 61.4883 70.3515 62.961 68.5529 62.961V63.5062ZM75.3679 49.0584V59.6898H75.9131V49.0584H75.3679ZM75.3679 59.6898C75.3679 63.4374 72.3006 66.5047 68.5529 66.5047V67.0499C72.6017 67.0499 75.9131 63.7385 75.9131 59.6898H75.3679ZM68.5529 66.5047H57.9216V67.0499H68.5529V66.5047ZM57.9216 66.5047C54.1385 66.5047 51.1066 63.4728 51.1066 59.6898H50.5614C50.5614 63.7739 53.8374 67.0499 57.9216 67.0499V66.5047ZM51.1066 59.6898V49.0584H50.5614V59.6898H51.1066ZM51.1066 49.0584C51.1066 45.3108 54.174 42.2435 57.9216 42.2435V41.6983C53.8729 41.6983 50.5614 45.0097 50.5614 49.0584H51.1066ZM57.9216 42.2435H68.5529V41.6983H57.9216V42.2435ZM68.5529 42.2435C72.1614 42.2435 75.3679 45.3489 75.3679 49.0584H75.9131C75.9131 45.0425 72.4573 41.6983 68.5529 41.6983V42.2435ZM93.0147 63.6588L92.7907 63.8141L93.0147 64.1375L93.2388 63.8141L93.0147 63.6588ZM82.3834 48.3142L82.6075 48.159L82.1108 47.4421V48.3142H82.3834ZM82.3834 66.7773V67.0499H82.656V66.7773H82.3834ZM78.8396 66.7773H78.567V67.0499H78.8396V66.7773ZM78.8396 41.9709V41.6983H78.567V41.9709H78.8396ZM82.3834 41.9709L82.6075 41.8156L82.5262 41.6983H82.3834V41.9709ZM93.0147 57.3154L92.7907 57.4707L93.0147 57.7941L93.2388 57.4707L93.0147 57.3154ZM103.646 41.9709V41.6983H103.503L103.422 41.8156L103.646 41.9709ZM107.19 41.9709H107.462V41.6983H107.19V41.9709ZM107.19 66.7773V67.0499H107.462V66.7773H107.19ZM103.646 66.7773H103.373V67.0499H103.646V66.7773ZM103.646 48.3142H103.919V47.4421L103.422 48.159L103.646 48.3142ZM93.2388 63.5036L82.6075 48.159L82.1593 48.4695L92.7907 63.8141L93.2388 63.5036ZM82.1108 48.3142V66.7773H82.656V48.3142H82.1108ZM82.3834 66.5047H78.8396V67.0499H82.3834V66.5047ZM79.1122 66.7773V41.9709H78.567V66.7773H79.1122ZM78.8396 42.2435H82.3834V41.6983H78.8396V42.2435ZM82.1593 42.1261L92.7907 57.4707L93.2388 57.1602L82.6075 41.8156L82.1593 42.1261ZM93.2388 57.4707L103.87 42.1261L103.422 41.8156L92.7907 57.1602L93.2388 57.4707ZM103.646 42.2435H107.19V41.6983H103.646V42.2435ZM106.917 41.9709V66.7773H107.462V41.9709H106.917ZM107.19 66.5047H103.646V67.0499H107.19V66.5047ZM103.919 66.7773V48.3142H103.373V66.7773H103.919ZM103.422 48.159L92.7907 63.5036L93.2388 63.8141L103.87 48.4695L103.422 48.159ZM114.291 45.5146V45.242H114.019V45.5146H114.291ZM114.291 56.146H114.019V56.4186H114.291V56.146ZM135.554 49.0584H135.827L135.826 49.0511L135.554 49.0584ZM114.291 59.6898V59.4172H114.019V59.6898H114.291ZM114.291 66.7773V67.0499H114.564V66.7773H114.291ZM110.748 66.7773H110.475V67.0499H110.748V66.7773ZM110.748 41.9709V41.6983H110.475V41.9709H110.748ZM132.283 52.6022V49.0584H131.738V52.6022H132.283ZM132.283 49.0584C132.283 46.9588 130.566 45.242 128.466 45.242V45.7872C130.265 45.7872 131.738 47.2599 131.738 49.0584H132.283ZM128.466 45.242H114.291V45.7872H128.466V45.242ZM114.019 45.5146V56.146H114.564V45.5146H114.019ZM114.291 56.4186H128.466V55.8734H114.291V56.4186ZM128.466 56.4186C130.566 56.4186 132.283 54.7018 132.283 52.6022H131.738C131.738 54.4007 130.265 55.8734 128.466 55.8734V56.4186ZM135.281 49.0584V52.6022H135.827V49.0584H135.281ZM135.281 52.6022C135.281 56.2134 132.28 59.4172 128.466 59.4172V59.9624C132.591 59.9624 135.827 56.5038 135.827 52.6022H135.281ZM128.466 59.4172H114.291V59.9624H128.466V59.4172ZM114.019 59.6898V66.7773H114.564V59.6898H114.019ZM114.291 66.5047H110.748V67.0499H114.291V66.5047ZM111.02 66.7773V41.9709H110.475V66.7773H111.02ZM110.748 42.2435H128.466V41.6983H110.748V42.2435ZM128.466 42.2435C132.105 42.2435 135.179 45.2738 135.281 49.0658L135.826 49.0511C135.716 44.9758 132.412 41.6983 128.466 41.6983V42.2435ZM141.942 56.146H141.67V56.4186H141.942V56.146ZM159.661 56.146V56.4186H159.934V56.146H159.661ZM163.205 49.0584H163.478L163.478 49.0511L163.205 49.0584ZM163.205 66.7773V67.0499H163.478V66.7773H163.205ZM159.661 66.7773H159.389V67.0499H159.661V66.7773ZM159.661 59.6898H159.934V59.4172H159.661V59.6898ZM141.942 59.6898V59.4172H141.67V59.6898H141.942ZM141.942 66.7773V67.0499H142.215V66.7773H141.942ZM138.399 66.7773H138.126V67.0499H138.399V66.7773ZM156.118 45.242H145.486V45.7872H156.118V45.242ZM145.486 45.242C143.387 45.242 141.67 46.9588 141.67 49.0584H142.215C142.215 47.2599 143.688 45.7872 145.486 45.7872V45.242ZM141.67 49.0584V56.146H142.215V49.0584H141.67ZM141.942 56.4186H159.661V55.8734H141.942V56.4186ZM159.934 56.146V49.0584H159.389V56.146H159.934ZM159.934 49.0584C159.934 46.9588 158.217 45.242 156.118 45.242V45.7872C157.916 45.7872 159.389 47.2599 159.389 49.0584H159.934ZM162.933 49.0584V66.7773H163.478V49.0584H162.933ZM163.205 66.5047H159.661V67.0499H163.205V66.5047ZM159.934 66.7773V59.6898H159.389V66.7773H159.934ZM159.661 59.4172H141.942V59.9624H159.661V59.4172ZM141.67 59.6898V66.7773H142.215V59.6898H141.67ZM141.942 66.5047H138.399V67.0499H141.942V66.5047ZM138.671 66.7773V49.0584H138.126V66.7773H138.671ZM138.671 49.0584C138.671 45.4472 141.673 42.2435 145.486 42.2435V41.6983C141.361 41.6983 138.126 45.1568 138.126 49.0584H138.671ZM145.486 42.2435H156.118V41.6983H145.486V42.2435ZM156.118 42.2435C159.756 42.2435 162.83 45.2738 162.933 49.0658L163.478 49.0511C163.368 44.9758 160.063 41.6983 156.118 41.6983V42.2435ZM191.549 41.9709H191.821V41.6983H191.549V41.9709ZM191.549 66.7773V67.0499H191.821V66.7773H191.549ZM188.005 66.7773L187.805 66.9629L187.886 67.0499H188.005V66.7773ZM170.286 47.7118L170.486 47.5262L170.013 47.018V47.7118H170.286ZM170.286 66.7773V67.0499H170.558V66.7773H170.286ZM166.742 66.7773H166.469V67.0499H166.742V66.7773ZM166.742 41.9709V41.6983H166.469V41.9709H166.742ZM170.286 41.9709L170.484 41.7838L170.403 41.6983H170.286V41.9709ZM188.005 60.7529L187.806 60.94L188.277 61.4391V60.7529H188.005ZM188.005 41.9709V41.6983H187.732V41.9709H188.005ZM191.276 41.9709V66.7773H191.821V41.9709H191.276ZM191.549 66.5047H188.005V67.0499H191.549V66.5047ZM188.204 66.5918L170.486 47.5262L170.086 47.8974L187.805 66.9629L188.204 66.5918ZM170.013 47.7118V66.7773H170.558V47.7118H170.013ZM170.286 66.5047H166.742V67.0499H170.286V66.5047ZM167.015 66.7773V41.9709H166.469V66.7773H167.015ZM166.742 42.2435H170.286V41.6983H166.742V42.2435ZM170.088 42.1579L187.806 60.94L188.203 60.5658L170.484 41.7838L170.088 42.1579ZM188.277 60.7529V41.9709H187.732V60.7529H188.277ZM188.005 42.2435H191.549V41.6983H188.005V42.2435ZM218.829 47.2865L219.03 47.4699L219.101 47.3919V47.2865H218.829ZM208.197 58.981L207.996 58.7976L207.925 58.8756V58.981H208.197ZM208.197 66.7773V67.0499H208.47V66.7773H208.197ZM204.654 66.7773H204.381V67.0499H204.654V66.7773ZM204.654 58.981H204.926V58.8756L204.855 58.7976L204.654 58.981ZM194.022 47.2865H193.75V47.3919L193.821 47.4699L194.022 47.2865ZM194.022 41.9709V41.6983H193.75V41.9709H194.022ZM197.566 41.9709H197.839V41.6983H197.566V41.9709ZM197.566 45.8336H197.293V45.939L197.364 46.017L197.566 45.8336ZM206.426 55.579L206.224 55.7624L206.426 55.9842L206.627 55.7624L206.426 55.579ZM215.285 45.8336L215.487 46.017L215.558 45.939V45.8336H215.285ZM215.285 41.9709V41.6983H215.012V41.9709H215.285ZM218.829 41.9709H219.101V41.6983H218.829V41.9709ZM218.627 47.1032L207.996 58.7976L208.399 59.1644L219.03 47.4699L218.627 47.1032ZM207.925 58.981V66.7773H208.47V58.981H207.925ZM208.197 66.5047H204.654V67.0499H208.197V66.5047ZM204.926 66.7773V58.981H204.381V66.7773H204.926ZM204.855 58.7976L194.224 47.1032L193.821 47.4699L204.452 59.1644L204.855 58.7976ZM194.295 47.2865V41.9709H193.75V47.2865H194.295ZM194.022 42.2435H197.566V41.6983H194.022V42.2435ZM197.293 41.9709V45.8336H197.839V41.9709H197.293ZM197.364 46.017L206.224 55.7624L206.627 55.3956L197.768 45.6502L197.364 46.017ZM206.627 55.7624L215.487 46.017L215.083 45.6502L206.224 55.3956L206.627 55.7624ZM215.558 45.8336V41.9709H215.012V45.8336H215.558ZM215.285 42.2435H218.829V41.6983H215.285V42.2435ZM218.556 41.9709V47.2865H219.101V41.9709H218.556Z" fill="#EFEFEF"/>
<g filter="url(#filter0_d_37_90)">
<path d="M7 13.7177C7 11.4568 7 10.3263 7.41507 9.45215C7.83926 8.55881 8.55881 7.83926 9.45215 7.41507C10.3263 7 11.4568 7 13.7177 7V68.3547C11.4568 68.3547 10.3263 68.3547 9.45215 67.9396C8.55881 67.5154 7.83926 66.7959 7.41507 65.9025C7 65.0284 7 63.8979 7 61.637V13.7177Z" fill="#DB2929"/>
</g>
<defs>
<filter id="filter0_d_37_90" x="0.282336" y="0.282336" width="20.153" height="74.7901" filterUnits="userSpaceOnUse" color-interpolation-filters="sRGB">
<feFlood flood-opacity="0" result="BackgroundImageFix"/>
<feColorMatrix in="SourceAlpha" type="matrix" values="0 0 0 0 0 0 0 0 0 0 0 0 0 0 0 0 0 0 127 0" result="hardAlpha"/>
<feOffset/>
<feGaussianBlur stdDeviation="3.35883"/>
<feComposite in2="hardAlpha" operator="out"/>
<feColorMatrix type="matrix" values="0 0 0 0 0 0 0 0 0 0 0 0 0 0 0 0 0 0 0.25 0"/>
<feBlend mode="normal" in2="BackgroundImageFix" result="effect1_dropShadow_37_90"/>
<feBlend mode="normal" in="SourceGraphic" in2="effect1_dropShadow_37_90" result="shape"/>
</filter>
</defs>
</svg>
