<svg width="162" height="28" viewBox="0 0 162 28" fill="none" xmlns="http://www.w3.org/2000/svg">
<path d="M22.1144 15.7681V12.681H34.4628V18.8552C34.4628 22.1276 31.7462 25.0295 28.2886 25.0295H19.0272C15.724 25.0295 12.853 22.3437 12.853 18.8552V9.59388C12.853 6.32154 15.5697 3.41965 19.0272 3.41965H28.2886C31.5918 3.41965 34.3702 6.16718 34.4628 9.59388H31.3757C31.3757 7.89597 29.9865 6.50677 28.2886 6.50677H19.0272C17.3293 6.50677 15.9401 7.89597 15.9401 9.59388V18.8552C15.9401 20.5531 17.3293 21.9423 19.0272 21.9423H28.2886C29.9865 21.9423 31.3757 20.5531 31.3757 18.8552V15.7681H22.1144ZM55.4636 18.8552V9.59388C55.4636 7.89597 54.0744 6.50677 52.3765 6.50677H43.1152C41.4173 6.50677 40.0281 7.89597 40.0281 9.59388V18.8552C40.0281 20.5531 41.4173 21.9423 43.1152 21.9423H52.3765C54.0744 21.9423 55.4636 20.5531 55.4636 18.8552ZM58.5508 9.59388V18.8552C58.5508 22.2511 55.7724 25.0295 52.3765 25.0295H43.1152C39.6885 25.0295 36.9409 22.2819 36.9409 18.8552V9.59388C36.9409 6.19805 39.7194 3.41965 43.1152 3.41965H52.3765C55.6489 3.41965 58.5508 6.22893 58.5508 9.59388ZM79.8603 12.681V9.59388C79.8603 7.89597 78.4711 6.50677 76.7732 6.50677H64.4247V15.7681H76.7732C78.4711 15.7681 79.8603 14.3789 79.8603 12.681ZM82.9474 25.0295H80.7556L74.5813 18.8552H64.4247V25.0295H61.3376V3.41965H76.7732C80.0146 3.41965 82.9474 6.16718 82.9474 9.59388V12.681C82.9474 15.305 81.2186 17.6821 78.6563 18.5465L82.9474 22.8376V25.0295ZM85.727 25.0295V3.41965H88.8141V25.0295H85.727ZM94.9944 3.41965V21.9423H113.517V25.0295H91.9073V3.41965H94.9944ZM118.148 3.41965V21.9423H136.67V25.0295H115.061V3.41965H118.148ZM153.65 6.50677H144.388C142.69 6.50677 141.301 7.89597 141.301 9.59388V15.7681H156.737V9.59388C156.737 7.89597 155.347 6.50677 153.65 6.50677ZM159.824 9.59388V25.0295H156.737V18.8552H141.301V25.0295H138.214V9.59388C138.214 6.32154 140.931 3.41965 144.388 3.41965H153.65C156.953 3.41965 159.731 6.16718 159.824 9.59388Z" fill="#EFEFEF"/>
<path d="M22.1144 15.7681H21.8769V16.0056H22.1144V15.7681ZM22.1144 12.681V12.4435H21.8769V12.681H22.1144ZM34.4628 12.681H34.7003V12.4435H34.4628V12.681ZM34.4628 9.59388V9.83135H34.7068L34.7002 9.58747L34.4628 9.59388ZM31.3757 9.59388H31.1382V9.83135H31.3757V9.59388ZM31.3757 15.7681H31.6132V15.5306H31.3757V15.7681ZM22.3518 15.7681V12.681H21.8769V15.7681H22.3518ZM22.1144 12.9185H34.4628V12.4435H22.1144V12.9185ZM34.2253 12.681V18.8552H34.7003V12.681H34.2253ZM34.2253 18.8552C34.2253 22.0011 31.6104 24.792 28.2886 24.792V25.2669C31.8819 25.2669 34.7003 22.2541 34.7003 18.8552H34.2253ZM28.2886 24.792H19.0272V25.2669H28.2886V24.792ZM19.0272 24.792C15.8505 24.792 13.0905 22.2079 13.0905 18.8552H12.6155C12.6155 22.4794 15.5975 25.2669 19.0272 25.2669V24.792ZM13.0905 18.8552V9.59388H12.6155V18.8552H13.0905ZM13.0905 9.59388C13.0905 6.44805 15.7054 3.65712 19.0272 3.65712V3.18218C15.4339 3.18218 12.6155 6.19503 12.6155 9.59388H13.0905ZM19.0272 3.65712H28.2886V3.18218H19.0272V3.65712ZM28.2886 3.65712C31.458 3.65712 34.1362 6.29697 34.2254 9.6003L34.7002 9.58747C34.6043 6.0374 31.7256 3.18218 28.2886 3.18218V3.65712ZM34.4628 9.35641H31.3757V9.83135H34.4628V9.35641ZM31.6132 9.59388C31.6132 7.76482 30.1177 6.2693 28.2886 6.2693V6.74424C29.8553 6.74424 31.1382 8.02712 31.1382 9.59388H31.6132ZM28.2886 6.2693H19.0272V6.74424H28.2886V6.2693ZM19.0272 6.2693C17.1982 6.2693 15.7027 7.76482 15.7027 9.59388H16.1776C16.1776 8.02712 17.4605 6.74424 19.0272 6.74424V6.2693ZM15.7027 9.59388V18.8552H16.1776V9.59388H15.7027ZM15.7027 18.8552C15.7027 20.6843 17.1982 22.1798 19.0272 22.1798V21.7049C17.4605 21.7049 16.1776 20.422 16.1776 18.8552H15.7027ZM19.0272 22.1798H28.2886V21.7049H19.0272V22.1798ZM28.2886 22.1798C30.1177 22.1798 31.6132 20.6843 31.6132 18.8552H31.1382C31.1382 20.422 29.8553 21.7049 28.2886 21.7049V22.1798ZM31.6132 18.8552V15.7681H31.1382V18.8552H31.6132ZM31.3757 15.5306H22.1144V16.0056H31.3757V15.5306ZM55.7011 18.8552V9.59388H55.2262V18.8552H55.7011ZM55.7011 9.59388C55.7011 7.76482 54.2056 6.2693 52.3765 6.2693V6.74424C53.9433 6.74424 55.2262 8.02712 55.2262 9.59388H55.7011ZM52.3765 6.2693H43.1152V6.74424H52.3765V6.2693ZM43.1152 6.2693C41.2861 6.2693 39.7906 7.76482 39.7906 9.59388H40.2655C40.2655 8.02712 41.5484 6.74424 43.1152 6.74424V6.2693ZM39.7906 9.59388V18.8552H40.2655V9.59388H39.7906ZM39.7906 18.8552C39.7906 20.6843 41.2861 22.1798 43.1152 22.1798V21.7049C41.5484 21.7049 40.2655 20.422 40.2655 18.8552H39.7906ZM43.1152 22.1798H52.3765V21.7049H43.1152V22.1798ZM52.3765 22.1798C54.2056 22.1798 55.7011 20.6843 55.7011 18.8552H55.2262C55.2262 20.422 53.9433 21.7049 52.3765 21.7049V22.1798ZM58.3133 9.59388V18.8552H58.7882V9.59388H58.3133ZM58.3133 18.8552C58.3133 22.1199 55.6412 24.792 52.3765 24.792V25.2669C55.9035 25.2669 58.7882 22.3822 58.7882 18.8552H58.3133ZM52.3765 24.792H43.1152V25.2669H52.3765V24.792ZM43.1152 24.792C39.8196 24.792 37.1784 22.1508 37.1784 18.8552H36.7035C36.7035 22.4131 39.5573 25.2669 43.1152 25.2669V24.792ZM37.1784 18.8552V9.59388H36.7035V18.8552H37.1784ZM37.1784 9.59388C37.1784 6.32921 39.8505 3.65712 43.1152 3.65712V3.18218C39.5882 3.18218 36.7035 6.0669 36.7035 9.59388H37.1784ZM43.1152 3.65712H52.3765V3.18218H43.1152V3.65712ZM52.3765 3.65712C55.52 3.65712 58.3133 6.36237 58.3133 9.59388H58.7882C58.7882 6.09548 55.7777 3.18218 52.3765 3.18218V3.65712ZM64.4247 6.50677V6.2693H64.1872V6.50677H64.4247ZM64.4247 15.7681H64.1872V16.0056H64.4247V15.7681ZM82.9474 25.0295V25.2669H83.1849V25.0295H82.9474ZM80.7556 25.0295L80.5876 25.1974L80.6572 25.2669H80.7556V25.0295ZM74.5813 18.8552L74.7492 18.6873L74.6797 18.6178H74.5813V18.8552ZM64.4247 18.8552V18.6178H64.1872V18.8552H64.4247ZM64.4247 25.0295V25.2669H64.6622V25.0295H64.4247ZM61.3376 25.0295H61.1001V25.2669H61.3376V25.0295ZM61.3376 3.41965V3.18218H61.1001V3.41965H61.3376ZM78.6563 18.5465L78.5804 18.3215L78.2178 18.4438L78.4884 18.7144L78.6563 18.5465ZM82.9474 22.8376H83.1849V22.7392L83.1153 22.6697L82.9474 22.8376ZM80.0978 12.681V9.59388H79.6228V12.681H80.0978ZM80.0978 9.59388C80.0978 7.76482 78.6022 6.2693 76.7732 6.2693V6.74424C78.3399 6.74424 79.6228 8.02712 79.6228 9.59388H80.0978ZM76.7732 6.2693H64.4247V6.74424H76.7732V6.2693ZM64.1872 6.50677V15.7681H64.6622V6.50677H64.1872ZM64.4247 16.0056H76.7732V15.5306H64.4247V16.0056ZM76.7732 16.0056C78.6022 16.0056 80.0978 14.5101 80.0978 12.681H79.6228C79.6228 14.2478 78.3399 15.5306 76.7732 15.5306V16.0056ZM82.9474 24.792H80.7556V25.2669H82.9474V24.792ZM80.9235 24.8615L74.7492 18.6873L74.4134 19.0231L80.5876 25.1974L80.9235 24.8615ZM74.5813 18.6178H64.4247V19.0927H74.5813V18.6178ZM64.1872 18.8552V25.0295H64.6622V18.8552H64.1872ZM64.4247 24.792H61.3376V25.2669H64.4247V24.792ZM61.5751 25.0295V3.41965H61.1001V25.0295H61.5751ZM61.3376 3.65712H76.7732V3.18218H61.3376V3.65712ZM76.7732 3.65712C79.8881 3.65712 82.7099 6.30291 82.7099 9.59388H83.1849C83.1849 6.03146 80.1412 3.18218 76.7732 3.18218V3.65712ZM82.7099 9.59388V12.681H83.1849V9.59388H82.7099ZM82.7099 12.681C82.7099 15.2 81.0492 17.4887 78.5804 18.3215L78.7322 18.7715C81.3881 17.8756 83.1849 15.4101 83.1849 12.681H82.7099ZM78.4884 18.7144L82.7795 23.0055L83.1153 22.6697L78.8242 18.3786L78.4884 18.7144ZM82.7099 22.8376V25.0295H83.1849V22.8376H82.7099ZM85.727 25.0295H85.4895V25.2669H85.727V25.0295ZM85.727 3.41965V3.18218H85.4895V3.41965H85.727ZM88.8141 3.41965H89.0516V3.18218H88.8141V3.41965ZM88.8141 25.0295V25.2669H89.0516V25.0295H88.8141ZM85.9645 25.0295V3.41965H85.4895V25.0295H85.9645ZM85.727 3.65712H88.8141V3.18218H85.727V3.65712ZM88.5767 3.41965V25.0295H89.0516V3.41965H88.5767ZM88.8141 24.792H85.727V25.2669H88.8141V24.792ZM94.9944 3.41965H95.2319V3.18218H94.9944V3.41965ZM94.9944 21.9423H94.7569V22.1798H94.9944V21.9423ZM113.517 21.9423H113.755V21.7049H113.517V21.9423ZM113.517 25.0295V25.2669H113.755V25.0295H113.517ZM91.9073 25.0295H91.6698V25.2669H91.9073V25.0295ZM91.9073 3.41965V3.18218H91.6698V3.41965H91.9073ZM94.7569 3.41965V21.9423H95.2319V3.41965H94.7569ZM94.9944 22.1798H113.517V21.7049H94.9944V22.1798ZM113.28 21.9423V25.0295H113.755V21.9423H113.28ZM113.517 24.792H91.9073V25.2669H113.517V24.792ZM92.1447 25.0295V3.41965H91.6698V25.0295H92.1447ZM91.9073 3.65712H94.9944V3.18218H91.9073V3.65712ZM118.148 3.41965H118.385V3.18218H118.148V3.41965ZM118.148 21.9423H117.91V22.1798H118.148V21.9423ZM136.67 21.9423H136.908V21.7049H136.67V21.9423ZM136.67 25.0295V25.2669H136.908V25.0295H136.67ZM115.061 25.0295H114.823V25.2669H115.061V25.0295ZM115.061 3.41965V3.18218H114.823V3.41965H115.061ZM117.91 3.41965V21.9423H118.385V3.41965H117.91ZM118.148 22.1798H136.67V21.7049H118.148V22.1798ZM136.433 21.9423V25.0295H136.908V21.9423H136.433ZM136.67 24.792H115.061V25.2669H136.67V24.792ZM115.298 25.0295V3.41965H114.823V25.0295H115.298ZM115.061 3.65712H118.148V3.18218H115.061V3.65712ZM141.301 15.7681H141.064V16.0056H141.301V15.7681ZM156.737 15.7681V16.0056H156.974V15.7681H156.737ZM159.824 9.59388H160.061L160.061 9.58747L159.824 9.59388ZM159.824 25.0295V25.2669H160.061V25.0295H159.824ZM156.737 25.0295H156.499V25.2669H156.737V25.0295ZM156.737 18.8552H156.974V18.6178H156.737V18.8552ZM141.301 18.8552V18.6178H141.064V18.8552H141.301ZM141.301 25.0295V25.2669H141.539V25.0295H141.301ZM138.214 25.0295H137.977V25.2669H138.214V25.0295ZM153.65 6.2693H144.388V6.74424H153.65V6.2693ZM144.388 6.2693C142.559 6.2693 141.064 7.76482 141.064 9.59388H141.539C141.539 8.02712 142.821 6.74424 144.388 6.74424V6.2693ZM141.064 9.59388V15.7681H141.539V9.59388H141.064ZM141.301 16.0056H156.737V15.5306H141.301V16.0056ZM156.974 15.7681V9.59388H156.499V15.7681H156.974ZM156.974 9.59388C156.974 7.76482 155.479 6.2693 153.65 6.2693V6.74424C155.216 6.74424 156.499 8.02712 156.499 9.59388H156.974ZM159.586 9.59388V25.0295H160.061V9.59388H159.586ZM159.824 24.792H156.737V25.2669H159.824V24.792ZM156.974 25.0295V18.8552H156.499V25.0295H156.974ZM156.737 18.6178H141.301V19.0927H156.737V18.6178ZM141.064 18.8552V25.0295H141.539V18.8552H141.064ZM141.301 24.792H138.214V25.2669H141.301V24.792ZM138.451 25.0295V9.59388H137.977V25.0295H138.451ZM138.451 9.59388C138.451 6.44805 141.066 3.65712 144.388 3.65712V3.18218C140.795 3.18218 137.977 6.19503 137.977 9.59388H138.451ZM144.388 3.65712H153.65V3.18218H144.388V3.65712ZM153.65 3.65712C156.819 3.65712 159.497 6.29697 159.586 9.6003L160.061 9.58747C159.965 6.0374 157.087 3.18218 153.65 3.18218V3.65712Z" fill="#EFEFEF"/>
<path d="M0 4.98751C0 3.82795 0 3.24817 0.127459 2.77249C0.473345 1.48162 1.48162 0.473345 2.77249 0.127459C3.24817 0 3.82795 0 4.98751 0V27.4313C3.82795 27.4313 3.24817 27.4313 2.77249 27.3039C1.48162 26.958 0.473345 25.9497 0.127459 24.6588C0 24.1831 0 23.6034 0 22.4438V4.98751Z" fill="#0071BB"/>
</svg>
