<svg viewBox="0 0 647 552" fill="none" xmlns="http://www.w3.org/2000/svg">
<path d="M380.43 348.445L298.649 395.661L295.43 390.085C274.922 354.564 268.438 326.641 275.979 306.317C283.694 285.341 310.458 257.774 356.271 223.614C379.971 205.525 394.512 189.695 399.894 176.124C405.451 161.901 403.221 146.117 393.206 128.769C380.806 107.291 365.851 96.6505 348.341 96.8468C329.767 97.107 294.459 112.26 242.417 142.307C218.461 156.138 200.232 167.489 187.73 176.359C174.99 184.816 164.053 193.057 154.92 201.084C146.199 208.873 141.443 216.85 140.651 225.017C139.621 232.772 140.426 240.843 143.066 249.231C145.468 257.207 150.365 267.597 157.757 280.401L164.911 292.792L82.511 340.366L76.4301 329.833C59.0221 299.682 48.1229 276.511 43.7323 260.322C39.7549 243.894 40.5678 227.179 46.1711 210.176C51.536 192.76 65.6236 174.713 88.4341 156.037C111.245 137.36 149.91 112.283 204.431 80.8054C260.603 48.3741 302.837 27.57 331.132 18.393C359.602 8.56457 384.499 6.85648 405.824 13.2687C429.342 20.6178 452.667 44.3245 475.798 84.3888C502.029 129.823 508.849 166.913 496.259 195.66C485.175 217.479 455.933 246.478 408.532 282.656C389.55 297.47 378.272 308.938 374.7 317.058C371.128 325.179 373.038 335.641 380.43 348.445ZM370.719 539.091L318.853 449.256L416.123 393.097L467.989 482.932L370.719 539.091Z" fill="#EFEFEF" fill-opacity="0.04"/>
</svg>
